%TF.GenerationSoftware,KiCad,Pcbnew,10.0.2*%
%TF.CreationDate,2026-05-17T14:06:41+02:00*%
%TF.ProjectId,Amon_board,416d6f6e-5f62-46f6-9172-642e6b696361,2.2*%
%TF.SameCoordinates,Original*%
%TF.FileFunction,Soldermask,Top*%
%TF.FilePolarity,Negative*%
%FSLAX46Y46*%
G04 Gerber Fmt 4.6, Leading zero omitted, Abs format (unit mm)*
G04 Created by KiCad (PCBNEW 10.0.2) date 2026-05-17 14:06:41*
%MOMM*%
%LPD*%
G01*
G04 APERTURE LIST*
G04 Aperture macros list*
%AMRoundRect*
0 Rectangle with rounded corners*
0 $1 Rounding radius*
0 $2 $3 $4 $5 $6 $7 $8 $9 X,Y pos of 4 corners*
0 Add a 4 corners polygon primitive as box body*
4,1,4,$2,$3,$4,$5,$6,$7,$8,$9,$2,$3,0*
0 Add four circle primitives for the rounded corners*
1,1,$1+$1,$2,$3*
1,1,$1+$1,$4,$5*
1,1,$1+$1,$6,$7*
1,1,$1+$1,$8,$9*
0 Add four rect primitives between the rounded corners*
20,1,$1+$1,$2,$3,$4,$5,0*
20,1,$1+$1,$4,$5,$6,$7,0*
20,1,$1+$1,$6,$7,$8,$9,0*
20,1,$1+$1,$8,$9,$2,$3,0*%
%AMRotRect*
0 Rectangle, with rotation*
0 The origin of the aperture is its center*
0 $1 length*
0 $2 width*
0 $3 Rotation angle, in degrees counterclockwise*
0 Add horizontal line*
21,1,$1,$2,0,0,$3*%
%AMFreePoly0*
4,1,23,0.550000,-0.750000,0.000000,-0.750000,0.000000,-0.745722,-0.065263,-0.745722,-0.191342,-0.711940,-0.304381,-0.646677,-0.396677,-0.554381,-0.461940,-0.441342,-0.495722,-0.315263,-0.495722,-0.250000,-0.500000,-0.250000,-0.500000,0.250000,-0.495722,0.250000,-0.495722,0.315263,-0.461940,0.441342,-0.396677,0.554381,-0.304381,0.646677,-0.191342,0.711940,-0.065263,0.745722,0.000000,0.745722,
0.000000,0.750000,0.550000,0.750000,0.550000,-0.750000,0.550000,-0.750000,$1*%
%AMFreePoly1*
4,1,23,0.000000,0.745722,0.065263,0.745722,0.191342,0.711940,0.304381,0.646677,0.396677,0.554381,0.461940,0.441342,0.495722,0.315263,0.495722,0.250000,0.500000,0.250000,0.500000,-0.250000,0.495722,-0.250000,0.495722,-0.315263,0.461940,-0.441342,0.396677,-0.554381,0.304381,-0.646677,0.191342,-0.711940,0.065263,-0.745722,0.000000,-0.745722,0.000000,-0.750000,-0.550000,-0.750000,
-0.550000,0.750000,0.000000,0.750000,0.000000,0.745722,0.000000,0.745722,$1*%
%AMFreePoly2*
4,1,23,0.500000,-0.750000,0.000000,-0.750000,0.000000,-0.745722,-0.065263,-0.745722,-0.191342,-0.711940,-0.304381,-0.646677,-0.396677,-0.554381,-0.461940,-0.441342,-0.495722,-0.315263,-0.495722,-0.250000,-0.500000,-0.250000,-0.500000,0.250000,-0.495722,0.250000,-0.495722,0.315263,-0.461940,0.441342,-0.396677,0.554381,-0.304381,0.646677,-0.191342,0.711940,-0.065263,0.745722,0.000000,0.745722,
0.000000,0.750000,0.500000,0.750000,0.500000,-0.750000,0.500000,-0.750000,$1*%
%AMFreePoly3*
4,1,23,0.000000,0.745722,0.065263,0.745722,0.191342,0.711940,0.304381,0.646677,0.396677,0.554381,0.461940,0.441342,0.495722,0.315263,0.495722,0.250000,0.500000,0.250000,0.500000,-0.250000,0.495722,-0.250000,0.495722,-0.315263,0.461940,-0.441342,0.396677,-0.554381,0.304381,-0.646677,0.191342,-0.711940,0.065263,-0.745722,0.000000,-0.745722,0.000000,-0.750000,-0.500000,-0.750000,
-0.500000,0.750000,0.000000,0.750000,0.000000,0.745722,0.000000,0.745722,$1*%
G04 Aperture macros list end*
%ADD10R,1.700000X1.700000*%
%ADD11O,1.700000X1.700000*%
%ADD12RoundRect,0.250000X-0.725000X0.600000X-0.725000X-0.600000X0.725000X-0.600000X0.725000X0.600000X0*%
%ADD13O,1.950000X1.700000*%
%ADD14RoundRect,0.250000X0.600000X0.725000X-0.600000X0.725000X-0.600000X-0.725000X0.600000X-0.725000X0*%
%ADD15O,1.700000X1.950000*%
%ADD16O,1.600000X1.000000*%
%ADD17C,0.650000*%
%ADD18R,1.150000X0.300000*%
%ADD19O,2.100000X1.000000*%
%ADD20RoundRect,0.200000X-0.200000X-0.275000X0.200000X-0.275000X0.200000X0.275000X-0.200000X0.275000X0*%
%ADD21RotRect,0.900000X1.000000X135.000000*%
%ADD22RoundRect,0.200000X-0.275000X0.200000X-0.275000X-0.200000X0.275000X-0.200000X0.275000X0.200000X0*%
%ADD23RoundRect,0.225000X0.250000X-0.225000X0.250000X0.225000X-0.250000X0.225000X-0.250000X-0.225000X0*%
%ADD24RoundRect,0.200000X0.275000X-0.200000X0.275000X0.200000X-0.275000X0.200000X-0.275000X-0.200000X0*%
%ADD25RoundRect,0.200000X0.200000X0.275000X-0.200000X0.275000X-0.200000X-0.275000X0.200000X-0.275000X0*%
%ADD26FreePoly0,270.000000*%
%ADD27R,1.500000X1.000000*%
%ADD28FreePoly1,270.000000*%
%ADD29RoundRect,0.140000X0.140000X0.170000X-0.140000X0.170000X-0.140000X-0.170000X0.140000X-0.170000X0*%
%ADD30C,0.800000*%
%ADD31C,6.400000*%
%ADD32RoundRect,0.250000X0.325000X0.650000X-0.325000X0.650000X-0.325000X-0.650000X0.325000X-0.650000X0*%
%ADD33RoundRect,0.225000X0.225000X0.250000X-0.225000X0.250000X-0.225000X-0.250000X0.225000X-0.250000X0*%
%ADD34R,2.400000X0.740000*%
%ADD35RoundRect,0.250000X0.500000X2.290000X-0.500000X2.290000X-0.500000X-2.290000X0.500000X-2.290000X0*%
%ADD36R,1.500000X5.080000*%
%ADD37RoundRect,0.135000X0.135000X0.185000X-0.135000X0.185000X-0.135000X-0.185000X0.135000X-0.185000X0*%
%ADD38RoundRect,0.250000X0.925000X1.500000X-0.925000X1.500000X-0.925000X-1.500000X0.925000X-1.500000X0*%
%ADD39RoundRect,0.218750X0.218750X0.256250X-0.218750X0.256250X-0.218750X-0.256250X0.218750X-0.256250X0*%
%ADD40RoundRect,0.250000X-0.312500X-0.625000X0.312500X-0.625000X0.312500X0.625000X-0.312500X0.625000X0*%
%ADD41RoundRect,0.140000X0.170000X-0.140000X0.170000X0.140000X-0.170000X0.140000X-0.170000X-0.140000X0*%
%ADD42R,1.200000X1.400000*%
%ADD43RoundRect,0.140000X-0.140000X-0.170000X0.140000X-0.170000X0.140000X0.170000X-0.140000X0.170000X0*%
%ADD44RoundRect,0.135000X0.185000X-0.135000X0.185000X0.135000X-0.185000X0.135000X-0.185000X-0.135000X0*%
%ADD45RoundRect,0.225000X-0.017678X0.335876X-0.335876X0.017678X0.017678X-0.335876X0.335876X-0.017678X0*%
%ADD46RoundRect,0.140000X-0.170000X0.140000X-0.170000X-0.140000X0.170000X-0.140000X0.170000X0.140000X0*%
%ADD47RoundRect,0.225000X-0.225000X-0.250000X0.225000X-0.250000X0.225000X0.250000X-0.225000X0.250000X0*%
%ADD48RoundRect,0.225000X-0.335876X-0.017678X-0.017678X-0.335876X0.335876X0.017678X0.017678X0.335876X0*%
%ADD49FreePoly2,270.000000*%
%ADD50FreePoly3,270.000000*%
%ADD51R,2.500000X1.800000*%
%ADD52RoundRect,0.250000X-0.625000X0.312500X-0.625000X-0.312500X0.625000X-0.312500X0.625000X0.312500X0*%
%ADD53RoundRect,0.225000X-0.250000X0.225000X-0.250000X-0.225000X0.250000X-0.225000X0.250000X0.225000X0*%
%ADD54RoundRect,0.250001X-0.899999X-0.899999X0.899999X-0.899999X0.899999X0.899999X-0.899999X0.899999X0*%
%ADD55C,2.300000*%
%ADD56RoundRect,0.250000X-0.325000X-0.650000X0.325000X-0.650000X0.325000X0.650000X-0.325000X0.650000X0*%
%ADD57RoundRect,0.150000X-0.150000X0.650000X-0.150000X-0.650000X0.150000X-0.650000X0.150000X0.650000X0*%
%ADD58R,0.500000X0.350000*%
%ADD59RoundRect,0.250000X0.425000X-0.450000X0.425000X0.450000X-0.425000X0.450000X-0.425000X-0.450000X0*%
%ADD60RoundRect,0.140000X-0.219203X-0.021213X-0.021213X-0.219203X0.219203X0.021213X0.021213X0.219203X0*%
%ADD61R,1.600000X0.700000*%
%ADD62R,1.400000X1.200000*%
%ADD63R,1.400000X1.600000*%
%ADD64R,2.200000X1.200000*%
%ADD65RoundRect,0.147500X0.172500X-0.147500X0.172500X0.147500X-0.172500X0.147500X-0.172500X-0.147500X0*%
%ADD66RoundRect,0.150000X0.820000X0.150000X-0.820000X0.150000X-0.820000X-0.150000X0.820000X-0.150000X0*%
%ADD67R,2.620000X3.510000*%
%ADD68RoundRect,0.200000X-0.335876X-0.053033X-0.053033X-0.335876X0.335876X0.053033X0.053033X0.335876X0*%
%ADD69RoundRect,0.140000X0.219203X0.021213X0.021213X0.219203X-0.219203X-0.021213X-0.021213X-0.219203X0*%
%ADD70R,0.400000X1.900000*%
%ADD71RoundRect,0.250000X0.650000X-1.000000X0.650000X1.000000X-0.650000X1.000000X-0.650000X-1.000000X0*%
%ADD72RoundRect,0.250000X-0.650000X0.325000X-0.650000X-0.325000X0.650000X-0.325000X0.650000X0.325000X0*%
%ADD73RoundRect,0.147500X0.147500X0.172500X-0.147500X0.172500X-0.147500X-0.172500X0.147500X-0.172500X0*%
%ADD74RoundRect,0.135000X-0.135000X-0.185000X0.135000X-0.185000X0.135000X0.185000X-0.135000X0.185000X0*%
%ADD75RoundRect,0.225000X0.335876X0.017678X0.017678X0.335876X-0.335876X-0.017678X-0.017678X-0.335876X0*%
%ADD76R,2.000000X0.900000*%
%ADD77RoundRect,1.025000X1.025000X-1.025000X1.025000X1.025000X-1.025000X1.025000X-1.025000X-1.025000X0*%
%ADD78C,4.100000*%
%ADD79RoundRect,0.150000X0.587500X0.150000X-0.587500X0.150000X-0.587500X-0.150000X0.587500X-0.150000X0*%
%ADD80RoundRect,0.075000X-0.459619X-0.565685X0.565685X0.459619X0.459619X0.565685X-0.565685X-0.459619X0*%
%ADD81RoundRect,0.075000X0.459619X-0.565685X0.565685X-0.459619X-0.459619X0.565685X-0.565685X0.459619X0*%
%ADD82RoundRect,0.250000X-0.238649X0.751301X-0.751301X0.238649X0.238649X-0.751301X0.751301X-0.238649X0*%
%ADD83RoundRect,0.250000X0.445000X-0.457500X0.445000X0.457500X-0.445000X0.457500X-0.445000X-0.457500X0*%
%ADD84RoundRect,0.250000X1.000000X0.650000X-1.000000X0.650000X-1.000000X-0.650000X1.000000X-0.650000X0*%
%ADD85RoundRect,0.059250X0.177750X-0.447750X0.177750X0.447750X-0.177750X0.447750X-0.177750X-0.447750X0*%
%ADD86RoundRect,0.059250X0.447750X-0.177750X0.447750X0.177750X-0.447750X0.177750X-0.447750X-0.177750X0*%
%ADD87RoundRect,0.102000X0.850000X-0.850000X0.850000X0.850000X-0.850000X0.850000X-0.850000X-0.850000X0*%
%ADD88RoundRect,0.150000X-0.587500X-0.150000X0.587500X-0.150000X0.587500X0.150000X-0.587500X0.150000X0*%
%ADD89RotRect,1.400000X1.200000X315.000000*%
%ADD90R,0.650000X0.280000*%
%ADD91R,0.280000X0.650000*%
%ADD92RotRect,1.000000X1.800000X135.000000*%
%ADD93RoundRect,0.150000X0.150000X-0.825000X0.150000X0.825000X-0.150000X0.825000X-0.150000X-0.825000X0*%
%ADD94RoundRect,0.250000X0.312500X0.625000X-0.312500X0.625000X-0.312500X-0.625000X0.312500X-0.625000X0*%
%ADD95R,0.800000X1.000000*%
%ADD96RoundRect,0.062500X0.062500X-0.350000X0.062500X0.350000X-0.062500X0.350000X-0.062500X-0.350000X0*%
%ADD97RoundRect,0.062500X0.350000X-0.062500X0.350000X0.062500X-0.350000X0.062500X-0.350000X-0.062500X0*%
%ADD98R,2.500000X2.500000*%
%ADD99RoundRect,0.075000X0.075000X-0.350000X0.075000X0.350000X-0.075000X0.350000X-0.075000X-0.350000X0*%
%ADD100RoundRect,0.075000X0.350000X0.075000X-0.350000X0.075000X-0.350000X-0.075000X0.350000X-0.075000X0*%
%ADD101RoundRect,0.218750X-0.218750X-0.256250X0.218750X-0.256250X0.218750X0.256250X-0.218750X0.256250X0*%
G04 APERTURE END LIST*
G36*
X78950000Y-151550000D02*
G01*
X80450000Y-151550000D01*
X80450000Y-151850000D01*
X78950000Y-151850000D01*
X78950000Y-151550000D01*
G37*
D10*
X97700000Y-148472200D03*
D11*
X97700000Y-151012200D03*
X97700000Y-153552200D03*
D10*
X93966200Y-148472200D03*
D11*
X93966200Y-151012200D03*
X93966200Y-153552200D03*
D10*
X90232400Y-148472200D03*
D11*
X90232400Y-151012200D03*
X90232400Y-153552200D03*
D10*
X86498600Y-148472200D03*
D11*
X86498600Y-151012200D03*
X86498600Y-153552200D03*
D10*
X82800000Y-148475000D03*
D11*
X82800000Y-151015000D03*
X82800000Y-153555000D03*
D12*
X131025000Y-137075000D03*
D13*
X131025000Y-139575000D03*
X131025000Y-142075000D03*
X131025000Y-144575000D03*
D12*
X131017500Y-122725000D03*
D13*
X131017500Y-125225000D03*
X131017500Y-127725000D03*
X131017500Y-130225000D03*
D12*
X131017500Y-109475000D03*
D13*
X131017500Y-111975000D03*
X131017500Y-114475000D03*
X131017500Y-116975000D03*
D14*
X125958114Y-46359800D03*
D15*
X123458114Y-46359800D03*
X120958114Y-46359800D03*
X118458114Y-46359800D03*
D16*
X136275000Y-70120000D03*
D17*
X132595000Y-68690000D03*
X132595000Y-62910000D03*
D16*
X136275000Y-61480000D03*
D18*
X131530000Y-69150000D03*
X131530000Y-68350000D03*
X131530000Y-67050000D03*
X131530000Y-66050000D03*
X131530000Y-65550000D03*
X131530000Y-64550000D03*
X131530000Y-63250000D03*
X131530000Y-62450000D03*
X131530000Y-62750000D03*
X131530000Y-63550000D03*
X131530000Y-64050000D03*
X131530000Y-65050000D03*
X131530000Y-66550000D03*
X131530000Y-67550000D03*
X131530000Y-68050000D03*
X131530000Y-68850000D03*
D19*
X132095000Y-70120000D03*
X132095000Y-61480000D03*
D20*
X122862500Y-102050000D03*
X121212500Y-102050000D03*
D21*
X88912259Y-99682969D03*
X91811396Y-102582106D03*
X87780888Y-100814340D03*
X90680025Y-103713477D03*
D22*
X128675000Y-114475000D03*
X128675000Y-116125000D03*
D23*
X128675000Y-129900000D03*
X128675000Y-128350000D03*
X128075000Y-144450000D03*
X128075000Y-142900000D03*
X122025000Y-72300000D03*
X122025000Y-70750000D03*
D22*
X118850000Y-72375000D03*
X118850000Y-70725000D03*
D24*
X120475000Y-72350000D03*
X120475000Y-70700000D03*
D25*
X114650000Y-107475000D03*
X113000000Y-107475000D03*
X110450000Y-115100000D03*
X108800000Y-115100000D03*
D20*
X108450000Y-107475000D03*
X110100000Y-107475000D03*
D24*
X119075000Y-82200000D03*
X119075000Y-80550000D03*
D22*
X119075000Y-77275000D03*
X119075000Y-78925000D03*
D26*
X133575000Y-83675000D03*
D27*
X133575000Y-84975000D03*
D28*
X133575000Y-86275000D03*
D29*
X126015000Y-70875000D03*
X125055000Y-70875000D03*
D30*
X130780914Y-41690600D03*
X131483858Y-39993544D03*
X131483858Y-43387656D03*
X133180914Y-39290600D03*
D31*
X133180914Y-41690600D03*
D30*
X133180914Y-44090600D03*
X134877970Y-39993544D03*
X134877970Y-43387656D03*
X135580914Y-41690600D03*
D20*
X80775000Y-75525000D03*
X82425000Y-75525000D03*
D32*
X86996800Y-119411600D03*
X84046800Y-119411600D03*
D33*
X75125000Y-78625000D03*
X73575000Y-78625000D03*
D34*
X73775000Y-71610000D03*
X77675000Y-71610000D03*
X73775000Y-72880000D03*
X77675000Y-72880000D03*
X73775000Y-74150000D03*
X77675000Y-74150000D03*
X73775000Y-75420000D03*
X77675000Y-75420000D03*
X73775000Y-76690000D03*
X77675000Y-76690000D03*
D35*
X85565314Y-39456200D03*
D36*
X81315314Y-39456200D03*
X89815314Y-39456200D03*
D37*
X109110000Y-50700000D03*
X108090000Y-50700000D03*
D32*
X121375000Y-119925000D03*
X118425000Y-119925000D03*
D10*
X115515000Y-110125000D03*
D11*
X112975000Y-110125000D03*
X110435000Y-110125000D03*
X107895000Y-110125000D03*
D25*
X114150000Y-145650000D03*
X112500000Y-145650000D03*
D38*
X120675000Y-127125000D03*
X114625000Y-127125000D03*
D20*
X108480000Y-136225000D03*
X110130000Y-136225000D03*
D39*
X110092500Y-134675000D03*
X108517500Y-134675000D03*
D37*
X101840000Y-59975000D03*
X102860000Y-59975000D03*
D25*
X78175000Y-78625000D03*
X76525000Y-78625000D03*
D40*
X85887500Y-112800000D03*
X88812500Y-112800000D03*
D41*
X86050000Y-54930000D03*
X86050000Y-53970000D03*
D42*
X112750000Y-61450000D03*
X112750000Y-59250000D03*
X111050000Y-59250000D03*
X111050000Y-61450000D03*
D25*
X89875000Y-74046667D03*
X88225000Y-74046667D03*
D43*
X105570000Y-47700000D03*
X106530000Y-47700000D03*
X88020000Y-56800000D03*
X88980000Y-56800000D03*
D44*
X89513000Y-60885000D03*
X89513000Y-59865000D03*
D20*
X77058600Y-137323600D03*
X78708600Y-137323600D03*
D45*
X92894150Y-103725215D03*
X91798134Y-104821231D03*
D46*
X82950000Y-62370000D03*
X82950000Y-63330000D03*
D20*
X112427500Y-142775000D03*
X114077500Y-142775000D03*
D38*
X86196800Y-126661600D03*
X80146800Y-126661600D03*
D25*
X96001300Y-132828686D03*
X94351300Y-132828686D03*
D29*
X111580000Y-57750000D03*
X110620000Y-57750000D03*
D25*
X78708600Y-132751600D03*
X77058600Y-132751600D03*
D47*
X126195800Y-75875000D03*
X127745800Y-75875000D03*
D48*
X96576992Y-103801992D03*
X97673008Y-104898008D03*
D33*
X95951300Y-138988772D03*
X94401300Y-138988772D03*
D20*
X80775000Y-77075000D03*
X82425000Y-77075000D03*
D43*
X105570000Y-46700000D03*
X106530000Y-46700000D03*
D49*
X79700000Y-151050000D03*
D50*
X79700000Y-152350000D03*
D51*
X102552500Y-132278686D03*
X98552500Y-132278686D03*
D52*
X83225000Y-85063900D03*
X83225000Y-87988900D03*
D53*
X127744400Y-80599400D03*
X127744400Y-82149400D03*
D54*
X105950000Y-151705600D03*
D55*
X109450000Y-151705600D03*
D37*
X82960000Y-60025000D03*
X81940000Y-60025000D03*
X109110000Y-51700000D03*
X108090000Y-51700000D03*
D56*
X79296800Y-121811600D03*
X82246800Y-121811600D03*
D57*
X89455000Y-81475000D03*
X88185000Y-81475000D03*
X86915000Y-81475000D03*
X85645000Y-81475000D03*
X85645000Y-88675000D03*
X86915000Y-88675000D03*
X88185000Y-88675000D03*
X89455000Y-88675000D03*
D29*
X102830000Y-61275000D03*
X101870000Y-61275000D03*
D43*
X107920000Y-55850000D03*
X108880000Y-55850000D03*
D33*
X78658600Y-138847600D03*
X77108600Y-138847600D03*
D53*
X127724400Y-83649400D03*
X127724400Y-85199400D03*
D58*
X130088600Y-86924400D03*
X130088600Y-86274400D03*
X130088600Y-85624400D03*
X130088600Y-84974400D03*
X131688600Y-84974400D03*
X131688600Y-85624400D03*
X131688600Y-86274400D03*
X131688600Y-86924400D03*
D25*
X106875000Y-145700000D03*
X105225000Y-145700000D03*
D54*
X120425000Y-151700000D03*
D55*
X123925000Y-151700000D03*
D43*
X112220000Y-63050000D03*
X113180000Y-63050000D03*
D25*
X106825000Y-147575000D03*
X105175000Y-147575000D03*
D20*
X108480000Y-131575000D03*
X110130000Y-131575000D03*
D33*
X75375000Y-70000000D03*
X73825000Y-70000000D03*
D20*
X108475000Y-137750000D03*
X110125000Y-137750000D03*
D25*
X103900000Y-142475000D03*
X102250000Y-142475000D03*
D24*
X129225000Y-68700000D03*
X129225000Y-67050000D03*
D33*
X113130000Y-136225000D03*
X111580000Y-136225000D03*
D43*
X85570000Y-43900000D03*
X86530000Y-43900000D03*
D47*
X118475000Y-117525000D03*
X120025000Y-117525000D03*
D43*
X110320000Y-63050000D03*
X111280000Y-63050000D03*
D47*
X120800000Y-87475000D03*
X122350000Y-87475000D03*
D25*
X121475000Y-145650000D03*
X119825000Y-145650000D03*
D32*
X104427500Y-122075000D03*
X101477500Y-122075000D03*
D47*
X122180000Y-139625000D03*
X123730000Y-139625000D03*
D30*
X70633714Y-41690600D03*
X71336658Y-39993544D03*
X71336658Y-43387656D03*
X73033714Y-39290600D03*
D31*
X73033714Y-41690600D03*
D30*
X73033714Y-44090600D03*
X74730770Y-39993544D03*
X74730770Y-43387656D03*
X75433714Y-41690600D03*
D59*
X88043600Y-137200400D03*
X88043600Y-134500400D03*
D24*
X104175000Y-66750000D03*
X104175000Y-65100000D03*
D60*
X96531731Y-99708812D03*
X97210553Y-100387634D03*
D35*
X105565314Y-39456200D03*
D36*
X101315314Y-39456200D03*
X109815314Y-39456200D03*
D25*
X89875000Y-72525000D03*
X88225000Y-72525000D03*
X75731400Y-132751600D03*
X74081400Y-132751600D03*
D61*
X125200000Y-95400000D03*
X125200000Y-96500000D03*
X125200000Y-97600000D03*
X125200000Y-98700000D03*
X125200000Y-99800000D03*
X125200000Y-100900000D03*
X125200000Y-102000000D03*
X125200000Y-103100000D03*
X125200000Y-104200000D03*
D62*
X125700000Y-105400000D03*
D63*
X125700000Y-90800000D03*
D64*
X135300000Y-105400000D03*
X135300000Y-89900000D03*
D45*
X101948008Y-107026992D03*
X100851992Y-108123008D03*
D44*
X109400000Y-60860000D03*
X109400000Y-59840000D03*
D65*
X87050000Y-56785000D03*
X87050000Y-55815000D03*
D54*
X113190714Y-151705600D03*
D55*
X116690714Y-151705600D03*
D20*
X95277500Y-140775000D03*
X96927500Y-140775000D03*
D25*
X92977500Y-129775000D03*
X91327500Y-129775000D03*
D20*
X131100000Y-58125000D03*
X132750000Y-58125000D03*
D45*
X107773008Y-100376992D03*
X106676992Y-101473008D03*
D66*
X120130000Y-139005000D03*
X120130000Y-137735000D03*
X120130000Y-136465000D03*
X120130000Y-135195000D03*
X115170000Y-135195000D03*
X115170000Y-136465000D03*
X115170000Y-137735000D03*
X115170000Y-139005000D03*
D67*
X117650000Y-137100000D03*
D32*
X86996800Y-121811600D03*
X84046800Y-121811600D03*
D25*
X110130000Y-130025000D03*
X108480000Y-130025000D03*
D29*
X91693000Y-57675000D03*
X90733000Y-57675000D03*
D45*
X90198008Y-94176992D03*
X89101992Y-95273008D03*
D33*
X105175000Y-76225000D03*
X103625000Y-76225000D03*
D60*
X92960589Y-96285589D03*
X93639411Y-96964411D03*
D68*
X93491637Y-82591637D03*
X94658363Y-83758363D03*
D59*
X105452500Y-137528686D03*
X105452500Y-134828686D03*
D65*
X106950000Y-56835000D03*
X106950000Y-55865000D03*
D43*
X85520000Y-47700000D03*
X86480000Y-47700000D03*
D25*
X110130000Y-133125000D03*
X108480000Y-133125000D03*
D47*
X120800000Y-84450000D03*
X122350000Y-84450000D03*
D43*
X92320000Y-62950000D03*
X93280000Y-62950000D03*
D69*
X92314411Y-95639411D03*
X91635589Y-94960589D03*
D70*
X125285000Y-72675000D03*
X126485000Y-72675000D03*
X127685000Y-72675000D03*
D45*
X103023008Y-108101992D03*
X101926992Y-109198008D03*
D32*
X121375000Y-122325000D03*
X118425000Y-122325000D03*
D47*
X101527500Y-117275000D03*
X103077500Y-117275000D03*
D29*
X82930000Y-61225000D03*
X81970000Y-61225000D03*
D71*
X83375000Y-112400000D03*
X83375000Y-108400000D03*
D43*
X107920000Y-56850000D03*
X108880000Y-56850000D03*
D20*
X88250000Y-79600000D03*
X89900000Y-79600000D03*
D51*
X85171800Y-132061600D03*
X81171800Y-132061600D03*
D47*
X84046800Y-117011600D03*
X85596800Y-117011600D03*
D37*
X89060000Y-50650000D03*
X88040000Y-50650000D03*
D47*
X85300000Y-79600000D03*
X86850000Y-79600000D03*
D30*
X130730114Y-151926600D03*
X131433058Y-150229544D03*
X131433058Y-153623656D03*
X133130114Y-149526600D03*
D31*
X133130114Y-151926600D03*
D30*
X133130114Y-154326600D03*
X134827170Y-150229544D03*
X134827170Y-153623656D03*
X135530114Y-151926600D03*
D24*
X85275000Y-66800000D03*
X85275000Y-65150000D03*
D43*
X104070000Y-57750000D03*
X105030000Y-57750000D03*
D25*
X113180000Y-137775000D03*
X111530000Y-137775000D03*
D72*
X94852500Y-128253686D03*
X94852500Y-131203686D03*
D29*
X102680000Y-51200000D03*
X101720000Y-51200000D03*
D56*
X79296800Y-119411600D03*
X82246800Y-119411600D03*
D72*
X77521800Y-128186600D03*
X77521800Y-131136600D03*
D73*
X87035000Y-57750000D03*
X86065000Y-57750000D03*
D74*
X108090000Y-49650000D03*
X109110000Y-49650000D03*
D75*
X95898008Y-97123008D03*
X94801992Y-96026992D03*
D23*
X127732800Y-78931800D03*
X127732800Y-77381800D03*
D56*
X96777500Y-117275000D03*
X99727500Y-117275000D03*
D43*
X88020000Y-55800000D03*
X88980000Y-55800000D03*
D65*
X86050000Y-56785000D03*
X86050000Y-55815000D03*
D76*
X72575000Y-112400000D03*
X72575000Y-98900000D03*
D77*
X78575000Y-109250000D03*
D78*
X78575000Y-102050000D03*
D56*
X79296800Y-117011600D03*
X82246800Y-117011600D03*
D25*
X92958700Y-139000000D03*
X91308700Y-139000000D03*
D33*
X131699400Y-83575000D03*
X130149400Y-83575000D03*
D76*
X72525000Y-95650000D03*
X72525000Y-82150000D03*
D77*
X78525000Y-92500000D03*
D78*
X78525000Y-85300000D03*
D25*
X89875000Y-77090000D03*
X88225000Y-77090000D03*
D20*
X121203700Y-100519800D03*
X122853700Y-100519800D03*
D79*
X117677500Y-142775000D03*
X117677500Y-140875000D03*
X115802500Y-141825000D03*
D25*
X114150000Y-147500000D03*
X112500000Y-147500000D03*
D79*
X100527500Y-142450000D03*
X100527500Y-140550000D03*
X98652500Y-141500000D03*
D20*
X94351300Y-134378686D03*
X96001300Y-134378686D03*
D29*
X86030000Y-53050000D03*
X85070000Y-53050000D03*
D73*
X106935000Y-57750000D03*
X105965000Y-57750000D03*
D80*
X94730315Y-90434404D03*
X95083868Y-90787957D03*
X95437422Y-91141511D03*
X95790975Y-91495064D03*
X96144528Y-91848617D03*
X96498082Y-92202171D03*
X96851635Y-92555724D03*
X97205189Y-92909278D03*
X97558742Y-93262831D03*
X97912295Y-93616384D03*
X98265849Y-93969938D03*
X98619402Y-94323491D03*
X98972955Y-94677045D03*
X99326509Y-95030598D03*
X99680062Y-95384151D03*
X100033616Y-95737705D03*
X100387169Y-96091258D03*
X100740722Y-96444811D03*
X101094276Y-96798365D03*
X101447829Y-97151918D03*
X101801383Y-97505472D03*
X102154936Y-97859025D03*
X102508489Y-98212578D03*
X102862043Y-98566132D03*
X103215596Y-98919685D03*
D81*
X105584404Y-98919685D03*
X105937957Y-98566132D03*
X106291511Y-98212578D03*
X106645064Y-97859025D03*
X106998617Y-97505472D03*
X107352171Y-97151918D03*
X107705724Y-96798365D03*
X108059278Y-96444811D03*
X108412831Y-96091258D03*
X108766384Y-95737705D03*
X109119938Y-95384151D03*
X109473491Y-95030598D03*
X109827045Y-94677045D03*
X110180598Y-94323491D03*
X110534151Y-93969938D03*
X110887705Y-93616384D03*
X111241258Y-93262831D03*
X111594811Y-92909278D03*
X111948365Y-92555724D03*
X112301918Y-92202171D03*
X112655472Y-91848617D03*
X113009025Y-91495064D03*
X113362578Y-91141511D03*
X113716132Y-90787957D03*
X114069685Y-90434404D03*
D80*
X114069685Y-88065596D03*
X113716132Y-87712043D03*
X113362578Y-87358489D03*
X113009025Y-87004936D03*
X112655472Y-86651383D03*
X112301918Y-86297829D03*
X111948365Y-85944276D03*
X111594811Y-85590722D03*
X111241258Y-85237169D03*
X110887705Y-84883616D03*
X110534151Y-84530062D03*
X110180598Y-84176509D03*
X109827045Y-83822955D03*
X109473491Y-83469402D03*
X109119938Y-83115849D03*
X108766384Y-82762295D03*
X108412831Y-82408742D03*
X108059278Y-82055189D03*
X107705724Y-81701635D03*
X107352171Y-81348082D03*
X106998617Y-80994528D03*
X106645064Y-80640975D03*
X106291511Y-80287422D03*
X105937957Y-79933868D03*
X105584404Y-79580315D03*
D81*
X103215596Y-79580315D03*
X102862043Y-79933868D03*
X102508489Y-80287422D03*
X102154936Y-80640975D03*
X101801383Y-80994528D03*
X101447829Y-81348082D03*
X101094276Y-81701635D03*
X100740722Y-82055189D03*
X100387169Y-82408742D03*
X100033616Y-82762295D03*
X99680062Y-83115849D03*
X99326509Y-83469402D03*
X98972955Y-83822955D03*
X98619402Y-84176509D03*
X98265849Y-84530062D03*
X97912295Y-84883616D03*
X97558742Y-85237169D03*
X97205189Y-85590722D03*
X96851635Y-85944276D03*
X96498082Y-86297829D03*
X96144528Y-86651383D03*
X95790975Y-87004936D03*
X95437422Y-87358489D03*
X95083868Y-87712043D03*
X94730315Y-88065596D03*
D41*
X106000000Y-54980000D03*
X106000000Y-54020000D03*
D29*
X102680000Y-52200000D03*
X101720000Y-52200000D03*
D65*
X105600000Y-45785000D03*
X105600000Y-44815000D03*
D53*
X91550000Y-88475000D03*
X91550000Y-90025000D03*
D20*
X112400000Y-141075000D03*
X114050000Y-141075000D03*
D66*
X103032500Y-138716286D03*
X103032500Y-137446286D03*
X103032500Y-136176286D03*
X103032500Y-134906286D03*
X98072500Y-134906286D03*
X98072500Y-136176286D03*
X98072500Y-137446286D03*
X98072500Y-138716286D03*
D67*
X100552500Y-136811286D03*
D20*
X121203700Y-95947800D03*
X122853700Y-95947800D03*
D82*
X104325565Y-109599435D03*
X101974435Y-111950565D03*
D20*
X121203700Y-97471800D03*
X122853700Y-97471800D03*
D46*
X102850000Y-62370000D03*
X102850000Y-63330000D03*
D43*
X126955000Y-70875000D03*
X127915000Y-70875000D03*
D29*
X106030000Y-53100000D03*
X105070000Y-53100000D03*
D47*
X121241500Y-98995800D03*
X122791500Y-98995800D03*
D48*
X97626992Y-102751992D03*
X98723008Y-103848008D03*
D23*
X117450000Y-90000000D03*
X117450000Y-88450000D03*
D33*
X95951300Y-135929572D03*
X94401300Y-135929572D03*
D83*
X122455000Y-137827500D03*
X122455000Y-135122500D03*
D20*
X95277500Y-142475000D03*
X96927500Y-142475000D03*
D84*
X119627500Y-132575000D03*
X115627500Y-132575000D03*
D29*
X82630000Y-52200000D03*
X81670000Y-52200000D03*
D85*
X84500000Y-51845000D03*
X85000000Y-51845000D03*
X85500000Y-51845000D03*
X86000000Y-51845000D03*
D86*
X86695000Y-51150000D03*
X86695000Y-50650000D03*
X86695000Y-50150000D03*
X86695000Y-49650000D03*
D85*
X86000000Y-48955000D03*
X85500000Y-48955000D03*
X85000000Y-48955000D03*
X84500000Y-48955000D03*
D86*
X83805000Y-49650000D03*
X83805000Y-50150000D03*
X83805000Y-50650000D03*
X83805000Y-51150000D03*
D87*
X85250000Y-50400000D03*
D43*
X84170000Y-57750000D03*
X85130000Y-57750000D03*
D32*
X104427500Y-119675000D03*
X101477500Y-119675000D03*
D33*
X113130000Y-139275000D03*
X111580000Y-139275000D03*
D20*
X91308700Y-135912772D03*
X92958700Y-135912772D03*
D69*
X95710553Y-98887634D03*
X95031731Y-98208812D03*
D88*
X91665000Y-140550000D03*
X91665000Y-142450000D03*
X93540000Y-141500000D03*
D45*
X108973008Y-101626992D03*
X107876992Y-102723008D03*
D65*
X106000000Y-56835000D03*
X106000000Y-55865000D03*
D56*
X96777500Y-119675000D03*
X99727500Y-119675000D03*
D20*
X94351300Y-137459172D03*
X96001300Y-137459172D03*
D56*
X113725000Y-122325000D03*
X116675000Y-122325000D03*
D20*
X77058600Y-134275600D03*
X78708600Y-134275600D03*
D89*
X93167284Y-100696446D03*
X94722919Y-102252081D03*
X95925000Y-101050000D03*
X94369365Y-99494365D03*
D90*
X126319400Y-86274400D03*
X126319400Y-85774400D03*
X126319400Y-85274400D03*
X126319400Y-84774400D03*
D91*
X125699400Y-84154400D03*
X125199400Y-84154400D03*
X124699400Y-84154400D03*
X124199400Y-84154400D03*
D90*
X123579400Y-84774400D03*
X123579400Y-85274400D03*
X123579400Y-85774400D03*
X123579400Y-86274400D03*
D91*
X124199400Y-86894400D03*
X124699400Y-86894400D03*
X125199400Y-86894400D03*
X125699400Y-86894400D03*
D43*
X85520000Y-46700000D03*
X86480000Y-46700000D03*
D33*
X78658600Y-135799600D03*
X77108600Y-135799600D03*
D20*
X102250000Y-140825000D03*
X103900000Y-140825000D03*
D85*
X104550000Y-51890000D03*
X105050000Y-51890000D03*
X105550000Y-51890000D03*
X106050000Y-51890000D03*
D86*
X106745000Y-51195000D03*
X106745000Y-50695000D03*
X106745000Y-50195000D03*
X106745000Y-49695000D03*
D85*
X106050000Y-49000000D03*
X105550000Y-49000000D03*
X105050000Y-49000000D03*
X104550000Y-49000000D03*
D86*
X103855000Y-49695000D03*
X103855000Y-50195000D03*
X103855000Y-50695000D03*
X103855000Y-51195000D03*
D87*
X105300000Y-50445000D03*
D75*
X100873008Y-110273008D03*
X99776992Y-109176992D03*
D92*
X90591117Y-96266117D03*
X92358883Y-98033883D03*
D42*
X92863000Y-61425000D03*
X92863000Y-59225000D03*
X91163000Y-59225000D03*
X91163000Y-61425000D03*
D33*
X122350000Y-85975000D03*
X120800000Y-85975000D03*
D39*
X75673900Y-134275600D03*
X74098900Y-134275600D03*
D47*
X87675000Y-139000000D03*
X89225000Y-139000000D03*
D93*
X118215000Y-68425000D03*
X119485000Y-68425000D03*
X120755000Y-68425000D03*
X122025000Y-68425000D03*
X123295000Y-68425000D03*
X124565000Y-68425000D03*
X125835000Y-68425000D03*
X127105000Y-68425000D03*
X127105000Y-63475000D03*
X125835000Y-63475000D03*
X124565000Y-63475000D03*
X123295000Y-63475000D03*
X122025000Y-63475000D03*
X120755000Y-63475000D03*
X119485000Y-63475000D03*
X118215000Y-63475000D03*
D94*
X88812500Y-110500000D03*
X85887500Y-110500000D03*
D95*
X86425000Y-72800000D03*
X85025000Y-72800000D03*
X85025000Y-75300000D03*
X86425000Y-75300000D03*
D88*
X108612500Y-145675000D03*
X108612500Y-147575000D03*
X110487500Y-146625000D03*
D96*
X85075000Y-63087500D03*
X85575000Y-63087500D03*
X86075000Y-63087500D03*
X86575000Y-63087500D03*
X87075000Y-63087500D03*
D97*
X88012500Y-62150000D03*
X88012500Y-61650000D03*
X88012500Y-61150000D03*
X88012500Y-60650000D03*
X88012500Y-60150000D03*
D96*
X87075000Y-59212500D03*
X86575000Y-59212500D03*
X86075000Y-59212500D03*
X85575000Y-59212500D03*
X85075000Y-59212500D03*
D97*
X84137500Y-60150000D03*
X84137500Y-60650000D03*
X84137500Y-61150000D03*
X84137500Y-61650000D03*
X84137500Y-62150000D03*
D98*
X86075000Y-61150000D03*
D38*
X103577500Y-126925000D03*
X97527500Y-126925000D03*
D30*
X70633714Y-151977400D03*
X71336658Y-150280344D03*
X71336658Y-153674456D03*
X73033714Y-149577400D03*
D31*
X73033714Y-151977400D03*
D30*
X73033714Y-154377400D03*
X74730770Y-150280344D03*
X74730770Y-153674456D03*
X75433714Y-151977400D03*
D45*
X99798008Y-104876992D03*
X98701992Y-105973008D03*
D39*
X92940000Y-134378686D03*
X91365000Y-134378686D03*
D20*
X74081400Y-135799600D03*
X75731400Y-135799600D03*
D37*
X89060000Y-51650000D03*
X88040000Y-51650000D03*
D74*
X88040000Y-49650000D03*
X89060000Y-49650000D03*
D33*
X105175000Y-77900000D03*
X103625000Y-77900000D03*
D53*
X93075000Y-88475000D03*
X93075000Y-90025000D03*
D22*
X129150000Y-62380400D03*
X129150000Y-64030400D03*
D25*
X110130000Y-139300000D03*
X108480000Y-139300000D03*
D88*
X123237500Y-145625000D03*
X123237500Y-147525000D03*
X125112500Y-146575000D03*
D99*
X122774400Y-81224400D03*
X123274400Y-81224400D03*
X123774400Y-81224400D03*
X124274400Y-81224400D03*
X124774400Y-81224400D03*
X125274400Y-81224400D03*
D100*
X125974400Y-80524400D03*
X125974400Y-80024400D03*
X125974400Y-79524400D03*
X125974400Y-79024400D03*
X125974400Y-78524400D03*
X125974400Y-78024400D03*
D99*
X125274400Y-77324400D03*
X124774400Y-77324400D03*
X124274400Y-77324400D03*
X123774400Y-77324400D03*
X123274400Y-77324400D03*
X122774400Y-77324400D03*
D100*
X122074400Y-78024400D03*
X122074400Y-78524400D03*
X122074400Y-79024400D03*
X122074400Y-79524400D03*
X122074400Y-80024400D03*
X122074400Y-80524400D03*
D88*
X115912500Y-145625000D03*
X115912500Y-147525000D03*
X117787500Y-146575000D03*
D29*
X82630000Y-51200000D03*
X81670000Y-51200000D03*
D43*
X90470000Y-62950000D03*
X91430000Y-62950000D03*
D20*
X91325000Y-137450000D03*
X92975000Y-137450000D03*
D33*
X131649400Y-88299400D03*
X130099400Y-88299400D03*
D43*
X105570000Y-43900000D03*
X106530000Y-43900000D03*
D72*
X112005000Y-128550000D03*
X112005000Y-131500000D03*
D47*
X105120100Y-139304972D03*
X106670100Y-139304972D03*
D45*
X100873008Y-105951992D03*
X99776992Y-107048008D03*
D23*
X115750000Y-90025000D03*
X115750000Y-88475000D03*
D10*
X120625000Y-112950000D03*
D11*
X118085000Y-112950000D03*
X115545000Y-112950000D03*
X113005000Y-112950000D03*
X110465000Y-112950000D03*
X107925000Y-112950000D03*
D66*
X85646800Y-138466600D03*
X85646800Y-137196600D03*
X85646800Y-135926600D03*
X85646800Y-134656600D03*
X80686800Y-134656600D03*
X80686800Y-135926600D03*
X80686800Y-137196600D03*
X80686800Y-138466600D03*
D67*
X83166800Y-136561600D03*
D25*
X89875000Y-75568333D03*
X88225000Y-75568333D03*
D88*
X108802500Y-140850000D03*
X108802500Y-142750000D03*
X110677500Y-141800000D03*
D23*
X116635000Y-64550000D03*
X116635000Y-63000000D03*
X120575000Y-78875000D03*
X120575000Y-77325000D03*
D101*
X85012500Y-77050000D03*
X86587500Y-77050000D03*
D20*
X91327500Y-131325000D03*
X92977500Y-131325000D03*
D25*
X121450000Y-147550000D03*
X119800000Y-147550000D03*
D20*
X111530000Y-134675000D03*
X113180000Y-134675000D03*
X119427500Y-141075000D03*
X121077500Y-141075000D03*
D65*
X85550000Y-45785000D03*
X85550000Y-44815000D03*
D56*
X113725000Y-119925000D03*
X116675000Y-119925000D03*
D47*
X131150000Y-59675000D03*
X132700000Y-59675000D03*
D56*
X113725000Y-117525000D03*
X116675000Y-117525000D03*
D25*
X92977500Y-132828686D03*
X91327500Y-132828686D03*
X113180000Y-133125000D03*
X111530000Y-133125000D03*
D52*
X83225000Y-89737500D03*
X83225000Y-92662500D03*
D20*
X80775000Y-73975000D03*
X82425000Y-73975000D03*
D33*
X105175000Y-100575000D03*
X103625000Y-100575000D03*
D96*
X104975000Y-63062500D03*
X105475000Y-63062500D03*
X105975000Y-63062500D03*
X106475000Y-63062500D03*
X106975000Y-63062500D03*
D97*
X107912500Y-62125000D03*
X107912500Y-61625000D03*
X107912500Y-61125000D03*
X107912500Y-60625000D03*
X107912500Y-60125000D03*
D96*
X106975000Y-59187500D03*
X106475000Y-59187500D03*
X105975000Y-59187500D03*
X105475000Y-59187500D03*
X104975000Y-59187500D03*
D97*
X104037500Y-60125000D03*
X104037500Y-60625000D03*
X104037500Y-61125000D03*
X104037500Y-61625000D03*
X104037500Y-62125000D03*
D98*
X105975000Y-61125000D03*
D56*
X96777500Y-122075000D03*
X99727500Y-122075000D03*
D25*
X121077500Y-142775000D03*
X119427500Y-142775000D03*
G36*
X70735885Y-148544685D02*
G01*
X70781640Y-148597489D01*
X70792846Y-148649000D01*
X70792846Y-148775000D01*
X72909714Y-148775000D01*
X72976753Y-148794685D01*
X73022508Y-148847489D01*
X73033714Y-148899000D01*
X73033714Y-151853400D01*
X73014029Y-151920439D01*
X72961225Y-151966194D01*
X72909714Y-151977400D01*
X70792846Y-151977400D01*
X70792846Y-152103400D01*
X70773161Y-152170439D01*
X70720357Y-152216194D01*
X70668846Y-152227400D01*
X70562211Y-152227400D01*
X70538019Y-152225017D01*
X70478518Y-152213181D01*
X70433820Y-152194667D01*
X70393731Y-152167881D01*
X70359518Y-152133668D01*
X70332732Y-152093579D01*
X70314218Y-152048880D01*
X70302383Y-151989380D01*
X70300000Y-151965189D01*
X70300000Y-148787210D01*
X70302383Y-148763019D01*
X70314218Y-148703519D01*
X70332732Y-148658820D01*
X70359518Y-148618731D01*
X70393731Y-148584518D01*
X70433820Y-148557732D01*
X70478520Y-148539217D01*
X70538021Y-148527382D01*
X70562211Y-148525000D01*
X70668846Y-148525000D01*
X70735885Y-148544685D01*
G37*
G36*
X135661980Y-41449983D02*
G01*
X135721480Y-41461818D01*
X135766179Y-41480332D01*
X135806268Y-41507118D01*
X135840481Y-41541331D01*
X135867267Y-41581420D01*
X135885781Y-41626117D01*
X135897617Y-41685617D01*
X135900000Y-41709810D01*
X135900000Y-44887789D01*
X135897617Y-44911982D01*
X135885781Y-44971482D01*
X135867267Y-45016179D01*
X135840481Y-45056268D01*
X135806268Y-45090481D01*
X135766179Y-45117267D01*
X135721482Y-45135781D01*
X135661982Y-45147617D01*
X135637789Y-45150000D01*
X135424000Y-45150000D01*
X135356961Y-45130315D01*
X135311206Y-45077511D01*
X135300000Y-45026000D01*
X135300000Y-44900000D01*
X133290286Y-44900000D01*
X133223247Y-44880315D01*
X133177492Y-44827511D01*
X133166286Y-44776000D01*
X133166286Y-41821600D01*
X133185971Y-41754561D01*
X133238775Y-41708806D01*
X133290286Y-41697600D01*
X135300000Y-41697600D01*
X135300000Y-41571600D01*
X135319685Y-41504561D01*
X135372489Y-41458806D01*
X135424000Y-41447600D01*
X135637789Y-41447600D01*
X135661980Y-41449983D01*
G37*
G36*
X76236980Y-38952383D02*
G01*
X76296480Y-38964218D01*
X76341179Y-38982732D01*
X76381268Y-39009518D01*
X76415481Y-39043731D01*
X76442267Y-39083820D01*
X76460781Y-39128517D01*
X76472617Y-39188017D01*
X76475000Y-39212210D01*
X76475000Y-39442009D01*
X76455315Y-39509048D01*
X76402511Y-39554803D01*
X76351000Y-39566009D01*
X76225000Y-39566009D01*
X76225000Y-41559714D01*
X76205315Y-41626753D01*
X76152511Y-41672508D01*
X76101000Y-41683714D01*
X73146600Y-41683714D01*
X73079561Y-41664029D01*
X73033806Y-41611225D01*
X73022600Y-41559714D01*
X73022600Y-39566009D01*
X72896600Y-39566009D01*
X72829561Y-39546324D01*
X72783806Y-39493520D01*
X72772600Y-39442009D01*
X72772600Y-39212210D01*
X72774983Y-39188019D01*
X72786818Y-39128519D01*
X72805332Y-39083820D01*
X72832118Y-39043731D01*
X72866331Y-39009518D01*
X72906420Y-38982732D01*
X72951120Y-38964217D01*
X73010621Y-38952382D01*
X73034811Y-38950000D01*
X76212789Y-38950000D01*
X76236980Y-38952383D01*
G37*
G36*
X133178266Y-38577383D02*
G01*
X133237766Y-38589218D01*
X133282465Y-38607732D01*
X133322554Y-38634518D01*
X133356767Y-38668731D01*
X133383553Y-38708820D01*
X133402067Y-38753517D01*
X133413903Y-38813017D01*
X133416286Y-38837210D01*
X133416286Y-39442009D01*
X133396601Y-39509048D01*
X133343797Y-39554803D01*
X133292286Y-39566009D01*
X133166286Y-39566009D01*
X133166286Y-41626000D01*
X133146601Y-41693039D01*
X133093797Y-41738794D01*
X133042286Y-41750000D01*
X130099000Y-41750000D01*
X130031961Y-41730315D01*
X129986206Y-41677511D01*
X129975000Y-41626000D01*
X129975000Y-39566009D01*
X129849000Y-39566009D01*
X129781961Y-39546324D01*
X129736206Y-39493520D01*
X129725000Y-39442009D01*
X129725000Y-38837210D01*
X129727383Y-38813019D01*
X129739218Y-38753519D01*
X129757732Y-38708820D01*
X129784518Y-38668731D01*
X129818731Y-38634518D01*
X129858820Y-38607732D01*
X129903520Y-38589217D01*
X129963021Y-38577382D01*
X129987211Y-38575000D01*
X133154075Y-38575000D01*
X133178266Y-38577383D01*
G37*
G36*
X70735885Y-41453399D02*
G01*
X70781640Y-41506203D01*
X70792846Y-41557714D01*
X70792846Y-41683714D01*
X72898600Y-41683714D01*
X72965639Y-41703399D01*
X73011394Y-41756203D01*
X73022600Y-41807714D01*
X73022600Y-44776000D01*
X73002915Y-44843039D01*
X72950111Y-44888794D01*
X72898600Y-44900000D01*
X70792846Y-44900000D01*
X70792846Y-45026000D01*
X70773161Y-45093039D01*
X70720357Y-45138794D01*
X70668846Y-45150000D01*
X70162211Y-45150000D01*
X70138019Y-45147617D01*
X70078518Y-45135781D01*
X70033820Y-45117267D01*
X69993731Y-45090481D01*
X69959518Y-45056268D01*
X69932732Y-45016179D01*
X69914218Y-44971480D01*
X69902383Y-44911980D01*
X69900000Y-44887789D01*
X69900000Y-43902000D01*
X70898000Y-43902000D01*
X71626000Y-43902000D01*
X71626000Y-42681714D01*
X70898000Y-42681714D01*
X70898000Y-43902000D01*
X69900000Y-43902000D01*
X69900000Y-41695924D01*
X69902383Y-41671733D01*
X69914218Y-41612233D01*
X69932732Y-41567534D01*
X69959518Y-41527445D01*
X69993731Y-41493232D01*
X70033820Y-41466446D01*
X70078520Y-41447931D01*
X70138021Y-41436096D01*
X70162211Y-41433714D01*
X70668846Y-41433714D01*
X70735885Y-41453399D01*
G37*
G36*
X70999559Y-37297308D02*
G01*
X71037639Y-37355888D01*
X71042846Y-37391443D01*
X71042846Y-39442009D01*
X71023161Y-39509048D01*
X70970357Y-39554803D01*
X70918846Y-39566009D01*
X70792846Y-39566009D01*
X70792846Y-41683714D01*
X70918846Y-41683714D01*
X70985885Y-41703399D01*
X71031640Y-41756203D01*
X71042846Y-41807714D01*
X71042846Y-44776000D01*
X71023161Y-44843039D01*
X70970357Y-44888794D01*
X70918846Y-44900000D01*
X70792846Y-44900000D01*
X70792846Y-148775000D01*
X70918846Y-148775000D01*
X70985885Y-148794685D01*
X71031640Y-148847489D01*
X71042846Y-148899000D01*
X71042846Y-151853400D01*
X71023161Y-151920439D01*
X70970357Y-151966194D01*
X70918846Y-151977400D01*
X70792846Y-151977400D01*
X70792846Y-153888191D01*
X70918846Y-153888191D01*
X70985885Y-153907876D01*
X71031640Y-153960680D01*
X71042846Y-154012191D01*
X71042846Y-156120980D01*
X71023161Y-156188019D01*
X70970357Y-156233774D01*
X70901199Y-156243718D01*
X70866747Y-156233504D01*
X70804484Y-156204676D01*
X70794802Y-156199666D01*
X70425250Y-155987310D01*
X70416046Y-155981468D01*
X70066563Y-155737466D01*
X70057907Y-155730838D01*
X69731214Y-155457088D01*
X69723174Y-155449726D01*
X69421783Y-155148337D01*
X69414420Y-155140296D01*
X69140668Y-154813601D01*
X69134041Y-154804945D01*
X68890041Y-154455467D01*
X68884199Y-154446263D01*
X68671840Y-154076710D01*
X68666829Y-154067028D01*
X68487747Y-153680243D01*
X68483606Y-153670158D01*
X68339193Y-153269154D01*
X68335953Y-153258745D01*
X68227313Y-152846580D01*
X68225001Y-152835926D01*
X68152988Y-152415836D01*
X68151620Y-152405021D01*
X68116726Y-151979555D01*
X68116312Y-151969998D01*
X68115315Y-151756414D01*
X68115314Y-151755835D01*
X68115314Y-41756577D01*
X68115315Y-41755989D01*
X68116328Y-41542397D01*
X68116742Y-41532849D01*
X68151638Y-41107383D01*
X68153006Y-41096567D01*
X68225024Y-40676468D01*
X68227337Y-40665814D01*
X68335973Y-40253673D01*
X68339212Y-40243264D01*
X68483631Y-39842247D01*
X68487772Y-39832163D01*
X68666853Y-39445384D01*
X68671864Y-39435702D01*
X68884223Y-39066150D01*
X68890065Y-39056946D01*
X69134064Y-38707470D01*
X69140692Y-38698814D01*
X69414448Y-38372115D01*
X69421810Y-38364075D01*
X69723188Y-38062697D01*
X69731228Y-38055334D01*
X70057933Y-37781574D01*
X70066589Y-37774947D01*
X70416054Y-37530956D01*
X70425258Y-37525114D01*
X70794815Y-37312752D01*
X70804497Y-37307741D01*
X70866747Y-37278919D01*
X70935853Y-37268615D01*
X70999559Y-37297308D01*
G37*
G36*
X133115525Y-36756201D02*
G01*
X133329116Y-36757212D01*
X133338665Y-36757626D01*
X133764132Y-36792521D01*
X133774947Y-36793889D01*
X134195036Y-36865903D01*
X134205690Y-36868215D01*
X134617853Y-36976856D01*
X134628263Y-36980096D01*
X135029266Y-37124509D01*
X135039350Y-37128650D01*
X135426132Y-37307731D01*
X135435814Y-37312742D01*
X135805372Y-37525105D01*
X135814576Y-37530947D01*
X136164049Y-37774943D01*
X136172705Y-37781571D01*
X136499396Y-38055321D01*
X136507436Y-38062683D01*
X136808820Y-38364067D01*
X136816183Y-38372107D01*
X137089942Y-38698812D01*
X137096570Y-38707468D01*
X137340561Y-39056934D01*
X137346403Y-39066138D01*
X137558763Y-39435697D01*
X137563773Y-39445379D01*
X137653842Y-39639910D01*
X137664146Y-39709015D01*
X137635453Y-39772722D01*
X137576873Y-39810802D01*
X137541318Y-39816009D01*
X135424000Y-39816009D01*
X135356961Y-39796324D01*
X135311206Y-39743520D01*
X135300000Y-39692009D01*
X135300000Y-39566009D01*
X133166286Y-39566009D01*
X133166286Y-39692009D01*
X133146601Y-39759048D01*
X133093797Y-39804803D01*
X133042286Y-39816009D01*
X130099000Y-39816009D01*
X130031961Y-39796324D01*
X129986206Y-39743520D01*
X129975000Y-39692009D01*
X129975000Y-39566009D01*
X76225000Y-39566009D01*
X76225000Y-39692009D01*
X76205315Y-39759048D01*
X76152511Y-39804803D01*
X76101000Y-39816009D01*
X73146600Y-39816009D01*
X73079561Y-39796324D01*
X73033806Y-39743520D01*
X73022600Y-39692009D01*
X73022600Y-39566009D01*
X70792846Y-39566009D01*
X70792846Y-39692009D01*
X70773161Y-39759048D01*
X70720357Y-39804803D01*
X70668846Y-39816009D01*
X68689311Y-39816009D01*
X68622272Y-39796324D01*
X68576517Y-39743520D01*
X68566573Y-39674362D01*
X68576787Y-39639910D01*
X68666853Y-39445384D01*
X68671864Y-39435702D01*
X68884223Y-39066150D01*
X68890065Y-39056946D01*
X69134064Y-38707470D01*
X69140692Y-38698814D01*
X69414448Y-38372115D01*
X69421810Y-38364075D01*
X69723188Y-38062697D01*
X69731228Y-38055334D01*
X70057933Y-37781574D01*
X70066589Y-37774947D01*
X70416054Y-37530956D01*
X70425258Y-37525114D01*
X70794815Y-37312752D01*
X70804497Y-37307741D01*
X71191276Y-37128660D01*
X71201361Y-37124519D01*
X71602379Y-36980101D01*
X71612787Y-36976862D01*
X72024928Y-36868226D01*
X72035582Y-36865913D01*
X72455681Y-36793895D01*
X72466497Y-36792527D01*
X72891964Y-36757631D01*
X72901510Y-36757217D01*
X73115104Y-36756201D01*
X73115694Y-36756200D01*
X133114938Y-36756200D01*
X133115525Y-36756201D01*
G37*
G36*
X133070439Y-151935971D02*
G01*
X133116194Y-151988775D01*
X133127400Y-152040286D01*
X133127400Y-153888191D01*
X133253400Y-153888191D01*
X133320439Y-153907876D01*
X133366194Y-153960680D01*
X133377400Y-154012191D01*
X133377400Y-154387789D01*
X133375017Y-154411982D01*
X133363181Y-154471482D01*
X133344667Y-154516179D01*
X133317881Y-154556268D01*
X133283668Y-154590481D01*
X133243579Y-154617267D01*
X133198882Y-154635781D01*
X133139382Y-154647617D01*
X133115189Y-154650000D01*
X129937211Y-154650000D01*
X129913019Y-154647617D01*
X129853518Y-154635781D01*
X129808820Y-154617267D01*
X129768731Y-154590481D01*
X129734518Y-154556268D01*
X129707732Y-154516179D01*
X129689218Y-154471480D01*
X129677383Y-154411980D01*
X129675000Y-154387789D01*
X129675000Y-154012191D01*
X129694685Y-153945152D01*
X129747489Y-153899397D01*
X129799000Y-153888191D01*
X129925000Y-153888191D01*
X129925000Y-153652000D01*
X130923000Y-153652000D01*
X131626000Y-153652000D01*
X131626000Y-152914286D01*
X130923000Y-152914286D01*
X130923000Y-153652000D01*
X129925000Y-153652000D01*
X129925000Y-152040286D01*
X129944685Y-151973247D01*
X129997489Y-151927492D01*
X130049000Y-151916286D01*
X133003400Y-151916286D01*
X133070439Y-151935971D01*
G37*
G36*
X136011980Y-148452383D02*
G01*
X136071480Y-148464218D01*
X136116179Y-148482732D01*
X136156268Y-148509518D01*
X136190481Y-148543731D01*
X136217267Y-148583820D01*
X136235781Y-148628517D01*
X136247617Y-148688017D01*
X136250000Y-148712210D01*
X136250000Y-151904075D01*
X136247617Y-151928268D01*
X136235781Y-151987768D01*
X136217267Y-152032465D01*
X136190481Y-152072554D01*
X136156268Y-152106767D01*
X136116179Y-152133553D01*
X136071482Y-152152067D01*
X136011982Y-152163903D01*
X135987789Y-152166286D01*
X135424000Y-152166286D01*
X135356961Y-152146601D01*
X135311206Y-152093797D01*
X135300000Y-152042286D01*
X135300000Y-151916286D01*
X133251400Y-151916286D01*
X133184361Y-151896601D01*
X133138606Y-151843797D01*
X133127400Y-151792286D01*
X133127400Y-148824000D01*
X133147085Y-148756961D01*
X133199889Y-148711206D01*
X133251400Y-148700000D01*
X135300000Y-148700000D01*
X135300000Y-148574000D01*
X135319685Y-148506961D01*
X135372489Y-148461206D01*
X135424000Y-148450000D01*
X135987789Y-148450000D01*
X136011980Y-148452383D01*
G37*
G36*
X70735885Y-153657876D02*
G01*
X70781640Y-153710680D01*
X70792846Y-153762191D01*
X70792846Y-153888191D01*
X73033714Y-153888191D01*
X73033714Y-153762191D01*
X73053399Y-153695152D01*
X73106203Y-153649397D01*
X73157714Y-153638191D01*
X76126000Y-153638191D01*
X76193039Y-153657876D01*
X76238794Y-153710680D01*
X76250000Y-153762191D01*
X76250000Y-153888191D01*
X129925000Y-153888191D01*
X129925000Y-153762191D01*
X129944685Y-153695152D01*
X129997489Y-153649397D01*
X130049000Y-153638191D01*
X133003400Y-153638191D01*
X133070439Y-153657876D01*
X133116194Y-153710680D01*
X133127400Y-153762191D01*
X133127400Y-153888191D01*
X135300000Y-153888191D01*
X135300000Y-153762191D01*
X135319685Y-153695152D01*
X135372489Y-153649397D01*
X135424000Y-153638191D01*
X137568280Y-153638191D01*
X137635319Y-153657876D01*
X137681074Y-153710680D01*
X137691018Y-153779838D01*
X137680804Y-153814290D01*
X137563785Y-154067027D01*
X137558775Y-154076709D01*
X137346415Y-154446268D01*
X137340572Y-154455472D01*
X137096580Y-154804939D01*
X137089953Y-154813595D01*
X136816198Y-155140295D01*
X136808836Y-155148335D01*
X136507447Y-155449726D01*
X136499406Y-155457089D01*
X136172711Y-155730841D01*
X136164055Y-155737468D01*
X135814578Y-155981467D01*
X135805374Y-155987309D01*
X135435821Y-156199669D01*
X135426139Y-156204680D01*
X135039355Y-156383762D01*
X135029270Y-156387903D01*
X134628266Y-156532316D01*
X134617857Y-156535556D01*
X134205695Y-156644196D01*
X134195041Y-156646508D01*
X133774947Y-156718524D01*
X133764132Y-156719892D01*
X133338669Y-156754787D01*
X133329112Y-156755201D01*
X133115528Y-156756199D01*
X133114949Y-156756200D01*
X73115690Y-156756200D01*
X73115103Y-156756199D01*
X72901509Y-156755188D01*
X72891961Y-156754774D01*
X72466493Y-156719881D01*
X72455677Y-156718513D01*
X72035584Y-156646500D01*
X72024931Y-156644188D01*
X71612771Y-156535551D01*
X71602361Y-156532311D01*
X71201353Y-156387898D01*
X71191268Y-156383757D01*
X70804484Y-156204676D01*
X70794802Y-156199666D01*
X70425250Y-155987310D01*
X70416046Y-155981468D01*
X70066563Y-155737466D01*
X70057907Y-155730838D01*
X69731214Y-155457088D01*
X69723174Y-155449726D01*
X69421783Y-155148337D01*
X69414420Y-155140296D01*
X69140668Y-154813601D01*
X69134041Y-154804945D01*
X68890041Y-154455467D01*
X68884199Y-154446263D01*
X68671840Y-154076710D01*
X68666829Y-154067028D01*
X68549811Y-153814290D01*
X68539507Y-153745184D01*
X68568200Y-153681478D01*
X68626780Y-153643398D01*
X68662335Y-153638191D01*
X70668846Y-153638191D01*
X70735885Y-153657876D01*
G37*
G36*
X135226099Y-37215115D02*
G01*
X135426132Y-37307731D01*
X135435814Y-37312742D01*
X135805372Y-37525105D01*
X135814576Y-37530947D01*
X136164049Y-37774943D01*
X136172705Y-37781571D01*
X136499396Y-38055321D01*
X136507436Y-38062683D01*
X136808820Y-38364067D01*
X136816183Y-38372107D01*
X137089942Y-38698812D01*
X137096570Y-38707468D01*
X137340561Y-39056934D01*
X137346403Y-39066138D01*
X137558763Y-39435697D01*
X137563773Y-39445379D01*
X137742854Y-39832161D01*
X137746995Y-39842246D01*
X137891407Y-40243250D01*
X137894647Y-40253659D01*
X138003287Y-40665823D01*
X138005599Y-40676477D01*
X138077612Y-41096566D01*
X138078980Y-41107382D01*
X138113873Y-41532852D01*
X138114287Y-41542391D01*
X138115313Y-41755990D01*
X138115314Y-41756586D01*
X138115314Y-151755824D01*
X138115313Y-151756412D01*
X138114301Y-151970005D01*
X138113887Y-151979552D01*
X138078994Y-152405019D01*
X138077626Y-152415835D01*
X138005612Y-152835925D01*
X138003300Y-152846579D01*
X137894660Y-153258744D01*
X137891420Y-153269153D01*
X137747008Y-153670158D01*
X137742867Y-153680243D01*
X137563785Y-154067027D01*
X137558775Y-154076709D01*
X137346415Y-154446268D01*
X137340572Y-154455472D01*
X137096580Y-154804939D01*
X137089953Y-154813595D01*
X136816198Y-155140295D01*
X136808836Y-155148335D01*
X136507447Y-155449726D01*
X136499406Y-155457089D01*
X136172711Y-155730841D01*
X136164055Y-155737468D01*
X135814578Y-155981467D01*
X135805374Y-155987309D01*
X135435821Y-156199669D01*
X135426139Y-156204680D01*
X135226099Y-156297299D01*
X135156993Y-156307603D01*
X135093287Y-156278910D01*
X135055207Y-156220330D01*
X135050000Y-156184775D01*
X135050000Y-154012191D01*
X135069685Y-153945152D01*
X135122489Y-153899397D01*
X135174000Y-153888191D01*
X135300000Y-153888191D01*
X135300000Y-151916286D01*
X135174000Y-151916286D01*
X135106961Y-151896601D01*
X135061206Y-151843797D01*
X135050000Y-151792286D01*
X135050000Y-148824000D01*
X135069685Y-148756961D01*
X135122489Y-148711206D01*
X135174000Y-148700000D01*
X135300000Y-148700000D01*
X135300000Y-44900000D01*
X135174000Y-44900000D01*
X135106961Y-44880315D01*
X135061206Y-44827511D01*
X135050000Y-44776000D01*
X135050000Y-41821600D01*
X135069685Y-41754561D01*
X135122489Y-41708806D01*
X135174000Y-41697600D01*
X135300000Y-41697600D01*
X135300000Y-39566009D01*
X135174000Y-39566009D01*
X135106961Y-39546324D01*
X135061206Y-39493520D01*
X135050000Y-39442009D01*
X135050000Y-37327639D01*
X135069685Y-37260600D01*
X135122489Y-37214845D01*
X135191647Y-37204901D01*
X135226099Y-37215115D01*
G37*
G36*
X76193039Y-151997085D02*
G01*
X76238794Y-152049889D01*
X76250000Y-152101400D01*
X76250000Y-153888191D01*
X76376000Y-153888191D01*
X76443039Y-153907876D01*
X76488794Y-153960680D01*
X76500000Y-154012191D01*
X76500000Y-154837789D01*
X76497617Y-154861982D01*
X76485781Y-154921482D01*
X76467267Y-154966179D01*
X76440481Y-155006268D01*
X76406268Y-155040481D01*
X76366179Y-155067267D01*
X76321482Y-155085781D01*
X76261982Y-155097617D01*
X76237789Y-155100000D01*
X73045925Y-155100000D01*
X73021733Y-155097617D01*
X72962232Y-155085781D01*
X72917534Y-155067267D01*
X72877445Y-155040481D01*
X72843232Y-155006268D01*
X72816446Y-154966179D01*
X72797932Y-154921480D01*
X72786097Y-154861980D01*
X72783714Y-154837789D01*
X72783714Y-154012191D01*
X72803399Y-153945152D01*
X72856203Y-153899397D01*
X72907714Y-153888191D01*
X73033714Y-153888191D01*
X73033714Y-152101400D01*
X73053399Y-152034361D01*
X73106203Y-151988606D01*
X73157714Y-151977400D01*
X76126000Y-151977400D01*
X76193039Y-151997085D01*
G37*
M02*
