%TF.GenerationSoftware,KiCad,Pcbnew,10.0.2*%
%TF.CreationDate,2026-05-17T14:06:41+02:00*%
%TF.ProjectId,Amon_board,416d6f6e-5f62-46f6-9172-642e6b696361,2.2*%
%TF.SameCoordinates,Original*%
%TF.FileFunction,Soldermask,Bot*%
%TF.FilePolarity,Negative*%
%FSLAX46Y46*%
G04 Gerber Fmt 4.6, Leading zero omitted, Abs format (unit mm)*
G04 Created by KiCad (PCBNEW 10.0.2) date 2026-05-17 14:06:41*
%MOMM*%
%LPD*%
G01*
G04 APERTURE LIST*
G04 Aperture macros list*
%AMRoundRect*
0 Rectangle with rounded corners*
0 $1 Rounding radius*
0 $2 $3 $4 $5 $6 $7 $8 $9 X,Y pos of 4 corners*
0 Add a 4 corners polygon primitive as box body*
4,1,4,$2,$3,$4,$5,$6,$7,$8,$9,$2,$3,0*
0 Add four circle primitives for the rounded corners*
1,1,$1+$1,$2,$3*
1,1,$1+$1,$4,$5*
1,1,$1+$1,$6,$7*
1,1,$1+$1,$8,$9*
0 Add four rect primitives between the rounded corners*
20,1,$1+$1,$2,$3,$4,$5,0*
20,1,$1+$1,$4,$5,$6,$7,0*
20,1,$1+$1,$6,$7,$8,$9,0*
20,1,$1+$1,$8,$9,$2,$3,0*%
G04 Aperture macros list end*
%ADD10R,1.700000X1.700000*%
%ADD11O,1.700000X1.700000*%
%ADD12RoundRect,0.250000X-0.725000X0.600000X-0.725000X-0.600000X0.725000X-0.600000X0.725000X0.600000X0*%
%ADD13O,1.950000X1.700000*%
%ADD14RoundRect,0.250000X0.600000X0.725000X-0.600000X0.725000X-0.600000X-0.725000X0.600000X-0.725000X0*%
%ADD15O,1.700000X1.950000*%
%ADD16O,1.600000X1.000000*%
%ADD17C,0.650000*%
%ADD18O,2.100000X1.000000*%
%ADD19C,0.800000*%
%ADD20C,6.400000*%
%ADD21R,1.500000X5.080000*%
%ADD22RoundRect,0.250001X-0.899999X-0.899999X0.899999X-0.899999X0.899999X0.899999X-0.899999X0.899999X0*%
%ADD23C,2.300000*%
%ADD24R,2.000000X0.900000*%
%ADD25RoundRect,1.025000X1.025000X-1.025000X1.025000X1.025000X-1.025000X1.025000X-1.025000X-1.025000X0*%
%ADD26C,4.100000*%
G04 APERTURE END LIST*
D10*
X97700000Y-148472200D03*
D11*
X97700000Y-151012200D03*
X97700000Y-153552200D03*
D10*
X93966200Y-148472200D03*
D11*
X93966200Y-151012200D03*
X93966200Y-153552200D03*
D10*
X90232400Y-148472200D03*
D11*
X90232400Y-151012200D03*
X90232400Y-153552200D03*
D10*
X86498600Y-148472200D03*
D11*
X86498600Y-151012200D03*
X86498600Y-153552200D03*
D10*
X82800000Y-148475000D03*
D11*
X82800000Y-151015000D03*
X82800000Y-153555000D03*
D12*
X131025000Y-137075000D03*
D13*
X131025000Y-139575000D03*
X131025000Y-142075000D03*
X131025000Y-144575000D03*
D12*
X131017500Y-122725000D03*
D13*
X131017500Y-125225000D03*
X131017500Y-127725000D03*
X131017500Y-130225000D03*
D12*
X131017500Y-109475000D03*
D13*
X131017500Y-111975000D03*
X131017500Y-114475000D03*
X131017500Y-116975000D03*
D14*
X125958114Y-46359800D03*
D15*
X123458114Y-46359800D03*
X120958114Y-46359800D03*
X118458114Y-46359800D03*
D16*
X136275000Y-70120000D03*
D17*
X132595000Y-68690000D03*
X132595000Y-62910000D03*
D16*
X136275000Y-61480000D03*
D18*
X132095000Y-70120000D03*
X132095000Y-61480000D03*
D19*
X130780914Y-41690600D03*
X131483858Y-39993544D03*
X131483858Y-43387656D03*
X133180914Y-39290600D03*
D20*
X133180914Y-41690600D03*
D19*
X133180914Y-44090600D03*
X134877970Y-39993544D03*
X134877970Y-43387656D03*
X135580914Y-41690600D03*
D21*
X81315314Y-39456200D03*
X89815314Y-39456200D03*
D10*
X115515000Y-110125000D03*
D11*
X112975000Y-110125000D03*
X110435000Y-110125000D03*
X107895000Y-110125000D03*
D22*
X105950000Y-151705600D03*
D23*
X109450000Y-151705600D03*
D22*
X120425000Y-151700000D03*
D23*
X123925000Y-151700000D03*
D19*
X70633714Y-41690600D03*
X71336658Y-39993544D03*
X71336658Y-43387656D03*
X73033714Y-39290600D03*
D20*
X73033714Y-41690600D03*
D19*
X73033714Y-44090600D03*
X74730770Y-39993544D03*
X74730770Y-43387656D03*
X75433714Y-41690600D03*
D21*
X101315314Y-39456200D03*
X109815314Y-39456200D03*
D22*
X113190714Y-151705600D03*
D23*
X116690714Y-151705600D03*
D19*
X130730114Y-151926600D03*
X131433058Y-150229544D03*
X131433058Y-153623656D03*
X133130114Y-149526600D03*
D20*
X133130114Y-151926600D03*
D19*
X133130114Y-154326600D03*
X134827170Y-150229544D03*
X134827170Y-153623656D03*
X135530114Y-151926600D03*
D24*
X72575000Y-112400000D03*
X72575000Y-98900000D03*
D25*
X78575000Y-109250000D03*
D26*
X78575000Y-102050000D03*
D24*
X72525000Y-95650000D03*
X72525000Y-82150000D03*
D25*
X78525000Y-92500000D03*
D26*
X78525000Y-85300000D03*
D19*
X70633714Y-151977400D03*
X71336658Y-150280344D03*
X71336658Y-153674456D03*
X73033714Y-149577400D03*
D20*
X73033714Y-151977400D03*
D19*
X73033714Y-154377400D03*
X74730770Y-150280344D03*
X74730770Y-153674456D03*
X75433714Y-151977400D03*
D10*
X120625000Y-112950000D03*
D11*
X118085000Y-112950000D03*
X115545000Y-112950000D03*
X113005000Y-112950000D03*
X110465000Y-112950000D03*
X107925000Y-112950000D03*
G36*
X70735885Y-148544685D02*
G01*
X70781640Y-148597489D01*
X70792846Y-148649000D01*
X70792846Y-148775000D01*
X72909714Y-148775000D01*
X72976753Y-148794685D01*
X73022508Y-148847489D01*
X73033714Y-148899000D01*
X73033714Y-151853400D01*
X73014029Y-151920439D01*
X72961225Y-151966194D01*
X72909714Y-151977400D01*
X70792846Y-151977400D01*
X70792846Y-152103400D01*
X70773161Y-152170439D01*
X70720357Y-152216194D01*
X70668846Y-152227400D01*
X70562211Y-152227400D01*
X70538019Y-152225017D01*
X70478518Y-152213181D01*
X70433820Y-152194667D01*
X70393731Y-152167881D01*
X70359518Y-152133668D01*
X70332732Y-152093579D01*
X70314218Y-152048880D01*
X70302383Y-151989380D01*
X70300000Y-151965189D01*
X70300000Y-148787210D01*
X70302383Y-148763019D01*
X70314218Y-148703519D01*
X70332732Y-148658820D01*
X70359518Y-148618731D01*
X70393731Y-148584518D01*
X70433820Y-148557732D01*
X70478520Y-148539217D01*
X70538021Y-148527382D01*
X70562211Y-148525000D01*
X70668846Y-148525000D01*
X70735885Y-148544685D01*
G37*
G36*
X135661980Y-41449983D02*
G01*
X135721480Y-41461818D01*
X135766179Y-41480332D01*
X135806268Y-41507118D01*
X135840481Y-41541331D01*
X135867267Y-41581420D01*
X135885781Y-41626117D01*
X135897617Y-41685617D01*
X135900000Y-41709810D01*
X135900000Y-44887789D01*
X135897617Y-44911982D01*
X135885781Y-44971482D01*
X135867267Y-45016179D01*
X135840481Y-45056268D01*
X135806268Y-45090481D01*
X135766179Y-45117267D01*
X135721482Y-45135781D01*
X135661982Y-45147617D01*
X135637789Y-45150000D01*
X135424000Y-45150000D01*
X135356961Y-45130315D01*
X135311206Y-45077511D01*
X135300000Y-45026000D01*
X135300000Y-44900000D01*
X133290286Y-44900000D01*
X133223247Y-44880315D01*
X133177492Y-44827511D01*
X133166286Y-44776000D01*
X133166286Y-41821600D01*
X133185971Y-41754561D01*
X133238775Y-41708806D01*
X133290286Y-41697600D01*
X135300000Y-41697600D01*
X135300000Y-41571600D01*
X135319685Y-41504561D01*
X135372489Y-41458806D01*
X135424000Y-41447600D01*
X135637789Y-41447600D01*
X135661980Y-41449983D01*
G37*
G36*
X76236980Y-38952383D02*
G01*
X76296480Y-38964218D01*
X76341179Y-38982732D01*
X76381268Y-39009518D01*
X76415481Y-39043731D01*
X76442267Y-39083820D01*
X76460781Y-39128517D01*
X76472617Y-39188017D01*
X76475000Y-39212210D01*
X76475000Y-39442009D01*
X76455315Y-39509048D01*
X76402511Y-39554803D01*
X76351000Y-39566009D01*
X76225000Y-39566009D01*
X76225000Y-41559714D01*
X76205315Y-41626753D01*
X76152511Y-41672508D01*
X76101000Y-41683714D01*
X73146600Y-41683714D01*
X73079561Y-41664029D01*
X73033806Y-41611225D01*
X73022600Y-41559714D01*
X73022600Y-39566009D01*
X72896600Y-39566009D01*
X72829561Y-39546324D01*
X72783806Y-39493520D01*
X72772600Y-39442009D01*
X72772600Y-39212210D01*
X72774983Y-39188019D01*
X72786818Y-39128519D01*
X72805332Y-39083820D01*
X72832118Y-39043731D01*
X72866331Y-39009518D01*
X72906420Y-38982732D01*
X72951120Y-38964217D01*
X73010621Y-38952382D01*
X73034811Y-38950000D01*
X76212789Y-38950000D01*
X76236980Y-38952383D01*
G37*
G36*
X133178266Y-38577383D02*
G01*
X133237766Y-38589218D01*
X133282465Y-38607732D01*
X133322554Y-38634518D01*
X133356767Y-38668731D01*
X133383553Y-38708820D01*
X133402067Y-38753517D01*
X133413903Y-38813017D01*
X133416286Y-38837210D01*
X133416286Y-39442009D01*
X133396601Y-39509048D01*
X133343797Y-39554803D01*
X133292286Y-39566009D01*
X133166286Y-39566009D01*
X133166286Y-41626000D01*
X133146601Y-41693039D01*
X133093797Y-41738794D01*
X133042286Y-41750000D01*
X130099000Y-41750000D01*
X130031961Y-41730315D01*
X129986206Y-41677511D01*
X129975000Y-41626000D01*
X129975000Y-39566009D01*
X129849000Y-39566009D01*
X129781961Y-39546324D01*
X129736206Y-39493520D01*
X129725000Y-39442009D01*
X129725000Y-38837210D01*
X129727383Y-38813019D01*
X129739218Y-38753519D01*
X129757732Y-38708820D01*
X129784518Y-38668731D01*
X129818731Y-38634518D01*
X129858820Y-38607732D01*
X129903520Y-38589217D01*
X129963021Y-38577382D01*
X129987211Y-38575000D01*
X133154075Y-38575000D01*
X133178266Y-38577383D01*
G37*
G36*
X70735885Y-41453399D02*
G01*
X70781640Y-41506203D01*
X70792846Y-41557714D01*
X70792846Y-41683714D01*
X72898600Y-41683714D01*
X72965639Y-41703399D01*
X73011394Y-41756203D01*
X73022600Y-41807714D01*
X73022600Y-44776000D01*
X73002915Y-44843039D01*
X72950111Y-44888794D01*
X72898600Y-44900000D01*
X70792846Y-44900000D01*
X70792846Y-45026000D01*
X70773161Y-45093039D01*
X70720357Y-45138794D01*
X70668846Y-45150000D01*
X70162211Y-45150000D01*
X70138019Y-45147617D01*
X70078518Y-45135781D01*
X70033820Y-45117267D01*
X69993731Y-45090481D01*
X69959518Y-45056268D01*
X69932732Y-45016179D01*
X69914218Y-44971480D01*
X69902383Y-44911980D01*
X69900000Y-44887789D01*
X69900000Y-43902000D01*
X70898000Y-43902000D01*
X71626000Y-43902000D01*
X71626000Y-42681714D01*
X70898000Y-42681714D01*
X70898000Y-43902000D01*
X69900000Y-43902000D01*
X69900000Y-41695924D01*
X69902383Y-41671733D01*
X69914218Y-41612233D01*
X69932732Y-41567534D01*
X69959518Y-41527445D01*
X69993731Y-41493232D01*
X70033820Y-41466446D01*
X70078520Y-41447931D01*
X70138021Y-41436096D01*
X70162211Y-41433714D01*
X70668846Y-41433714D01*
X70735885Y-41453399D01*
G37*
G36*
X70999559Y-37297308D02*
G01*
X71037639Y-37355888D01*
X71042846Y-37391443D01*
X71042846Y-39442009D01*
X71023161Y-39509048D01*
X70970357Y-39554803D01*
X70918846Y-39566009D01*
X70792846Y-39566009D01*
X70792846Y-41683714D01*
X70918846Y-41683714D01*
X70985885Y-41703399D01*
X71031640Y-41756203D01*
X71042846Y-41807714D01*
X71042846Y-44776000D01*
X71023161Y-44843039D01*
X70970357Y-44888794D01*
X70918846Y-44900000D01*
X70792846Y-44900000D01*
X70792846Y-148775000D01*
X70918846Y-148775000D01*
X70985885Y-148794685D01*
X71031640Y-148847489D01*
X71042846Y-148899000D01*
X71042846Y-151853400D01*
X71023161Y-151920439D01*
X70970357Y-151966194D01*
X70918846Y-151977400D01*
X70792846Y-151977400D01*
X70792846Y-153888191D01*
X70918846Y-153888191D01*
X70985885Y-153907876D01*
X71031640Y-153960680D01*
X71042846Y-154012191D01*
X71042846Y-156120980D01*
X71023161Y-156188019D01*
X70970357Y-156233774D01*
X70901199Y-156243718D01*
X70866747Y-156233504D01*
X70804484Y-156204676D01*
X70794802Y-156199666D01*
X70425250Y-155987310D01*
X70416046Y-155981468D01*
X70066563Y-155737466D01*
X70057907Y-155730838D01*
X69731214Y-155457088D01*
X69723174Y-155449726D01*
X69421783Y-155148337D01*
X69414420Y-155140296D01*
X69140668Y-154813601D01*
X69134041Y-154804945D01*
X68890041Y-154455467D01*
X68884199Y-154446263D01*
X68671840Y-154076710D01*
X68666829Y-154067028D01*
X68487747Y-153680243D01*
X68483606Y-153670158D01*
X68339193Y-153269154D01*
X68335953Y-153258745D01*
X68227313Y-152846580D01*
X68225001Y-152835926D01*
X68152988Y-152415836D01*
X68151620Y-152405021D01*
X68116726Y-151979555D01*
X68116312Y-151969998D01*
X68115315Y-151756414D01*
X68115314Y-151755835D01*
X68115314Y-41756577D01*
X68115315Y-41755989D01*
X68116328Y-41542397D01*
X68116742Y-41532849D01*
X68151638Y-41107383D01*
X68153006Y-41096567D01*
X68225024Y-40676468D01*
X68227337Y-40665814D01*
X68335973Y-40253673D01*
X68339212Y-40243264D01*
X68483631Y-39842247D01*
X68487772Y-39832163D01*
X68666853Y-39445384D01*
X68671864Y-39435702D01*
X68884223Y-39066150D01*
X68890065Y-39056946D01*
X69134064Y-38707470D01*
X69140692Y-38698814D01*
X69414448Y-38372115D01*
X69421810Y-38364075D01*
X69723188Y-38062697D01*
X69731228Y-38055334D01*
X70057933Y-37781574D01*
X70066589Y-37774947D01*
X70416054Y-37530956D01*
X70425258Y-37525114D01*
X70794815Y-37312752D01*
X70804497Y-37307741D01*
X70866747Y-37278919D01*
X70935853Y-37268615D01*
X70999559Y-37297308D01*
G37*
G36*
X133115525Y-36756201D02*
G01*
X133329116Y-36757212D01*
X133338665Y-36757626D01*
X133764132Y-36792521D01*
X133774947Y-36793889D01*
X134195036Y-36865903D01*
X134205690Y-36868215D01*
X134617853Y-36976856D01*
X134628263Y-36980096D01*
X135029266Y-37124509D01*
X135039350Y-37128650D01*
X135426132Y-37307731D01*
X135435814Y-37312742D01*
X135805372Y-37525105D01*
X135814576Y-37530947D01*
X136164049Y-37774943D01*
X136172705Y-37781571D01*
X136499396Y-38055321D01*
X136507436Y-38062683D01*
X136808820Y-38364067D01*
X136816183Y-38372107D01*
X137089942Y-38698812D01*
X137096570Y-38707468D01*
X137340561Y-39056934D01*
X137346403Y-39066138D01*
X137558763Y-39435697D01*
X137563773Y-39445379D01*
X137653842Y-39639910D01*
X137664146Y-39709015D01*
X137635453Y-39772722D01*
X137576873Y-39810802D01*
X137541318Y-39816009D01*
X135424000Y-39816009D01*
X135356961Y-39796324D01*
X135311206Y-39743520D01*
X135300000Y-39692009D01*
X135300000Y-39566009D01*
X133166286Y-39566009D01*
X133166286Y-39692009D01*
X133146601Y-39759048D01*
X133093797Y-39804803D01*
X133042286Y-39816009D01*
X130099000Y-39816009D01*
X130031961Y-39796324D01*
X129986206Y-39743520D01*
X129975000Y-39692009D01*
X129975000Y-39566009D01*
X76225000Y-39566009D01*
X76225000Y-39692009D01*
X76205315Y-39759048D01*
X76152511Y-39804803D01*
X76101000Y-39816009D01*
X73146600Y-39816009D01*
X73079561Y-39796324D01*
X73033806Y-39743520D01*
X73022600Y-39692009D01*
X73022600Y-39566009D01*
X70792846Y-39566009D01*
X70792846Y-39692009D01*
X70773161Y-39759048D01*
X70720357Y-39804803D01*
X70668846Y-39816009D01*
X68689311Y-39816009D01*
X68622272Y-39796324D01*
X68576517Y-39743520D01*
X68566573Y-39674362D01*
X68576787Y-39639910D01*
X68666853Y-39445384D01*
X68671864Y-39435702D01*
X68884223Y-39066150D01*
X68890065Y-39056946D01*
X69134064Y-38707470D01*
X69140692Y-38698814D01*
X69414448Y-38372115D01*
X69421810Y-38364075D01*
X69723188Y-38062697D01*
X69731228Y-38055334D01*
X70057933Y-37781574D01*
X70066589Y-37774947D01*
X70416054Y-37530956D01*
X70425258Y-37525114D01*
X70794815Y-37312752D01*
X70804497Y-37307741D01*
X71191276Y-37128660D01*
X71201361Y-37124519D01*
X71602379Y-36980101D01*
X71612787Y-36976862D01*
X72024928Y-36868226D01*
X72035582Y-36865913D01*
X72455681Y-36793895D01*
X72466497Y-36792527D01*
X72891964Y-36757631D01*
X72901510Y-36757217D01*
X73115104Y-36756201D01*
X73115694Y-36756200D01*
X133114938Y-36756200D01*
X133115525Y-36756201D01*
G37*
G36*
X133070439Y-151935971D02*
G01*
X133116194Y-151988775D01*
X133127400Y-152040286D01*
X133127400Y-153888191D01*
X133253400Y-153888191D01*
X133320439Y-153907876D01*
X133366194Y-153960680D01*
X133377400Y-154012191D01*
X133377400Y-154387789D01*
X133375017Y-154411982D01*
X133363181Y-154471482D01*
X133344667Y-154516179D01*
X133317881Y-154556268D01*
X133283668Y-154590481D01*
X133243579Y-154617267D01*
X133198882Y-154635781D01*
X133139382Y-154647617D01*
X133115189Y-154650000D01*
X129937211Y-154650000D01*
X129913019Y-154647617D01*
X129853518Y-154635781D01*
X129808820Y-154617267D01*
X129768731Y-154590481D01*
X129734518Y-154556268D01*
X129707732Y-154516179D01*
X129689218Y-154471480D01*
X129677383Y-154411980D01*
X129675000Y-154387789D01*
X129675000Y-154012191D01*
X129694685Y-153945152D01*
X129747489Y-153899397D01*
X129799000Y-153888191D01*
X129925000Y-153888191D01*
X129925000Y-153652000D01*
X130923000Y-153652000D01*
X131626000Y-153652000D01*
X131626000Y-152914286D01*
X130923000Y-152914286D01*
X130923000Y-153652000D01*
X129925000Y-153652000D01*
X129925000Y-152040286D01*
X129944685Y-151973247D01*
X129997489Y-151927492D01*
X130049000Y-151916286D01*
X133003400Y-151916286D01*
X133070439Y-151935971D01*
G37*
G36*
X136011980Y-148452383D02*
G01*
X136071480Y-148464218D01*
X136116179Y-148482732D01*
X136156268Y-148509518D01*
X136190481Y-148543731D01*
X136217267Y-148583820D01*
X136235781Y-148628517D01*
X136247617Y-148688017D01*
X136250000Y-148712210D01*
X136250000Y-151904075D01*
X136247617Y-151928268D01*
X136235781Y-151987768D01*
X136217267Y-152032465D01*
X136190481Y-152072554D01*
X136156268Y-152106767D01*
X136116179Y-152133553D01*
X136071482Y-152152067D01*
X136011982Y-152163903D01*
X135987789Y-152166286D01*
X135424000Y-152166286D01*
X135356961Y-152146601D01*
X135311206Y-152093797D01*
X135300000Y-152042286D01*
X135300000Y-151916286D01*
X133251400Y-151916286D01*
X133184361Y-151896601D01*
X133138606Y-151843797D01*
X133127400Y-151792286D01*
X133127400Y-148824000D01*
X133147085Y-148756961D01*
X133199889Y-148711206D01*
X133251400Y-148700000D01*
X135300000Y-148700000D01*
X135300000Y-148574000D01*
X135319685Y-148506961D01*
X135372489Y-148461206D01*
X135424000Y-148450000D01*
X135987789Y-148450000D01*
X136011980Y-148452383D01*
G37*
G36*
X70735885Y-153657876D02*
G01*
X70781640Y-153710680D01*
X70792846Y-153762191D01*
X70792846Y-153888191D01*
X73033714Y-153888191D01*
X73033714Y-153762191D01*
X73053399Y-153695152D01*
X73106203Y-153649397D01*
X73157714Y-153638191D01*
X76126000Y-153638191D01*
X76193039Y-153657876D01*
X76238794Y-153710680D01*
X76250000Y-153762191D01*
X76250000Y-153888191D01*
X129925000Y-153888191D01*
X129925000Y-153762191D01*
X129944685Y-153695152D01*
X129997489Y-153649397D01*
X130049000Y-153638191D01*
X133003400Y-153638191D01*
X133070439Y-153657876D01*
X133116194Y-153710680D01*
X133127400Y-153762191D01*
X133127400Y-153888191D01*
X135300000Y-153888191D01*
X135300000Y-153762191D01*
X135319685Y-153695152D01*
X135372489Y-153649397D01*
X135424000Y-153638191D01*
X137568280Y-153638191D01*
X137635319Y-153657876D01*
X137681074Y-153710680D01*
X137691018Y-153779838D01*
X137680804Y-153814290D01*
X137563785Y-154067027D01*
X137558775Y-154076709D01*
X137346415Y-154446268D01*
X137340572Y-154455472D01*
X137096580Y-154804939D01*
X137089953Y-154813595D01*
X136816198Y-155140295D01*
X136808836Y-155148335D01*
X136507447Y-155449726D01*
X136499406Y-155457089D01*
X136172711Y-155730841D01*
X136164055Y-155737468D01*
X135814578Y-155981467D01*
X135805374Y-155987309D01*
X135435821Y-156199669D01*
X135426139Y-156204680D01*
X135039355Y-156383762D01*
X135029270Y-156387903D01*
X134628266Y-156532316D01*
X134617857Y-156535556D01*
X134205695Y-156644196D01*
X134195041Y-156646508D01*
X133774947Y-156718524D01*
X133764132Y-156719892D01*
X133338669Y-156754787D01*
X133329112Y-156755201D01*
X133115528Y-156756199D01*
X133114949Y-156756200D01*
X73115690Y-156756200D01*
X73115103Y-156756199D01*
X72901509Y-156755188D01*
X72891961Y-156754774D01*
X72466493Y-156719881D01*
X72455677Y-156718513D01*
X72035584Y-156646500D01*
X72024931Y-156644188D01*
X71612771Y-156535551D01*
X71602361Y-156532311D01*
X71201353Y-156387898D01*
X71191268Y-156383757D01*
X70804484Y-156204676D01*
X70794802Y-156199666D01*
X70425250Y-155987310D01*
X70416046Y-155981468D01*
X70066563Y-155737466D01*
X70057907Y-155730838D01*
X69731214Y-155457088D01*
X69723174Y-155449726D01*
X69421783Y-155148337D01*
X69414420Y-155140296D01*
X69140668Y-154813601D01*
X69134041Y-154804945D01*
X68890041Y-154455467D01*
X68884199Y-154446263D01*
X68671840Y-154076710D01*
X68666829Y-154067028D01*
X68549811Y-153814290D01*
X68539507Y-153745184D01*
X68568200Y-153681478D01*
X68626780Y-153643398D01*
X68662335Y-153638191D01*
X70668846Y-153638191D01*
X70735885Y-153657876D01*
G37*
G36*
X135226099Y-37215115D02*
G01*
X135426132Y-37307731D01*
X135435814Y-37312742D01*
X135805372Y-37525105D01*
X135814576Y-37530947D01*
X136164049Y-37774943D01*
X136172705Y-37781571D01*
X136499396Y-38055321D01*
X136507436Y-38062683D01*
X136808820Y-38364067D01*
X136816183Y-38372107D01*
X137089942Y-38698812D01*
X137096570Y-38707468D01*
X137340561Y-39056934D01*
X137346403Y-39066138D01*
X137558763Y-39435697D01*
X137563773Y-39445379D01*
X137742854Y-39832161D01*
X137746995Y-39842246D01*
X137891407Y-40243250D01*
X137894647Y-40253659D01*
X138003287Y-40665823D01*
X138005599Y-40676477D01*
X138077612Y-41096566D01*
X138078980Y-41107382D01*
X138113873Y-41532852D01*
X138114287Y-41542391D01*
X138115313Y-41755990D01*
X138115314Y-41756586D01*
X138115314Y-151755824D01*
X138115313Y-151756412D01*
X138114301Y-151970005D01*
X138113887Y-151979552D01*
X138078994Y-152405019D01*
X138077626Y-152415835D01*
X138005612Y-152835925D01*
X138003300Y-152846579D01*
X137894660Y-153258744D01*
X137891420Y-153269153D01*
X137747008Y-153670158D01*
X137742867Y-153680243D01*
X137563785Y-154067027D01*
X137558775Y-154076709D01*
X137346415Y-154446268D01*
X137340572Y-154455472D01*
X137096580Y-154804939D01*
X137089953Y-154813595D01*
X136816198Y-155140295D01*
X136808836Y-155148335D01*
X136507447Y-155449726D01*
X136499406Y-155457089D01*
X136172711Y-155730841D01*
X136164055Y-155737468D01*
X135814578Y-155981467D01*
X135805374Y-155987309D01*
X135435821Y-156199669D01*
X135426139Y-156204680D01*
X135226099Y-156297299D01*
X135156993Y-156307603D01*
X135093287Y-156278910D01*
X135055207Y-156220330D01*
X135050000Y-156184775D01*
X135050000Y-154012191D01*
X135069685Y-153945152D01*
X135122489Y-153899397D01*
X135174000Y-153888191D01*
X135300000Y-153888191D01*
X135300000Y-151916286D01*
X135174000Y-151916286D01*
X135106961Y-151896601D01*
X135061206Y-151843797D01*
X135050000Y-151792286D01*
X135050000Y-148824000D01*
X135069685Y-148756961D01*
X135122489Y-148711206D01*
X135174000Y-148700000D01*
X135300000Y-148700000D01*
X135300000Y-44900000D01*
X135174000Y-44900000D01*
X135106961Y-44880315D01*
X135061206Y-44827511D01*
X135050000Y-44776000D01*
X135050000Y-41821600D01*
X135069685Y-41754561D01*
X135122489Y-41708806D01*
X135174000Y-41697600D01*
X135300000Y-41697600D01*
X135300000Y-39566009D01*
X135174000Y-39566009D01*
X135106961Y-39546324D01*
X135061206Y-39493520D01*
X135050000Y-39442009D01*
X135050000Y-37327639D01*
X135069685Y-37260600D01*
X135122489Y-37214845D01*
X135191647Y-37204901D01*
X135226099Y-37215115D01*
G37*
G36*
X76193039Y-151997085D02*
G01*
X76238794Y-152049889D01*
X76250000Y-152101400D01*
X76250000Y-153888191D01*
X76376000Y-153888191D01*
X76443039Y-153907876D01*
X76488794Y-153960680D01*
X76500000Y-154012191D01*
X76500000Y-154837789D01*
X76497617Y-154861982D01*
X76485781Y-154921482D01*
X76467267Y-154966179D01*
X76440481Y-155006268D01*
X76406268Y-155040481D01*
X76366179Y-155067267D01*
X76321482Y-155085781D01*
X76261982Y-155097617D01*
X76237789Y-155100000D01*
X73045925Y-155100000D01*
X73021733Y-155097617D01*
X72962232Y-155085781D01*
X72917534Y-155067267D01*
X72877445Y-155040481D01*
X72843232Y-155006268D01*
X72816446Y-154966179D01*
X72797932Y-154921480D01*
X72786097Y-154861980D01*
X72783714Y-154837789D01*
X72783714Y-154012191D01*
X72803399Y-153945152D01*
X72856203Y-153899397D01*
X72907714Y-153888191D01*
X73033714Y-153888191D01*
X73033714Y-152101400D01*
X73053399Y-152034361D01*
X73106203Y-151988606D01*
X73157714Y-151977400D01*
X76126000Y-151977400D01*
X76193039Y-151997085D01*
G37*
M02*
