M48
; DRILL file KiCad 10.0.2 date 2026-05-17T14:06:39
; FORMAT={-:-/ absolute / metric / decimal}
; #@! TF.CreationDate,2026-05-17T14:06:39+02:00
; #@! TF.GenerationSoftware,Kicad,Pcbnew,10.0.2
; #@! TF.FileFunction,Plated,1,4,PTH
FMAT,2
METRIC
; #@! TA.AperFunction,Plated,PTH,ViaDrill
T1C0.200
; #@! TA.AperFunction,Plated,PTH,ViaDrill
T2C0.400
; #@! TA.AperFunction,Plated,PTH,ComponentDrill
T3C0.500
; #@! TA.AperFunction,Plated,PTH,ComponentDrill
T4C0.600
; #@! TA.AperFunction,Plated,PTH,ComponentDrill
T5C0.950
; #@! TA.AperFunction,Plated,PTH,ComponentDrill
T6C1.000
; #@! TA.AperFunction,Plated,PTH,ComponentDrill
T7C1.200
; #@! TA.AperFunction,Plated,PTH,ComponentDrill
T8C2.700
; #@! TA.AperFunction,Plated,PTH,ComponentDrill
T9C3.200
%
G90
G05
T1
X71.35Y-143.35
X71.375Y-139.475
X71.45Y-74.2
X71.75Y-68.15
X71.825Y-78.65
X72.1Y-146.65
X72.35Y-46.875
X72.375Y-48.875
X72.375Y-50.875
X72.375Y-52.7
X72.4Y-54.7
X72.4Y-56.7
X72.4Y-58.5
X72.425Y-60.5
X72.425Y-62.5
X72.425Y-64.325
X72.725Y-84.875
X72.725Y-88.45
X72.725Y-92.025
X72.725Y-101.875
X72.725Y-105.45
X72.725Y-109.025
X72.925Y-70.0
X73.45Y-136.425
X73.55Y-80.125
X74.1Y-45.8
X74.125Y-47.8
X74.125Y-49.8
X74.125Y-51.625
X74.15Y-53.625
X74.15Y-55.625
X74.15Y-57.425
X74.175Y-59.425
X74.175Y-61.425
X74.175Y-63.25
X74.2Y-65.25
X75.513Y-146.65
X75.525Y-128.225
X75.65Y-44.9
X75.65Y-109.225
X75.675Y-46.9
X75.675Y-48.9
X75.675Y-50.725
X75.7Y-52.725
X75.7Y-54.725
X75.7Y-56.525
X75.7Y-138.85
X75.725Y-58.525
X75.725Y-60.525
X75.725Y-62.35
X75.75Y-64.35
X75.85Y-72.875
X75.875Y-76.7
X75.9Y-81.8
X76.625Y-140.3
X76.8Y-69.975
X77.225Y-41.675
X77.25Y-43.675
X77.25Y-45.675
X77.25Y-47.5
X77.25Y-149.125
X77.275Y-49.5
X77.275Y-51.5
X77.275Y-53.3
X77.3Y-55.3
X77.3Y-57.3
X77.3Y-59.125
X77.3Y-65.2
X77.325Y-61.125
X77.325Y-63.125
X77.75Y-117.025
X77.75Y-119.331
X77.75Y-121.637
X77.75Y-123.944
X77.75Y-126.25
X78.525Y-89.625
X78.525Y-98.25
X78.55Y-95.525
X78.55Y-106.025
X78.625Y-68.3
X78.7Y-40.775
X78.725Y-42.775
X78.725Y-44.775
X78.725Y-46.6
X78.75Y-48.6
X78.75Y-50.6
X78.75Y-52.4
X78.775Y-54.4
X78.775Y-56.4
X78.775Y-58.225
X78.8Y-60.225
X78.8Y-62.225
X78.8Y-64.325
X78.925Y-146.65
X79.2Y-130.875
X79.4Y-140.3
X79.9Y-81.85
X80.125Y-43.675
X80.125Y-45.6
X80.15Y-47.6
X80.15Y-49.6
X80.15Y-51.425
X80.15Y-65.25
X80.175Y-53.425
X80.175Y-55.425
X80.175Y-57.225
X80.2Y-59.225
X80.2Y-61.225
X80.2Y-63.05
X80.297Y-133.812
X80.372Y-115.237
X80.672Y-117.037
X80.672Y-119.437
X80.672Y-121.837
X81.125Y-111.575
X81.35Y-68.325
X81.4Y-64.35
X81.475Y-88.8
X81.475Y-92.575
X81.525Y-78.575
X81.55Y-54.525
X81.55Y-56.525
X81.55Y-58.325
X81.75Y-44.8
X81.75Y-46.725
X81.775Y-48.725
X81.824Y-115.322
X81.95Y-61.985
X82.175Y-140.3
X82.616Y-115.322
X82.625Y-52.9
X82.725Y-55.575
X82.725Y-57.575
X83.025Y-97.0
X83.125Y-43.8
X83.125Y-45.725
X83.15Y-47.725
X83.175Y-133.825
X83.225Y-73.975
X83.25Y-66.075
X83.25Y-75.525
X83.3Y-77.1
X83.325Y-132.025
X83.35Y-40.8
X83.408Y-115.322
X83.45Y-129.175
X83.525Y-70.775
X83.675Y-54.55
X83.725Y-53.025
X84.125Y-63.05
X84.164Y-57.01
X84.199Y-115.322
X84.2Y-126.4
X84.35Y-59.4
X84.4Y-42.95
X84.4Y-44.081
X84.4Y-45.212
X84.4Y-46.344
X84.4Y-47.475
X84.75Y-64.05
X84.9Y-54.262
X84.9Y-55.394
X84.9Y-56.525
X84.95Y-140.3
X85.025Y-78.3
X85.275Y-67.6
X85.55Y-119.425
X85.55Y-121.825
X85.55Y-123.7
X85.672Y-133.462
X85.675Y-83.2
X85.7Y-114.975
X85.775Y-102.325
X85.875Y-98.375
X85.9Y-108.625
X86.325Y-86.1
X86.481Y-65.094
X86.875Y-78.625
X86.9Y-95.525
X86.925Y-93.7
X87.025Y-117.0
X87.2Y-52.95
X87.25Y-54.85
X87.35Y-65.05
X87.438Y-76.131
X87.45Y-110.5
X87.475Y-105.9
X87.625Y-70.825
X87.675Y-40.8
X87.675Y-43.044
X87.675Y-44.175
X87.675Y-45.306
X87.675Y-46.438
X87.725Y-47.825
X87.725Y-140.3
X87.8Y-62.875
X87.825Y-59.425
X87.85Y-67.15
X88.2Y-64.975
X88.2Y-82.7
X88.225Y-90.675
X88.325Y-52.95
X88.6Y-121.775
X88.65Y-119.35
X88.95Y-57.95
X89.0Y-54.6
X89.025Y-44.95
X89.025Y-46.775
X89.05Y-43.0
X89.475Y-58.95
X89.475Y-82.675
X89.5Y-93.5
X89.625Y-61.675
X89.8Y-101.75
X89.85Y-50.65
X89.9Y-125.262
X89.9Y-129.875
X90.2Y-98.475
X90.25Y-134.05
X90.25Y-135.9
X90.3Y-132.35
X90.4Y-89.225
X90.475Y-63.6
X90.5Y-43.925
X90.5Y-45.75
X90.525Y-47.75
X90.525Y-49.725
X90.825Y-51.525
X90.825Y-53.325
X90.85Y-55.325
X90.85Y-76.325
X90.924Y-92.326
X91.0Y-109.55
X91.0Y-114.162
X91.0Y-118.775
X91.05Y-73.225
X91.475Y-97.125
X91.55Y-87.575
X91.65Y-141.5
X91.875Y-64.125
X92.05Y-92.3
X92.125Y-67.975
X92.15Y-40.95
X92.175Y-42.95
X92.175Y-44.95
X92.175Y-46.775
X92.184Y-135.134
X92.2Y-48.775
X92.2Y-50.775
X92.2Y-52.575
X92.225Y-54.575
X92.225Y-56.575
X92.325Y-91.15
X92.75Y-80.65
X92.775Y-94.7
X92.812Y-111.75
X92.825Y-117.237
X92.825Y-121.85
X92.9Y-77.35
X93.025Y-128.25
X93.3Y-105.525
X93.35Y-98.525
X93.8Y-103.175
X93.9Y-86.575
X93.925Y-41.875
X93.925Y-43.875
X93.925Y-45.7
X93.95Y-47.7
X93.95Y-49.7
X93.95Y-51.5
X93.975Y-53.5
X93.975Y-55.5
X93.975Y-57.325
X94.125Y-59.3
X94.125Y-61.075
X94.125Y-63.075
X94.725Y-109.587
X94.725Y-114.2
X94.925Y-126.775
X95.375Y-117.25
X95.375Y-119.7
X95.375Y-122.075
X95.475Y-40.975
X95.475Y-42.975
X95.475Y-44.8
X95.5Y-46.8
X95.5Y-48.8
X95.5Y-50.6
X95.525Y-52.6
X95.525Y-54.6
X95.525Y-56.425
X95.55Y-58.425
X95.55Y-60.2
X95.55Y-62.2
X95.55Y-64.025
X95.933Y-98.111
X96.15Y-115.55
X96.3Y-88.9
X96.45Y-123.95
X96.5Y-131.125
X96.75Y-67.975
X96.775Y-105.775
X96.875Y-71.45
X97.05Y-41.575
X97.075Y-43.575
X97.075Y-45.575
X97.075Y-47.375
X97.1Y-49.375
X97.1Y-51.375
X97.1Y-53.2
X97.1Y-83.325
X97.125Y-55.2
X97.125Y-57.2
X97.125Y-60.8
X97.15Y-59.0
X97.15Y-62.8
X97.324Y-99.546
X97.425Y-111.75
X97.475Y-139.575
X97.6Y-74.8
X97.6Y-77.05
X97.6Y-79.4
X97.6Y-134.025
X97.825Y-115.55
X97.85Y-106.825
X98.05Y-90.925
X98.55Y-40.95
X98.55Y-42.975
X98.55Y-44.8
X98.575Y-46.8
X98.575Y-48.8
X98.575Y-50.6
X98.6Y-52.6
X98.6Y-54.6
X98.6Y-56.425
X98.6Y-58.225
X98.6Y-60.225
X98.6Y-62.05
X98.625Y-64.175
X98.775Y-102.55
X98.825Y-108.125
X98.875Y-110.075
X99.025Y-139.625
X99.075Y-92.45
X99.175Y-86.375
X99.275Y-81.35
X99.375Y-114.325
X99.375Y-115.725
X99.563Y-102.0
X99.575Y-103.15
X99.625Y-141.5
X100.15Y-43.575
X100.15Y-45.575
X100.15Y-47.375
X100.167Y-115.725
X100.175Y-49.375
X100.175Y-51.375
X100.175Y-53.2
X100.175Y-58.825
X100.175Y-62.775
X100.2Y-55.2
X100.2Y-57.2
X100.2Y-60.825
X100.225Y-93.35
X100.225Y-110.925
X100.575Y-129.625
X100.575Y-139.6
X100.6Y-67.975
X100.675Y-134.025
X100.7Y-131.675
X100.925Y-88.4
X100.958Y-115.725
X101.425Y-105.375
X101.575Y-64.225
X101.6Y-44.95
X101.6Y-46.75
X101.6Y-58.2
X101.6Y-146.5
X101.625Y-48.75
X101.625Y-54.575
X101.625Y-56.575
X101.75Y-115.725
X101.816Y-62.035
X101.912Y-78.263
X102.0Y-83.725
X102.05Y-114.35
X102.25Y-76.2
X102.25Y-95.65
X102.675Y-52.9
X102.7Y-151.0
X102.875Y-55.325
X102.875Y-57.325
X102.975Y-43.575
X102.975Y-45.6
X103.0Y-47.6
X103.1Y-90.825
X103.3Y-73.2
X103.3Y-93.75
X103.325Y-105.575
X103.425Y-41.1
X103.575Y-74.65
X103.75Y-53.15
X103.75Y-85.75
X103.8Y-64.1
X104.025Y-62.9
X104.025Y-105.575
X104.07Y-56.97
X104.2Y-67.6
X104.25Y-59.4
X104.3Y-145.7
X104.35Y-43.169
X104.35Y-44.3
X104.35Y-45.431
X104.35Y-46.562
X104.35Y-47.694
X104.4Y-79.725
X104.575Y-81.35
X104.725Y-142.475
X104.75Y-105.575
X104.8Y-54.262
X104.8Y-55.394
X104.8Y-56.525
X104.8Y-99.55
X104.875Y-102.6
X105.05Y-130.75
X105.175Y-78.95
X105.175Y-101.525
X105.325Y-65.575
X105.4Y-140.875
X105.425Y-73.2
X105.45Y-105.575
X105.475Y-133.6
X105.5Y-124.25
X105.7Y-127.05
X105.775Y-119.675
X105.8Y-122.05
X105.912Y-64.975
X105.925Y-88.175
X106.175Y-91.225
X106.325Y-83.375
X106.475Y-141.875
X106.5Y-94.175
X106.525Y-66.15
X106.925Y-103.7
X107.125Y-65.55
X107.225Y-53.125
X107.225Y-54.9
X107.375Y-114.8
X107.45Y-136.975
X107.6Y-132.7
X107.6Y-134.0
X107.675Y-43.194
X107.675Y-44.325
X107.675Y-45.456
X107.675Y-46.587
X107.675Y-47.719
X107.675Y-62.8
X107.675Y-107.475
X107.7Y-59.375
X107.75Y-41.1
X107.8Y-64.975
X107.8Y-68.05
X107.8Y-70.425
X107.8Y-73.275
X107.8Y-75.725
X107.85Y-99.275
X108.2Y-77.825
X108.25Y-91.425
X108.275Y-105.575
X108.3Y-53.125
X108.4Y-66.25
X108.525Y-84.875
X108.55Y-108.55
X108.775Y-115.975
X108.8Y-141.85
X108.9Y-54.6
X108.9Y-58.05
X109.137Y-99.363
X109.2Y-44.075
X109.2Y-45.9
X109.225Y-47.85
X109.225Y-123.55
X109.275Y-126.925
X109.309Y-135.459
X109.325Y-119.725
X109.375Y-59.0
X109.475Y-61.65
X109.5Y-89.5
X109.525Y-80.6
X109.7Y-50.7
X109.95Y-99.475
X110.175Y-128.525
X110.325Y-63.7
X110.529Y-98.885
X110.575Y-43.2
X110.575Y-45.2
X110.575Y-47.025
X110.6Y-48.975
X110.675Y-82.3
X110.725Y-50.8
X110.725Y-52.625
X110.75Y-54.575
X110.775Y-56.7
X110.825Y-97.45
X111.15Y-87.85
X111.15Y-90.625
X111.175Y-98.275
X111.45Y-141.075
X111.6Y-107.475
X111.625Y-104.575
X111.625Y-145.65
X111.65Y-146.625
X111.675Y-102.3
X111.75Y-64.175
X111.75Y-110.925
X111.825Y-75.875
X111.825Y-78.25
X111.825Y-81.1
X111.85Y-65.8
X111.85Y-68.175
X111.85Y-71.025
X111.85Y-73.475
X111.875Y-40.225
X111.875Y-42.025
X111.9Y-44.025
X111.9Y-46.025
X111.9Y-47.85
X111.925Y-49.8
X111.925Y-51.6
X111.95Y-53.6
X111.95Y-55.6
X111.975Y-126.925
X112.346Y-82.846
X112.375Y-117.525
X112.375Y-119.95
X112.375Y-122.325
X112.825Y-89.225
X113.2Y-83.8
X113.224Y-96.1
X113.243Y-96.957
X113.375Y-41.45
X113.375Y-43.45
X113.375Y-45.25
X113.375Y-85.175
X113.4Y-47.25
X113.4Y-49.25
X113.425Y-51.025
X113.425Y-53.025
X113.425Y-54.825
X113.45Y-56.825
X113.725Y-60.325
X113.725Y-115.7
X113.725Y-124.175
X113.725Y-131.4
X114.3Y-105.275
X114.45Y-96.975
X114.6Y-139.8
X114.7Y-90.0
X114.9Y-46.225
X114.9Y-134.35
X114.925Y-48.225
X114.925Y-50.225
X114.95Y-52.0
X115.525Y-107.475
X115.625Y-98.75
X116.05Y-139.8
X116.325Y-47.3
X116.325Y-115.925
X116.35Y-49.3
X116.35Y-51.3
X116.375Y-53.075
X116.631Y-61.998
X116.675Y-65.925
X116.675Y-68.4
X116.675Y-81.8
X116.675Y-84.4
X116.675Y-87.0
X116.775Y-95.075
X116.85Y-141.85
X116.881Y-60.925
X116.9Y-72.25
X117.0Y-101.4
X117.117Y-115.925
X117.225Y-76.025
X117.225Y-77.938
X117.225Y-79.85
X117.35Y-41.375
X117.45Y-139.8
X117.6Y-100.825
X117.75Y-134.275
X117.825Y-132.6
X117.908Y-115.925
X117.95Y-129.65
X117.981Y-58.85
X118.062Y-81.162
X118.225Y-101.975
X118.475Y-93.175
X118.525Y-48.575
X118.55Y-43.8
X118.7Y-115.925
X118.7Y-127.025
X118.75Y-139.8
X118.775Y-74.875
X118.956Y-57.05
X118.975Y-145.65
X119.0Y-146.575
X119.075Y-76.325
X119.2Y-84.375
X119.35Y-60.925
X119.575Y-95.1
X119.725Y-110.75
X119.819Y-41.375
X119.9Y-122.425
X119.925Y-119.975
X119.95Y-85.975
X119.95Y-89.15
X119.975Y-98.975
X120.075Y-82.175
X120.15Y-134.05
X120.275Y-80.025
X120.275Y-80.8
X120.325Y-97.475
X120.45Y-58.85
X120.5Y-65.875
X121.025Y-124.475
X121.225Y-103.05
X121.375Y-81.5
X121.425Y-57.05
X121.475Y-74.875
X121.5Y-117.55
X121.8Y-131.025
X121.819Y-60.925
X121.825Y-77.35
X121.875Y-142.75
X122.05Y-82.8
X122.25Y-93.175
X122.25Y-140.975
X122.287Y-41.375
X122.35Y-88.375
X122.35Y-90.9
X122.806Y-53.875
X122.825Y-103.25
X122.85Y-104.9
X122.919Y-58.85
X123.25Y-142.225
X123.325Y-126.9
X123.375Y-119.9
X123.375Y-122.275
X123.675Y-72.3
X123.7Y-70.475
X123.85Y-102.0
X123.894Y-57.05
X123.95Y-99.825
X124.0Y-88.375
X124.075Y-131.275
X124.175Y-74.875
X124.2Y-83.175
X124.287Y-60.925
X124.475Y-106.925
X124.756Y-41.375
X124.95Y-85.525
X125.275Y-53.875
X125.387Y-58.85
X125.431Y-51.175
X125.6Y-82.75
X125.975Y-88.2
X126.175Y-75.0
X126.2Y-146.575
X126.325Y-93.175
X126.362Y-57.05
X126.475Y-66.875
X126.5Y-70.0
X126.6Y-86.894
X126.7Y-103.125
X126.756Y-60.925
X126.975Y-144.475
X127.025Y-100.575
X127.225Y-41.375
X127.225Y-74.45
X127.425Y-95.65
X127.55Y-86.274
X127.55Y-87.6
X127.575Y-118.775
X127.625Y-129.925
X127.662Y-46.725
X127.7Y-116.125
X127.7Y-121.325
X127.725Y-124.175
X127.744Y-53.875
X127.856Y-58.85
X127.9Y-51.175
X127.9Y-105.6
X127.925Y-132.45
X127.925Y-135.275
X127.925Y-138.425
X128.025Y-147.05
X128.025Y-150.025
X128.025Y-153.0
X128.225Y-141.6
X128.399Y-84.649
X128.4Y-107.85
X128.4Y-110.65
X128.4Y-113.175
X128.625Y-126.525
X128.681Y-80.594
X128.75Y-101.4
X128.831Y-57.05
X128.85Y-87.625
X128.925Y-82.875
X129.088Y-49.175
X129.15Y-60.95
X129.25Y-70.0
X129.425Y-93.175
X129.6Y-77.375
X129.65Y-71.975
X129.675Y-74.425
X129.925Y-58.9
X130.131Y-46.725
X130.149Y-82.7
X130.213Y-53.875
X130.369Y-51.175
X130.376Y-68.058
X130.45Y-103.925
X130.725Y-119.025
X130.725Y-121.0
X130.975Y-132.4
X131.556Y-49.175
X131.649Y-89.15
X131.725Y-82.275
X131.95Y-96.775
X132.0Y-101.2
X132.3Y-105.625
X132.35Y-76.5
X132.6Y-46.725
X132.675Y-87.575
X132.681Y-53.875
X132.838Y-51.175
X132.975Y-142.025
X133.0Y-89.875
X133.275Y-126.625
X133.3Y-129.3
X133.55Y-81.35
X133.574Y-87.349
X133.725Y-91.9
X134.025Y-49.175
X134.625Y-96.725
X134.625Y-101.15
T2
X69.4Y-44.55
X69.4Y-47.028
X69.4Y-49.506
X69.4Y-51.984
X69.4Y-54.462
X69.4Y-56.94
X69.4Y-59.418
X69.4Y-61.896
X69.4Y-64.374
X69.4Y-66.852
X69.4Y-69.33
X69.4Y-71.808
X69.4Y-74.286
X69.4Y-76.764
X69.4Y-79.242
X69.4Y-81.72
X69.4Y-84.198
X69.4Y-86.676
X69.4Y-89.154
X69.4Y-91.632
X69.4Y-94.11
X69.4Y-96.587
X69.4Y-99.065
X69.4Y-101.543
X69.4Y-104.021
X69.4Y-106.499
X69.4Y-108.977
X69.4Y-111.455
X69.4Y-113.933
X69.4Y-116.411
X69.4Y-118.889
X69.4Y-121.367
X69.4Y-123.845
X69.4Y-126.323
X69.4Y-128.801
X69.4Y-131.279
X69.4Y-133.757
X69.4Y-136.235
X69.4Y-138.713
X69.4Y-141.191
X69.4Y-143.669
X69.4Y-146.147
X69.4Y-148.625
X75.745Y-38.125
X75.91Y-155.475
X78.223Y-38.125
X78.25Y-152.35
X78.388Y-155.475
X80.865Y-155.475
X83.343Y-155.475
X85.821Y-155.475
X88.299Y-155.475
X89.222Y-135.587
X89.222Y-139.912
X90.777Y-155.475
X93.09Y-38.125
X93.255Y-155.475
X95.568Y-38.125
X95.733Y-155.475
X98.046Y-38.125
X98.211Y-155.475
X100.689Y-155.475
X103.167Y-155.475
X105.645Y-155.475
X106.675Y-135.75
X106.675Y-140.2
X108.123Y-155.475
X110.601Y-155.475
X112.914Y-38.125
X113.079Y-155.475
X115.392Y-38.125
X115.557Y-155.475
X117.87Y-38.125
X118.035Y-155.475
X120.348Y-38.125
X120.513Y-155.475
X122.826Y-38.125
X122.991Y-155.475
X123.725Y-136.15
X123.725Y-140.525
X125.304Y-38.125
X125.469Y-155.475
X127.782Y-38.125
X127.947Y-155.475
X130.26Y-38.125
X130.425Y-155.475
X136.675Y-44.95
X136.675Y-47.428
X136.675Y-49.906
X136.675Y-52.384
X136.675Y-54.862
X136.675Y-57.34
X136.675Y-59.818
X136.675Y-64.774
X136.675Y-67.252
X136.675Y-72.208
X136.675Y-74.686
X136.675Y-77.164
X136.675Y-79.642
X136.675Y-82.12
X136.675Y-84.598
X136.675Y-87.076
X136.675Y-92.032
X136.675Y-94.51
X136.675Y-96.987
X136.675Y-99.465
X136.675Y-101.943
X136.675Y-109.377
X136.675Y-111.855
X136.675Y-114.333
X136.675Y-116.811
X136.675Y-119.289
X136.675Y-121.767
X136.675Y-124.245
X136.675Y-126.723
X136.675Y-129.201
X136.675Y-131.679
X136.675Y-134.157
X136.675Y-136.635
X136.675Y-139.113
X136.675Y-141.591
X136.675Y-144.069
X136.675Y-146.547
X136.675Y-149.025
T3
X70.634Y-41.691
X70.634Y-151.977
X71.337Y-39.994
X71.337Y-43.388
X71.337Y-150.28
X71.337Y-153.674
X73.034Y-39.291
X73.034Y-44.091
X73.034Y-149.577
X73.034Y-154.377
X74.731Y-39.994
X74.731Y-43.388
X74.731Y-150.28
X74.731Y-153.674
X75.434Y-41.691
X75.434Y-151.977
X130.73Y-151.927
X130.781Y-41.691
X131.433Y-150.23
X131.433Y-153.624
X131.484Y-39.994
X131.484Y-43.388
X133.13Y-149.527
X133.13Y-154.327
X133.181Y-39.291
X133.181Y-44.091
X134.827Y-150.23
X134.827Y-153.624
X134.878Y-39.994
X134.878Y-43.388
X135.53Y-151.927
X135.581Y-41.691
T5
X118.458Y-46.36
X120.958Y-46.36
X123.458Y-46.36
X125.958Y-46.36
X131.017Y-109.475
X131.017Y-111.975
X131.017Y-114.475
X131.017Y-116.975
X131.017Y-122.725
X131.017Y-125.225
X131.017Y-127.725
X131.017Y-130.225
X131.025Y-137.075
X131.025Y-139.575
X131.025Y-142.075
X131.025Y-144.575
T6
X82.8Y-148.475
X82.8Y-151.015
X82.8Y-153.555
X86.499Y-148.472
X86.499Y-151.012
X86.499Y-153.552
X90.232Y-148.472
X90.232Y-151.012
X90.232Y-153.552
X93.966Y-148.472
X93.966Y-151.012
X93.966Y-153.552
X97.7Y-148.472
X97.7Y-151.012
X97.7Y-153.552
X107.895Y-110.125
X107.925Y-112.95
X110.435Y-110.125
X110.465Y-112.95
X112.975Y-110.125
X113.005Y-112.95
X115.515Y-110.125
X115.545Y-112.95
X118.085Y-112.95
X120.625Y-112.95
T7
X105.95Y-151.706
X109.45Y-151.706
X113.191Y-151.706
X116.691Y-151.706
X120.425Y-151.7
X123.925Y-151.7
T8
X78.525Y-85.3
X78.525Y-92.5
X78.575Y-102.05
X78.575Y-109.25
T9
X73.034Y-41.691
X73.034Y-151.977
X133.13Y-151.927
X133.181Y-41.691
T4
G00X71.975Y-82.15
M15
G01X73.075Y-82.15
M16
G05
G00X71.975Y-95.65
M15
G01X73.075Y-95.65
M16
G05
G00X72.025Y-98.9
M15
G01X73.125Y-98.9
M16
G05
G00X72.025Y-112.4
M15
G01X73.125Y-112.4
M16
G05
G00X131.545Y-61.48
M15
G01X132.645Y-61.48
M16
G05
G00X131.545Y-70.12
M15
G01X132.645Y-70.12
M16
G05
G00X135.975Y-61.48
M15
G01X136.575Y-61.48
M16
G05
G00X135.975Y-70.12
M15
G01X136.575Y-70.12
M16
G05
M30
