%TF.GenerationSoftware,KiCad,Pcbnew,10.0.2*%
%TF.CreationDate,2026-05-17T14:06:41+02:00*%
%TF.ProjectId,Amon_board,416d6f6e-5f62-46f6-9172-642e6b696361,2.2*%
%TF.SameCoordinates,Original*%
%TF.FileFunction,Legend,Bot*%
%TF.FilePolarity,Positive*%
%FSLAX46Y46*%
G04 Gerber Fmt 4.6, Leading zero omitted, Abs format (unit mm)*
G04 Created by KiCad (PCBNEW 10.0.2) date 2026-05-17 14:06:41*
%MOMM*%
%LPD*%
G01*
G04 APERTURE LIST*
G04 Aperture macros list*
%AMRoundRect*
0 Rectangle with rounded corners*
0 $1 Rounding radius*
0 $2 $3 $4 $5 $6 $7 $8 $9 X,Y pos of 4 corners*
0 Add a 4 corners polygon primitive as box body*
4,1,4,$2,$3,$4,$5,$6,$7,$8,$9,$2,$3,0*
0 Add four circle primitives for the rounded corners*
1,1,$1+$1,$2,$3*
1,1,$1+$1,$4,$5*
1,1,$1+$1,$6,$7*
1,1,$1+$1,$8,$9*
0 Add four rect primitives between the rounded corners*
20,1,$1+$1,$2,$3,$4,$5,0*
20,1,$1+$1,$4,$5,$6,$7,0*
20,1,$1+$1,$6,$7,$8,$9,0*
20,1,$1+$1,$8,$9,$2,$3,0*%
G04 Aperture macros list end*
%ADD10C,0.200000*%
%ADD11C,0.300000*%
%ADD12R,1.700000X1.700000*%
%ADD13O,1.700000X1.700000*%
%ADD14RoundRect,0.250000X-0.725000X0.600000X-0.725000X-0.600000X0.725000X-0.600000X0.725000X0.600000X0*%
%ADD15O,1.950000X1.700000*%
%ADD16RoundRect,0.250000X0.600000X0.725000X-0.600000X0.725000X-0.600000X-0.725000X0.600000X-0.725000X0*%
%ADD17O,1.700000X1.950000*%
%ADD18O,1.600000X1.000000*%
%ADD19C,0.650000*%
%ADD20O,2.100000X1.000000*%
%ADD21C,0.800000*%
%ADD22C,6.400000*%
%ADD23R,1.500000X5.080000*%
%ADD24RoundRect,0.250001X-0.899999X-0.899999X0.899999X-0.899999X0.899999X0.899999X-0.899999X0.899999X0*%
%ADD25C,2.300000*%
%ADD26R,2.000000X0.900000*%
%ADD27RoundRect,1.025000X1.025000X-1.025000X1.025000X1.025000X-1.025000X1.025000X-1.025000X-1.025000X0*%
%ADD28C,4.100000*%
G04 APERTURE END LIST*
D10*
X129164732Y-109977219D02*
X129039732Y-108977219D01*
X129039732Y-108977219D02*
X128795684Y-109691504D01*
X128795684Y-109691504D02*
X128373065Y-108977219D01*
X128373065Y-108977219D02*
X128498065Y-109977219D01*
X127706398Y-108977219D02*
X127515922Y-108977219D01*
X127515922Y-108977219D02*
X127426637Y-109024838D01*
X127426637Y-109024838D02*
X127343303Y-109120076D01*
X127343303Y-109120076D02*
X127319494Y-109310552D01*
X127319494Y-109310552D02*
X127361160Y-109643885D01*
X127361160Y-109643885D02*
X127432589Y-109834361D01*
X127432589Y-109834361D02*
X127539732Y-109929600D01*
X127539732Y-109929600D02*
X127640922Y-109977219D01*
X127640922Y-109977219D02*
X127831398Y-109977219D01*
X127831398Y-109977219D02*
X127920684Y-109929600D01*
X127920684Y-109929600D02*
X128004018Y-109834361D01*
X128004018Y-109834361D02*
X128027827Y-109643885D01*
X128027827Y-109643885D02*
X127986160Y-109310552D01*
X127986160Y-109310552D02*
X127914732Y-109120076D01*
X127914732Y-109120076D02*
X127807589Y-109024838D01*
X127807589Y-109024838D02*
X127706398Y-108977219D01*
X126992113Y-108977219D02*
X126420684Y-108977219D01*
X126831399Y-109977219D02*
X126706399Y-108977219D01*
X128585610Y-112478449D02*
X128859420Y-112002258D01*
X129157039Y-112478449D02*
X129032039Y-111478449D01*
X129032039Y-111478449D02*
X128651086Y-111478449D01*
X128651086Y-111478449D02*
X128561801Y-111526068D01*
X128561801Y-111526068D02*
X128520134Y-111573687D01*
X128520134Y-111573687D02*
X128484420Y-111668925D01*
X128484420Y-111668925D02*
X128502277Y-111811782D01*
X128502277Y-111811782D02*
X128561801Y-111907020D01*
X128561801Y-111907020D02*
X128615372Y-111954639D01*
X128615372Y-111954639D02*
X128716562Y-112002258D01*
X128716562Y-112002258D02*
X129097515Y-112002258D01*
X128198705Y-112430830D02*
X128061801Y-112478449D01*
X128061801Y-112478449D02*
X127823705Y-112478449D01*
X127823705Y-112478449D02*
X127722515Y-112430830D01*
X127722515Y-112430830D02*
X127668943Y-112383210D01*
X127668943Y-112383210D02*
X127609420Y-112287972D01*
X127609420Y-112287972D02*
X127597515Y-112192734D01*
X127597515Y-112192734D02*
X127633229Y-112097496D01*
X127633229Y-112097496D02*
X127674896Y-112049877D01*
X127674896Y-112049877D02*
X127764182Y-112002258D01*
X127764182Y-112002258D02*
X127948705Y-111954639D01*
X127948705Y-111954639D02*
X128037991Y-111907020D01*
X128037991Y-111907020D02*
X128079658Y-111859401D01*
X128079658Y-111859401D02*
X128115372Y-111764163D01*
X128115372Y-111764163D02*
X128103467Y-111668925D01*
X128103467Y-111668925D02*
X128043943Y-111573687D01*
X128043943Y-111573687D02*
X127990372Y-111526068D01*
X127990372Y-111526068D02*
X127889182Y-111478449D01*
X127889182Y-111478449D02*
X127651086Y-111478449D01*
X127651086Y-111478449D02*
X127514182Y-111526068D01*
X127222515Y-111478449D02*
X126651086Y-111478449D01*
X127061801Y-112478449D02*
X126936801Y-111478449D01*
X128581399Y-114806980D02*
X128634971Y-114854600D01*
X128634971Y-114854600D02*
X128783780Y-114902219D01*
X128783780Y-114902219D02*
X128879018Y-114902219D01*
X128879018Y-114902219D02*
X129015923Y-114854600D01*
X129015923Y-114854600D02*
X129099256Y-114759361D01*
X129099256Y-114759361D02*
X129134971Y-114664123D01*
X129134971Y-114664123D02*
X129158780Y-114473647D01*
X129158780Y-114473647D02*
X129140923Y-114330790D01*
X129140923Y-114330790D02*
X129069495Y-114140314D01*
X129069495Y-114140314D02*
X129009971Y-114045076D01*
X129009971Y-114045076D02*
X128902828Y-113949838D01*
X128902828Y-113949838D02*
X128754018Y-113902219D01*
X128754018Y-113902219D02*
X128658780Y-113902219D01*
X128658780Y-113902219D02*
X128521876Y-113949838D01*
X128521876Y-113949838D02*
X128480209Y-113997457D01*
X128206399Y-114854600D02*
X128069495Y-114902219D01*
X128069495Y-114902219D02*
X127831399Y-114902219D01*
X127831399Y-114902219D02*
X127730209Y-114854600D01*
X127730209Y-114854600D02*
X127676637Y-114806980D01*
X127676637Y-114806980D02*
X127617114Y-114711742D01*
X127617114Y-114711742D02*
X127605209Y-114616504D01*
X127605209Y-114616504D02*
X127640923Y-114521266D01*
X127640923Y-114521266D02*
X127682590Y-114473647D01*
X127682590Y-114473647D02*
X127771876Y-114426028D01*
X127771876Y-114426028D02*
X127956399Y-114378409D01*
X127956399Y-114378409D02*
X128045685Y-114330790D01*
X128045685Y-114330790D02*
X128087352Y-114283171D01*
X128087352Y-114283171D02*
X128123066Y-114187933D01*
X128123066Y-114187933D02*
X128111161Y-114092695D01*
X128111161Y-114092695D02*
X128051637Y-113997457D01*
X128051637Y-113997457D02*
X127998066Y-113949838D01*
X127998066Y-113949838D02*
X127896876Y-113902219D01*
X127896876Y-113902219D02*
X127658780Y-113902219D01*
X127658780Y-113902219D02*
X127521876Y-113949838D01*
X127462352Y-114997457D02*
X126700447Y-114997457D01*
X126134970Y-113902219D02*
X125944494Y-113902219D01*
X125944494Y-113902219D02*
X125855209Y-113949838D01*
X125855209Y-113949838D02*
X125771875Y-114045076D01*
X125771875Y-114045076D02*
X125748066Y-114235552D01*
X125748066Y-114235552D02*
X125789732Y-114568885D01*
X125789732Y-114568885D02*
X125861161Y-114759361D01*
X125861161Y-114759361D02*
X125968304Y-114854600D01*
X125968304Y-114854600D02*
X126069494Y-114902219D01*
X126069494Y-114902219D02*
X126259970Y-114902219D01*
X126259970Y-114902219D02*
X126349256Y-114854600D01*
X126349256Y-114854600D02*
X126432590Y-114759361D01*
X126432590Y-114759361D02*
X126456399Y-114568885D01*
X126456399Y-114568885D02*
X126414732Y-114235552D01*
X126414732Y-114235552D02*
X126343304Y-114045076D01*
X126343304Y-114045076D02*
X126236161Y-113949838D01*
X126236161Y-113949838D02*
X126134970Y-113902219D01*
X125004018Y-114378409D02*
X125337351Y-114378409D01*
X125402828Y-114902219D02*
X125277828Y-113902219D01*
X125277828Y-113902219D02*
X124801637Y-113902219D01*
X129164732Y-117468819D02*
X129039732Y-116468819D01*
X129039732Y-116468819D02*
X128795684Y-117183104D01*
X128795684Y-117183104D02*
X128373065Y-116468819D01*
X128373065Y-116468819D02*
X128498065Y-117468819D01*
X128021875Y-117468819D02*
X127896875Y-116468819D01*
X127587351Y-117421200D02*
X127450447Y-117468819D01*
X127450447Y-117468819D02*
X127212351Y-117468819D01*
X127212351Y-117468819D02*
X127111161Y-117421200D01*
X127111161Y-117421200D02*
X127057589Y-117373580D01*
X127057589Y-117373580D02*
X126998066Y-117278342D01*
X126998066Y-117278342D02*
X126986161Y-117183104D01*
X126986161Y-117183104D02*
X127021875Y-117087866D01*
X127021875Y-117087866D02*
X127063542Y-117040247D01*
X127063542Y-117040247D02*
X127152828Y-116992628D01*
X127152828Y-116992628D02*
X127337351Y-116945009D01*
X127337351Y-116945009D02*
X127426637Y-116897390D01*
X127426637Y-116897390D02*
X127468304Y-116849771D01*
X127468304Y-116849771D02*
X127504018Y-116754533D01*
X127504018Y-116754533D02*
X127492113Y-116659295D01*
X127492113Y-116659295D02*
X127432589Y-116564057D01*
X127432589Y-116564057D02*
X127379018Y-116516438D01*
X127379018Y-116516438D02*
X127277828Y-116468819D01*
X127277828Y-116468819D02*
X127039732Y-116468819D01*
X127039732Y-116468819D02*
X126902828Y-116516438D01*
X126277827Y-116468819D02*
X126087351Y-116468819D01*
X126087351Y-116468819D02*
X125998066Y-116516438D01*
X125998066Y-116516438D02*
X125914732Y-116611676D01*
X125914732Y-116611676D02*
X125890923Y-116802152D01*
X125890923Y-116802152D02*
X125932589Y-117135485D01*
X125932589Y-117135485D02*
X126004018Y-117325961D01*
X126004018Y-117325961D02*
X126111161Y-117421200D01*
X126111161Y-117421200D02*
X126212351Y-117468819D01*
X126212351Y-117468819D02*
X126402827Y-117468819D01*
X126402827Y-117468819D02*
X126492113Y-117421200D01*
X126492113Y-117421200D02*
X126575447Y-117325961D01*
X126575447Y-117325961D02*
X126599256Y-117135485D01*
X126599256Y-117135485D02*
X126557589Y-116802152D01*
X126557589Y-116802152D02*
X126486161Y-116611676D01*
X126486161Y-116611676D02*
X126379018Y-116516438D01*
X126379018Y-116516438D02*
X126277827Y-116468819D01*
X128581399Y-123131980D02*
X128634971Y-123179600D01*
X128634971Y-123179600D02*
X128783780Y-123227219D01*
X128783780Y-123227219D02*
X128879018Y-123227219D01*
X128879018Y-123227219D02*
X129015923Y-123179600D01*
X129015923Y-123179600D02*
X129099256Y-123084361D01*
X129099256Y-123084361D02*
X129134971Y-122989123D01*
X129134971Y-122989123D02*
X129158780Y-122798647D01*
X129158780Y-122798647D02*
X129140923Y-122655790D01*
X129140923Y-122655790D02*
X129069495Y-122465314D01*
X129069495Y-122465314D02*
X129009971Y-122370076D01*
X129009971Y-122370076D02*
X128902828Y-122274838D01*
X128902828Y-122274838D02*
X128754018Y-122227219D01*
X128754018Y-122227219D02*
X128658780Y-122227219D01*
X128658780Y-122227219D02*
X128521876Y-122274838D01*
X128521876Y-122274838D02*
X128480209Y-122322457D01*
X127688542Y-123227219D02*
X128164733Y-123227219D01*
X128164733Y-123227219D02*
X128039733Y-122227219D01*
X127355209Y-123227219D02*
X127230209Y-122227219D01*
X126783780Y-123227219D02*
X127140923Y-122655790D01*
X126658780Y-122227219D02*
X127301637Y-122798647D01*
X129164732Y-125668819D02*
X129039732Y-124668819D01*
X129039732Y-124668819D02*
X128795684Y-125383104D01*
X128795684Y-125383104D02*
X128373065Y-124668819D01*
X128373065Y-124668819D02*
X128498065Y-125668819D01*
X127706398Y-124668819D02*
X127515922Y-124668819D01*
X127515922Y-124668819D02*
X127426637Y-124716438D01*
X127426637Y-124716438D02*
X127343303Y-124811676D01*
X127343303Y-124811676D02*
X127319494Y-125002152D01*
X127319494Y-125002152D02*
X127361160Y-125335485D01*
X127361160Y-125335485D02*
X127432589Y-125525961D01*
X127432589Y-125525961D02*
X127539732Y-125621200D01*
X127539732Y-125621200D02*
X127640922Y-125668819D01*
X127640922Y-125668819D02*
X127831398Y-125668819D01*
X127831398Y-125668819D02*
X127920684Y-125621200D01*
X127920684Y-125621200D02*
X128004018Y-125525961D01*
X128004018Y-125525961D02*
X128027827Y-125335485D01*
X128027827Y-125335485D02*
X127986160Y-125002152D01*
X127986160Y-125002152D02*
X127914732Y-124811676D01*
X127914732Y-124811676D02*
X127807589Y-124716438D01*
X127807589Y-124716438D02*
X127706398Y-124668819D01*
X127015922Y-125621200D02*
X126879018Y-125668819D01*
X126879018Y-125668819D02*
X126640922Y-125668819D01*
X126640922Y-125668819D02*
X126539732Y-125621200D01*
X126539732Y-125621200D02*
X126486160Y-125573580D01*
X126486160Y-125573580D02*
X126426637Y-125478342D01*
X126426637Y-125478342D02*
X126414732Y-125383104D01*
X126414732Y-125383104D02*
X126450446Y-125287866D01*
X126450446Y-125287866D02*
X126492113Y-125240247D01*
X126492113Y-125240247D02*
X126581399Y-125192628D01*
X126581399Y-125192628D02*
X126765922Y-125145009D01*
X126765922Y-125145009D02*
X126855208Y-125097390D01*
X126855208Y-125097390D02*
X126896875Y-125049771D01*
X126896875Y-125049771D02*
X126932589Y-124954533D01*
X126932589Y-124954533D02*
X126920684Y-124859295D01*
X126920684Y-124859295D02*
X126861160Y-124764057D01*
X126861160Y-124764057D02*
X126807589Y-124716438D01*
X126807589Y-124716438D02*
X126706399Y-124668819D01*
X126706399Y-124668819D02*
X126468303Y-124668819D01*
X126468303Y-124668819D02*
X126331399Y-124716438D01*
X126021875Y-125668819D02*
X125896875Y-124668819D01*
X128521875Y-127349838D02*
X128611160Y-127302219D01*
X128611160Y-127302219D02*
X128754017Y-127302219D01*
X128754017Y-127302219D02*
X128902827Y-127349838D01*
X128902827Y-127349838D02*
X129009970Y-127445076D01*
X129009970Y-127445076D02*
X129069494Y-127540314D01*
X129069494Y-127540314D02*
X129140922Y-127730790D01*
X129140922Y-127730790D02*
X129158779Y-127873647D01*
X129158779Y-127873647D02*
X129134970Y-128064123D01*
X129134970Y-128064123D02*
X129099255Y-128159361D01*
X129099255Y-128159361D02*
X129015922Y-128254600D01*
X129015922Y-128254600D02*
X128879017Y-128302219D01*
X128879017Y-128302219D02*
X128783779Y-128302219D01*
X128783779Y-128302219D02*
X128634970Y-128254600D01*
X128634970Y-128254600D02*
X128581398Y-128206980D01*
X128581398Y-128206980D02*
X128539732Y-127873647D01*
X128539732Y-127873647D02*
X128730208Y-127873647D01*
X128164732Y-128302219D02*
X128039732Y-127302219D01*
X128039732Y-127302219D02*
X127593303Y-128302219D01*
X127593303Y-128302219D02*
X127468303Y-127302219D01*
X127117113Y-128302219D02*
X126992113Y-127302219D01*
X126992113Y-127302219D02*
X126754017Y-127302219D01*
X126754017Y-127302219D02*
X126617113Y-127349838D01*
X126617113Y-127349838D02*
X126533779Y-127445076D01*
X126533779Y-127445076D02*
X126498065Y-127540314D01*
X126498065Y-127540314D02*
X126474256Y-127730790D01*
X126474256Y-127730790D02*
X126492113Y-127873647D01*
X126492113Y-127873647D02*
X126563541Y-128064123D01*
X126563541Y-128064123D02*
X126623065Y-128159361D01*
X126623065Y-128159361D02*
X126730208Y-128254600D01*
X126730208Y-128254600D02*
X126879017Y-128302219D01*
X126879017Y-128302219D02*
X127117113Y-128302219D01*
X129134970Y-129818819D02*
X128515922Y-129818819D01*
X128515922Y-129818819D02*
X128896875Y-130199771D01*
X128896875Y-130199771D02*
X128754017Y-130199771D01*
X128754017Y-130199771D02*
X128664732Y-130247390D01*
X128664732Y-130247390D02*
X128623065Y-130295009D01*
X128623065Y-130295009D02*
X128587351Y-130390247D01*
X128587351Y-130390247D02*
X128617113Y-130628342D01*
X128617113Y-130628342D02*
X128676636Y-130723580D01*
X128676636Y-130723580D02*
X128730208Y-130771200D01*
X128730208Y-130771200D02*
X128831398Y-130818819D01*
X128831398Y-130818819D02*
X129117113Y-130818819D01*
X129117113Y-130818819D02*
X129206398Y-130771200D01*
X129206398Y-130771200D02*
X129248065Y-130723580D01*
X128230208Y-129818819D02*
X128021874Y-130818819D01*
X128021874Y-130818819D02*
X127563541Y-129818819D01*
X127325446Y-129818819D02*
X126706398Y-129818819D01*
X126706398Y-129818819D02*
X127087351Y-130199771D01*
X127087351Y-130199771D02*
X126944493Y-130199771D01*
X126944493Y-130199771D02*
X126855208Y-130247390D01*
X126855208Y-130247390D02*
X126813541Y-130295009D01*
X126813541Y-130295009D02*
X126777827Y-130390247D01*
X126777827Y-130390247D02*
X126807589Y-130628342D01*
X126807589Y-130628342D02*
X126867112Y-130723580D01*
X126867112Y-130723580D02*
X126920684Y-130771200D01*
X126920684Y-130771200D02*
X127021874Y-130818819D01*
X127021874Y-130818819D02*
X127307589Y-130818819D01*
X127307589Y-130818819D02*
X127396874Y-130771200D01*
X127396874Y-130771200D02*
X127438541Y-130723580D01*
X108565866Y-147777219D02*
X108839676Y-147301028D01*
X109137295Y-147777219D02*
X109012295Y-146777219D01*
X109012295Y-146777219D02*
X108631342Y-146777219D01*
X108631342Y-146777219D02*
X108542057Y-146824838D01*
X108542057Y-146824838D02*
X108500390Y-146872457D01*
X108500390Y-146872457D02*
X108464676Y-146967695D01*
X108464676Y-146967695D02*
X108482533Y-147110552D01*
X108482533Y-147110552D02*
X108542057Y-147205790D01*
X108542057Y-147205790D02*
X108595628Y-147253409D01*
X108595628Y-147253409D02*
X108696818Y-147301028D01*
X108696818Y-147301028D02*
X109077771Y-147301028D01*
X107750390Y-147729600D02*
X107851580Y-147777219D01*
X107851580Y-147777219D02*
X108042057Y-147777219D01*
X108042057Y-147777219D02*
X108131342Y-147729600D01*
X108131342Y-147729600D02*
X108167057Y-147634361D01*
X108167057Y-147634361D02*
X108119438Y-147253409D01*
X108119438Y-147253409D02*
X108059914Y-147158171D01*
X108059914Y-147158171D02*
X107958723Y-147110552D01*
X107958723Y-147110552D02*
X107768247Y-147110552D01*
X107768247Y-147110552D02*
X107678961Y-147158171D01*
X107678961Y-147158171D02*
X107643247Y-147253409D01*
X107643247Y-147253409D02*
X107655152Y-147348647D01*
X107655152Y-147348647D02*
X108143247Y-147443885D01*
X106851580Y-147777219D02*
X106726580Y-146777219D01*
X106845628Y-147729600D02*
X106946818Y-147777219D01*
X106946818Y-147777219D02*
X107137295Y-147777219D01*
X107137295Y-147777219D02*
X107226580Y-147729600D01*
X107226580Y-147729600D02*
X107268247Y-147681980D01*
X107268247Y-147681980D02*
X107303961Y-147586742D01*
X107303961Y-147586742D02*
X107268247Y-147301028D01*
X107268247Y-147301028D02*
X107208723Y-147205790D01*
X107208723Y-147205790D02*
X107155152Y-147158171D01*
X107155152Y-147158171D02*
X107053961Y-147110552D01*
X107053961Y-147110552D02*
X106863485Y-147110552D01*
X106863485Y-147110552D02*
X106774199Y-147158171D01*
X116814285Y-146727219D02*
X116701190Y-147727219D01*
X116701190Y-147727219D02*
X116421428Y-147012933D01*
X116421428Y-147012933D02*
X116320237Y-147727219D01*
X116320237Y-147727219D02*
X115957142Y-146727219D01*
X115701190Y-147727219D02*
X115576190Y-146727219D01*
X115272618Y-147727219D02*
X115207142Y-147203409D01*
X115207142Y-147203409D02*
X115242856Y-147108171D01*
X115242856Y-147108171D02*
X115332142Y-147060552D01*
X115332142Y-147060552D02*
X115474999Y-147060552D01*
X115474999Y-147060552D02*
X115576190Y-147108171D01*
X115576190Y-147108171D02*
X115629761Y-147155790D01*
X114796428Y-147727219D02*
X114713094Y-147060552D01*
X114671428Y-146727219D02*
X114724999Y-146774838D01*
X114724999Y-146774838D02*
X114683332Y-146822457D01*
X114683332Y-146822457D02*
X114629761Y-146774838D01*
X114629761Y-146774838D02*
X114671428Y-146727219D01*
X114671428Y-146727219D02*
X114683332Y-146822457D01*
X114379761Y-147060552D02*
X113998809Y-147060552D01*
X114195238Y-146727219D02*
X114302381Y-147584361D01*
X114302381Y-147584361D02*
X114266666Y-147679600D01*
X114266666Y-147679600D02*
X114177381Y-147727219D01*
X114177381Y-147727219D02*
X114082142Y-147727219D01*
X113361904Y-147679600D02*
X113463094Y-147727219D01*
X113463094Y-147727219D02*
X113653571Y-147727219D01*
X113653571Y-147727219D02*
X113742856Y-147679600D01*
X113742856Y-147679600D02*
X113778571Y-147584361D01*
X113778571Y-147584361D02*
X113730952Y-147203409D01*
X113730952Y-147203409D02*
X113671428Y-147108171D01*
X113671428Y-147108171D02*
X113570237Y-147060552D01*
X113570237Y-147060552D02*
X113379761Y-147060552D01*
X113379761Y-147060552D02*
X113290475Y-147108171D01*
X113290475Y-147108171D02*
X113254761Y-147203409D01*
X113254761Y-147203409D02*
X113266666Y-147298647D01*
X113266666Y-147298647D02*
X113754761Y-147393885D01*
X123483332Y-147541504D02*
X123007142Y-147541504D01*
X123614285Y-147827219D02*
X123155951Y-146827219D01*
X123155951Y-146827219D02*
X122947618Y-147827219D01*
X122489285Y-146827219D02*
X122590475Y-147636742D01*
X122590475Y-147636742D02*
X122554761Y-147731980D01*
X122554761Y-147731980D02*
X122513094Y-147779600D01*
X122513094Y-147779600D02*
X122423808Y-147827219D01*
X122423808Y-147827219D02*
X122233332Y-147827219D01*
X122233332Y-147827219D02*
X122132142Y-147779600D01*
X122132142Y-147779600D02*
X122078570Y-147731980D01*
X122078570Y-147731980D02*
X122019047Y-147636742D01*
X122019047Y-147636742D02*
X121917856Y-146827219D01*
X121536904Y-146827219D02*
X120995237Y-147827219D01*
X120870237Y-146827219D02*
X121661904Y-147827219D01*
X128488523Y-141619638D02*
X128577808Y-141572019D01*
X128577808Y-141572019D02*
X128720665Y-141572019D01*
X128720665Y-141572019D02*
X128869475Y-141619638D01*
X128869475Y-141619638D02*
X128976618Y-141714876D01*
X128976618Y-141714876D02*
X129036142Y-141810114D01*
X129036142Y-141810114D02*
X129107570Y-142000590D01*
X129107570Y-142000590D02*
X129125427Y-142143447D01*
X129125427Y-142143447D02*
X129101618Y-142333923D01*
X129101618Y-142333923D02*
X129065903Y-142429161D01*
X129065903Y-142429161D02*
X128982570Y-142524400D01*
X128982570Y-142524400D02*
X128845665Y-142572019D01*
X128845665Y-142572019D02*
X128750427Y-142572019D01*
X128750427Y-142572019D02*
X128601618Y-142524400D01*
X128601618Y-142524400D02*
X128548046Y-142476780D01*
X128548046Y-142476780D02*
X128506380Y-142143447D01*
X128506380Y-142143447D02*
X128696856Y-142143447D01*
X128131380Y-142572019D02*
X128006380Y-141572019D01*
X128006380Y-141572019D02*
X127559951Y-142572019D01*
X127559951Y-142572019D02*
X127434951Y-141572019D01*
X127083761Y-142572019D02*
X126958761Y-141572019D01*
X126958761Y-141572019D02*
X126720665Y-141572019D01*
X126720665Y-141572019D02*
X126583761Y-141619638D01*
X126583761Y-141619638D02*
X126500427Y-141714876D01*
X126500427Y-141714876D02*
X126464713Y-141810114D01*
X126464713Y-141810114D02*
X126440904Y-142000590D01*
X126440904Y-142000590D02*
X126458761Y-142143447D01*
X126458761Y-142143447D02*
X126530189Y-142333923D01*
X126530189Y-142333923D02*
X126589713Y-142429161D01*
X126589713Y-142429161D02*
X126696856Y-142524400D01*
X126696856Y-142524400D02*
X126845665Y-142572019D01*
X126845665Y-142572019D02*
X127083761Y-142572019D01*
X128958761Y-144213619D02*
X128339713Y-144213619D01*
X128339713Y-144213619D02*
X128720666Y-144594571D01*
X128720666Y-144594571D02*
X128577808Y-144594571D01*
X128577808Y-144594571D02*
X128488523Y-144642190D01*
X128488523Y-144642190D02*
X128446856Y-144689809D01*
X128446856Y-144689809D02*
X128411142Y-144785047D01*
X128411142Y-144785047D02*
X128440904Y-145023142D01*
X128440904Y-145023142D02*
X128500427Y-145118380D01*
X128500427Y-145118380D02*
X128553999Y-145166000D01*
X128553999Y-145166000D02*
X128655189Y-145213619D01*
X128655189Y-145213619D02*
X128940904Y-145213619D01*
X128940904Y-145213619D02*
X129030189Y-145166000D01*
X129030189Y-145166000D02*
X129071856Y-145118380D01*
X128053999Y-144213619D02*
X127845665Y-145213619D01*
X127845665Y-145213619D02*
X127387332Y-144213619D01*
X127149237Y-144213619D02*
X126530189Y-144213619D01*
X126530189Y-144213619D02*
X126911142Y-144594571D01*
X126911142Y-144594571D02*
X126768284Y-144594571D01*
X126768284Y-144594571D02*
X126678999Y-144642190D01*
X126678999Y-144642190D02*
X126637332Y-144689809D01*
X126637332Y-144689809D02*
X126601618Y-144785047D01*
X126601618Y-144785047D02*
X126631380Y-145023142D01*
X126631380Y-145023142D02*
X126690903Y-145118380D01*
X126690903Y-145118380D02*
X126744475Y-145166000D01*
X126744475Y-145166000D02*
X126845665Y-145213619D01*
X126845665Y-145213619D02*
X127131380Y-145213619D01*
X127131380Y-145213619D02*
X127220665Y-145166000D01*
X127220665Y-145166000D02*
X127262332Y-145118380D01*
X129206399Y-137596800D02*
X129069495Y-137644419D01*
X129069495Y-137644419D02*
X128831399Y-137644419D01*
X128831399Y-137644419D02*
X128730209Y-137596800D01*
X128730209Y-137596800D02*
X128676637Y-137549180D01*
X128676637Y-137549180D02*
X128617114Y-137453942D01*
X128617114Y-137453942D02*
X128605209Y-137358704D01*
X128605209Y-137358704D02*
X128640923Y-137263466D01*
X128640923Y-137263466D02*
X128682590Y-137215847D01*
X128682590Y-137215847D02*
X128771876Y-137168228D01*
X128771876Y-137168228D02*
X128956399Y-137120609D01*
X128956399Y-137120609D02*
X129045685Y-137072990D01*
X129045685Y-137072990D02*
X129087352Y-137025371D01*
X129087352Y-137025371D02*
X129123066Y-136930133D01*
X129123066Y-136930133D02*
X129111161Y-136834895D01*
X129111161Y-136834895D02*
X129051637Y-136739657D01*
X129051637Y-136739657D02*
X128998066Y-136692038D01*
X128998066Y-136692038D02*
X128896876Y-136644419D01*
X128896876Y-136644419D02*
X128658780Y-136644419D01*
X128658780Y-136644419D02*
X128521876Y-136692038D01*
X128212352Y-137644419D02*
X128087352Y-136644419D01*
X128087352Y-136644419D02*
X127849256Y-136644419D01*
X127849256Y-136644419D02*
X127712352Y-136692038D01*
X127712352Y-136692038D02*
X127629018Y-136787276D01*
X127629018Y-136787276D02*
X127593304Y-136882514D01*
X127593304Y-136882514D02*
X127569495Y-137072990D01*
X127569495Y-137072990D02*
X127587352Y-137215847D01*
X127587352Y-137215847D02*
X127658780Y-137406323D01*
X127658780Y-137406323D02*
X127718304Y-137501561D01*
X127718304Y-137501561D02*
X127825447Y-137596800D01*
X127825447Y-137596800D02*
X127974256Y-137644419D01*
X127974256Y-137644419D02*
X128212352Y-137644419D01*
X127224256Y-137358704D02*
X126748066Y-137358704D01*
X127355209Y-137644419D02*
X126896875Y-136644419D01*
X126896875Y-136644419D02*
X126688542Y-137644419D01*
X129233389Y-140035200D02*
X129096485Y-140082819D01*
X129096485Y-140082819D02*
X128858389Y-140082819D01*
X128858389Y-140082819D02*
X128757199Y-140035200D01*
X128757199Y-140035200D02*
X128703627Y-139987580D01*
X128703627Y-139987580D02*
X128644104Y-139892342D01*
X128644104Y-139892342D02*
X128632199Y-139797104D01*
X128632199Y-139797104D02*
X128667913Y-139701866D01*
X128667913Y-139701866D02*
X128709580Y-139654247D01*
X128709580Y-139654247D02*
X128798866Y-139606628D01*
X128798866Y-139606628D02*
X128983389Y-139559009D01*
X128983389Y-139559009D02*
X129072675Y-139511390D01*
X129072675Y-139511390D02*
X129114342Y-139463771D01*
X129114342Y-139463771D02*
X129150056Y-139368533D01*
X129150056Y-139368533D02*
X129138151Y-139273295D01*
X129138151Y-139273295D02*
X129078627Y-139178057D01*
X129078627Y-139178057D02*
X129025056Y-139130438D01*
X129025056Y-139130438D02*
X128923866Y-139082819D01*
X128923866Y-139082819D02*
X128685770Y-139082819D01*
X128685770Y-139082819D02*
X128548866Y-139130438D01*
X127656008Y-139987580D02*
X127709580Y-140035200D01*
X127709580Y-140035200D02*
X127858389Y-140082819D01*
X127858389Y-140082819D02*
X127953627Y-140082819D01*
X127953627Y-140082819D02*
X128090532Y-140035200D01*
X128090532Y-140035200D02*
X128173865Y-139939961D01*
X128173865Y-139939961D02*
X128209580Y-139844723D01*
X128209580Y-139844723D02*
X128233389Y-139654247D01*
X128233389Y-139654247D02*
X128215532Y-139511390D01*
X128215532Y-139511390D02*
X128144104Y-139320914D01*
X128144104Y-139320914D02*
X128084580Y-139225676D01*
X128084580Y-139225676D02*
X127977437Y-139130438D01*
X127977437Y-139130438D02*
X127828627Y-139082819D01*
X127828627Y-139082819D02*
X127733389Y-139082819D01*
X127733389Y-139082819D02*
X127596485Y-139130438D01*
X127596485Y-139130438D02*
X127554818Y-139178057D01*
X126763151Y-140082819D02*
X127239342Y-140082819D01*
X127239342Y-140082819D02*
X127114342Y-139082819D01*
X107315838Y-106416125D02*
X107268219Y-106326839D01*
X107268219Y-106326839D02*
X107268219Y-106183982D01*
X107268219Y-106183982D02*
X107315838Y-106035172D01*
X107315838Y-106035172D02*
X107411076Y-105928029D01*
X107411076Y-105928029D02*
X107506314Y-105868505D01*
X107506314Y-105868505D02*
X107696790Y-105797077D01*
X107696790Y-105797077D02*
X107839647Y-105779220D01*
X107839647Y-105779220D02*
X108030123Y-105803029D01*
X108030123Y-105803029D02*
X108125361Y-105838744D01*
X108125361Y-105838744D02*
X108220600Y-105922077D01*
X108220600Y-105922077D02*
X108268219Y-106058982D01*
X108268219Y-106058982D02*
X108268219Y-106154220D01*
X108268219Y-106154220D02*
X108220600Y-106303029D01*
X108220600Y-106303029D02*
X108172980Y-106356601D01*
X108172980Y-106356601D02*
X107839647Y-106398267D01*
X107839647Y-106398267D02*
X107839647Y-106207791D01*
X108268219Y-106773267D02*
X107268219Y-106898267D01*
X107268219Y-106898267D02*
X108268219Y-107344696D01*
X108268219Y-107344696D02*
X107268219Y-107469696D01*
X108268219Y-107820886D02*
X107268219Y-107945886D01*
X107268219Y-107945886D02*
X107268219Y-108183982D01*
X107268219Y-108183982D02*
X107315838Y-108320886D01*
X107315838Y-108320886D02*
X107411076Y-108404220D01*
X107411076Y-108404220D02*
X107506314Y-108439934D01*
X107506314Y-108439934D02*
X107696790Y-108463744D01*
X107696790Y-108463744D02*
X107839647Y-108445886D01*
X107839647Y-108445886D02*
X108030123Y-108374458D01*
X108030123Y-108374458D02*
X108125361Y-108314934D01*
X108125361Y-108314934D02*
X108220600Y-108207791D01*
X108220600Y-108207791D02*
X108268219Y-108058982D01*
X108268219Y-108058982D02*
X108268219Y-107820886D01*
X107372438Y-115808334D02*
X107324819Y-115719048D01*
X107324819Y-115719048D02*
X107324819Y-115576191D01*
X107324819Y-115576191D02*
X107372438Y-115427381D01*
X107372438Y-115427381D02*
X107467676Y-115320238D01*
X107467676Y-115320238D02*
X107562914Y-115260714D01*
X107562914Y-115260714D02*
X107753390Y-115189286D01*
X107753390Y-115189286D02*
X107896247Y-115171429D01*
X107896247Y-115171429D02*
X108086723Y-115195238D01*
X108086723Y-115195238D02*
X108181961Y-115230953D01*
X108181961Y-115230953D02*
X108277200Y-115314286D01*
X108277200Y-115314286D02*
X108324819Y-115451191D01*
X108324819Y-115451191D02*
X108324819Y-115546429D01*
X108324819Y-115546429D02*
X108277200Y-115695238D01*
X108277200Y-115695238D02*
X108229580Y-115748810D01*
X108229580Y-115748810D02*
X107896247Y-115790476D01*
X107896247Y-115790476D02*
X107896247Y-115600000D01*
X108324819Y-116165476D02*
X107324819Y-116290476D01*
X107324819Y-116290476D02*
X108324819Y-116736905D01*
X108324819Y-116736905D02*
X107324819Y-116861905D01*
X108324819Y-117213095D02*
X107324819Y-117338095D01*
X107324819Y-117338095D02*
X107324819Y-117576191D01*
X107324819Y-117576191D02*
X107372438Y-117713095D01*
X107372438Y-117713095D02*
X107467676Y-117796429D01*
X107467676Y-117796429D02*
X107562914Y-117832143D01*
X107562914Y-117832143D02*
X107753390Y-117855953D01*
X107753390Y-117855953D02*
X107896247Y-117838095D01*
X107896247Y-117838095D02*
X108086723Y-117766667D01*
X108086723Y-117766667D02*
X108181961Y-117707143D01*
X108181961Y-117707143D02*
X108277200Y-117600000D01*
X108277200Y-117600000D02*
X108324819Y-117451191D01*
X108324819Y-117451191D02*
X108324819Y-117213095D01*
X110820380Y-116844048D02*
X110868000Y-116790476D01*
X110868000Y-116790476D02*
X110915619Y-116641667D01*
X110915619Y-116641667D02*
X110915619Y-116546429D01*
X110915619Y-116546429D02*
X110868000Y-116409524D01*
X110868000Y-116409524D02*
X110772761Y-116326191D01*
X110772761Y-116326191D02*
X110677523Y-116290476D01*
X110677523Y-116290476D02*
X110487047Y-116266667D01*
X110487047Y-116266667D02*
X110344190Y-116284524D01*
X110344190Y-116284524D02*
X110153714Y-116355952D01*
X110153714Y-116355952D02*
X110058476Y-116415476D01*
X110058476Y-116415476D02*
X109963238Y-116522619D01*
X109963238Y-116522619D02*
X109915619Y-116671429D01*
X109915619Y-116671429D02*
X109915619Y-116766667D01*
X109915619Y-116766667D02*
X109963238Y-116903572D01*
X109963238Y-116903572D02*
X110010857Y-116945238D01*
X110868000Y-117219048D02*
X110915619Y-117355952D01*
X110915619Y-117355952D02*
X110915619Y-117594048D01*
X110915619Y-117594048D02*
X110868000Y-117695238D01*
X110868000Y-117695238D02*
X110820380Y-117748810D01*
X110820380Y-117748810D02*
X110725142Y-117808333D01*
X110725142Y-117808333D02*
X110629904Y-117820238D01*
X110629904Y-117820238D02*
X110534666Y-117784524D01*
X110534666Y-117784524D02*
X110487047Y-117742857D01*
X110487047Y-117742857D02*
X110439428Y-117653572D01*
X110439428Y-117653572D02*
X110391809Y-117469048D01*
X110391809Y-117469048D02*
X110344190Y-117379762D01*
X110344190Y-117379762D02*
X110296571Y-117338095D01*
X110296571Y-117338095D02*
X110201333Y-117302381D01*
X110201333Y-117302381D02*
X110106095Y-117314286D01*
X110106095Y-117314286D02*
X110010857Y-117373810D01*
X110010857Y-117373810D02*
X109963238Y-117427381D01*
X109963238Y-117427381D02*
X109915619Y-117528572D01*
X109915619Y-117528572D02*
X109915619Y-117766667D01*
X109915619Y-117766667D02*
X109963238Y-117903572D01*
X110917200Y-106009524D02*
X110964819Y-106146428D01*
X110964819Y-106146428D02*
X110964819Y-106384524D01*
X110964819Y-106384524D02*
X110917200Y-106485714D01*
X110917200Y-106485714D02*
X110869580Y-106539286D01*
X110869580Y-106539286D02*
X110774342Y-106598809D01*
X110774342Y-106598809D02*
X110679104Y-106610714D01*
X110679104Y-106610714D02*
X110583866Y-106575000D01*
X110583866Y-106575000D02*
X110536247Y-106533333D01*
X110536247Y-106533333D02*
X110488628Y-106444048D01*
X110488628Y-106444048D02*
X110441009Y-106259524D01*
X110441009Y-106259524D02*
X110393390Y-106170238D01*
X110393390Y-106170238D02*
X110345771Y-106128571D01*
X110345771Y-106128571D02*
X110250533Y-106092857D01*
X110250533Y-106092857D02*
X110155295Y-106104762D01*
X110155295Y-106104762D02*
X110060057Y-106164286D01*
X110060057Y-106164286D02*
X110012438Y-106217857D01*
X110012438Y-106217857D02*
X109964819Y-106319048D01*
X109964819Y-106319048D02*
X109964819Y-106557143D01*
X109964819Y-106557143D02*
X110012438Y-106694048D01*
X110869580Y-107586905D02*
X110917200Y-107533333D01*
X110917200Y-107533333D02*
X110964819Y-107384524D01*
X110964819Y-107384524D02*
X110964819Y-107289286D01*
X110964819Y-107289286D02*
X110917200Y-107152381D01*
X110917200Y-107152381D02*
X110821961Y-107069048D01*
X110821961Y-107069048D02*
X110726723Y-107033333D01*
X110726723Y-107033333D02*
X110536247Y-107009524D01*
X110536247Y-107009524D02*
X110393390Y-107027381D01*
X110393390Y-107027381D02*
X110202914Y-107098809D01*
X110202914Y-107098809D02*
X110107676Y-107158333D01*
X110107676Y-107158333D02*
X110012438Y-107265476D01*
X110012438Y-107265476D02*
X109964819Y-107414286D01*
X109964819Y-107414286D02*
X109964819Y-107509524D01*
X109964819Y-107509524D02*
X110012438Y-107646429D01*
X110012438Y-107646429D02*
X110060057Y-107688095D01*
X110964819Y-108479762D02*
X110964819Y-108003571D01*
X110964819Y-108003571D02*
X109964819Y-108128571D01*
X113417200Y-105985714D02*
X113464819Y-106122618D01*
X113464819Y-106122618D02*
X113464819Y-106360714D01*
X113464819Y-106360714D02*
X113417200Y-106461904D01*
X113417200Y-106461904D02*
X113369580Y-106515476D01*
X113369580Y-106515476D02*
X113274342Y-106574999D01*
X113274342Y-106574999D02*
X113179104Y-106586904D01*
X113179104Y-106586904D02*
X113083866Y-106551190D01*
X113083866Y-106551190D02*
X113036247Y-106509523D01*
X113036247Y-106509523D02*
X112988628Y-106420238D01*
X112988628Y-106420238D02*
X112941009Y-106235714D01*
X112941009Y-106235714D02*
X112893390Y-106146428D01*
X112893390Y-106146428D02*
X112845771Y-106104761D01*
X112845771Y-106104761D02*
X112750533Y-106069047D01*
X112750533Y-106069047D02*
X112655295Y-106080952D01*
X112655295Y-106080952D02*
X112560057Y-106140476D01*
X112560057Y-106140476D02*
X112512438Y-106194047D01*
X112512438Y-106194047D02*
X112464819Y-106295238D01*
X112464819Y-106295238D02*
X112464819Y-106533333D01*
X112464819Y-106533333D02*
X112512438Y-106670238D01*
X113464819Y-106979761D02*
X112464819Y-107104761D01*
X112464819Y-107104761D02*
X112464819Y-107342857D01*
X112464819Y-107342857D02*
X112512438Y-107479761D01*
X112512438Y-107479761D02*
X112607676Y-107563095D01*
X112607676Y-107563095D02*
X112702914Y-107598809D01*
X112702914Y-107598809D02*
X112893390Y-107622619D01*
X112893390Y-107622619D02*
X113036247Y-107604761D01*
X113036247Y-107604761D02*
X113226723Y-107533333D01*
X113226723Y-107533333D02*
X113321961Y-107473809D01*
X113321961Y-107473809D02*
X113417200Y-107366666D01*
X113417200Y-107366666D02*
X113464819Y-107217857D01*
X113464819Y-107217857D02*
X113464819Y-106979761D01*
X113179104Y-107967857D02*
X113179104Y-108444047D01*
X113464819Y-107836904D02*
X112464819Y-108295238D01*
X112464819Y-108295238D02*
X113464819Y-108503571D01*
X113506419Y-114594047D02*
X112506419Y-114719047D01*
X112506419Y-114719047D02*
X113220704Y-114963095D01*
X113220704Y-114963095D02*
X112506419Y-115385714D01*
X112506419Y-115385714D02*
X113506419Y-115260714D01*
X112506419Y-116052381D02*
X112506419Y-116242857D01*
X112506419Y-116242857D02*
X112554038Y-116332142D01*
X112554038Y-116332142D02*
X112649276Y-116415476D01*
X112649276Y-116415476D02*
X112839752Y-116439285D01*
X112839752Y-116439285D02*
X113173085Y-116397619D01*
X113173085Y-116397619D02*
X113363561Y-116326190D01*
X113363561Y-116326190D02*
X113458800Y-116219047D01*
X113458800Y-116219047D02*
X113506419Y-116117857D01*
X113506419Y-116117857D02*
X113506419Y-115927381D01*
X113506419Y-115927381D02*
X113458800Y-115838095D01*
X113458800Y-115838095D02*
X113363561Y-115754762D01*
X113363561Y-115754762D02*
X113173085Y-115730952D01*
X113173085Y-115730952D02*
X112839752Y-115772619D01*
X112839752Y-115772619D02*
X112649276Y-115844047D01*
X112649276Y-115844047D02*
X112554038Y-115951190D01*
X112554038Y-115951190D02*
X112506419Y-116052381D01*
X113458800Y-116742857D02*
X113506419Y-116879761D01*
X113506419Y-116879761D02*
X113506419Y-117117857D01*
X113506419Y-117117857D02*
X113458800Y-117219047D01*
X113458800Y-117219047D02*
X113411180Y-117272619D01*
X113411180Y-117272619D02*
X113315942Y-117332142D01*
X113315942Y-117332142D02*
X113220704Y-117344047D01*
X113220704Y-117344047D02*
X113125466Y-117308333D01*
X113125466Y-117308333D02*
X113077847Y-117266666D01*
X113077847Y-117266666D02*
X113030228Y-117177381D01*
X113030228Y-117177381D02*
X112982609Y-116992857D01*
X112982609Y-116992857D02*
X112934990Y-116903571D01*
X112934990Y-116903571D02*
X112887371Y-116861904D01*
X112887371Y-116861904D02*
X112792133Y-116826190D01*
X112792133Y-116826190D02*
X112696895Y-116838095D01*
X112696895Y-116838095D02*
X112601657Y-116897619D01*
X112601657Y-116897619D02*
X112554038Y-116951190D01*
X112554038Y-116951190D02*
X112506419Y-117052381D01*
X112506419Y-117052381D02*
X112506419Y-117290476D01*
X112506419Y-117290476D02*
X112554038Y-117427381D01*
X113506419Y-117736904D02*
X112506419Y-117861904D01*
X115142219Y-105830952D02*
X115142219Y-106450000D01*
X115142219Y-106450000D02*
X115523171Y-106069048D01*
X115523171Y-106069048D02*
X115523171Y-106211905D01*
X115523171Y-106211905D02*
X115570790Y-106301190D01*
X115570790Y-106301190D02*
X115618409Y-106342857D01*
X115618409Y-106342857D02*
X115713647Y-106378571D01*
X115713647Y-106378571D02*
X115951742Y-106348809D01*
X115951742Y-106348809D02*
X116046980Y-106289286D01*
X116046980Y-106289286D02*
X116094600Y-106235714D01*
X116094600Y-106235714D02*
X116142219Y-106134524D01*
X116142219Y-106134524D02*
X116142219Y-105848809D01*
X116142219Y-105848809D02*
X116094600Y-105759524D01*
X116094600Y-105759524D02*
X116046980Y-105717857D01*
X115142219Y-106735714D02*
X116142219Y-106944048D01*
X116142219Y-106944048D02*
X115142219Y-107402381D01*
X115142219Y-107640476D02*
X115142219Y-108259524D01*
X115142219Y-108259524D02*
X115523171Y-107878572D01*
X115523171Y-107878572D02*
X115523171Y-108021429D01*
X115523171Y-108021429D02*
X115570790Y-108110714D01*
X115570790Y-108110714D02*
X115618409Y-108152381D01*
X115618409Y-108152381D02*
X115713647Y-108188095D01*
X115713647Y-108188095D02*
X115951742Y-108158333D01*
X115951742Y-108158333D02*
X116046980Y-108098810D01*
X116046980Y-108098810D02*
X116094600Y-108045238D01*
X116094600Y-108045238D02*
X116142219Y-107944048D01*
X116142219Y-107944048D02*
X116142219Y-107658333D01*
X116142219Y-107658333D02*
X116094600Y-107569048D01*
X116094600Y-107569048D02*
X116046980Y-107527381D01*
X116052780Y-115986904D02*
X116100400Y-115933332D01*
X116100400Y-115933332D02*
X116148019Y-115784523D01*
X116148019Y-115784523D02*
X116148019Y-115689285D01*
X116148019Y-115689285D02*
X116100400Y-115552380D01*
X116100400Y-115552380D02*
X116005161Y-115469047D01*
X116005161Y-115469047D02*
X115909923Y-115433332D01*
X115909923Y-115433332D02*
X115719447Y-115409523D01*
X115719447Y-115409523D02*
X115576590Y-115427380D01*
X115576590Y-115427380D02*
X115386114Y-115498808D01*
X115386114Y-115498808D02*
X115290876Y-115558332D01*
X115290876Y-115558332D02*
X115195638Y-115665475D01*
X115195638Y-115665475D02*
X115148019Y-115814285D01*
X115148019Y-115814285D02*
X115148019Y-115909523D01*
X115148019Y-115909523D02*
X115195638Y-116046428D01*
X115195638Y-116046428D02*
X115243257Y-116088094D01*
X116148019Y-116879761D02*
X116148019Y-116403570D01*
X116148019Y-116403570D02*
X115148019Y-116528570D01*
X116148019Y-117213094D02*
X115148019Y-117338094D01*
X116148019Y-117784523D02*
X115576590Y-117427380D01*
X115148019Y-117909523D02*
X115719447Y-117266666D01*
X118586419Y-114594047D02*
X117586419Y-114719047D01*
X117586419Y-114719047D02*
X118300704Y-114963095D01*
X118300704Y-114963095D02*
X117586419Y-115385714D01*
X117586419Y-115385714D02*
X118586419Y-115260714D01*
X118586419Y-115736904D02*
X117586419Y-115861904D01*
X118538800Y-116171428D02*
X118586419Y-116308332D01*
X118586419Y-116308332D02*
X118586419Y-116546428D01*
X118586419Y-116546428D02*
X118538800Y-116647618D01*
X118538800Y-116647618D02*
X118491180Y-116701190D01*
X118491180Y-116701190D02*
X118395942Y-116760713D01*
X118395942Y-116760713D02*
X118300704Y-116772618D01*
X118300704Y-116772618D02*
X118205466Y-116736904D01*
X118205466Y-116736904D02*
X118157847Y-116695237D01*
X118157847Y-116695237D02*
X118110228Y-116605952D01*
X118110228Y-116605952D02*
X118062609Y-116421428D01*
X118062609Y-116421428D02*
X118014990Y-116332142D01*
X118014990Y-116332142D02*
X117967371Y-116290475D01*
X117967371Y-116290475D02*
X117872133Y-116254761D01*
X117872133Y-116254761D02*
X117776895Y-116266666D01*
X117776895Y-116266666D02*
X117681657Y-116326190D01*
X117681657Y-116326190D02*
X117634038Y-116379761D01*
X117634038Y-116379761D02*
X117586419Y-116480952D01*
X117586419Y-116480952D02*
X117586419Y-116719047D01*
X117586419Y-116719047D02*
X117634038Y-116855952D01*
X117586419Y-117480952D02*
X117586419Y-117671428D01*
X117586419Y-117671428D02*
X117634038Y-117760713D01*
X117634038Y-117760713D02*
X117729276Y-117844047D01*
X117729276Y-117844047D02*
X117919752Y-117867856D01*
X117919752Y-117867856D02*
X118253085Y-117826190D01*
X118253085Y-117826190D02*
X118443561Y-117754761D01*
X118443561Y-117754761D02*
X118538800Y-117647618D01*
X118538800Y-117647618D02*
X118586419Y-117546428D01*
X118586419Y-117546428D02*
X118586419Y-117355952D01*
X118586419Y-117355952D02*
X118538800Y-117266666D01*
X118538800Y-117266666D02*
X118443561Y-117183333D01*
X118443561Y-117183333D02*
X118253085Y-117159523D01*
X118253085Y-117159523D02*
X117919752Y-117201190D01*
X117919752Y-117201190D02*
X117729276Y-117272618D01*
X117729276Y-117272618D02*
X117634038Y-117379761D01*
X117634038Y-117379761D02*
X117586419Y-117480952D01*
X117897952Y-48712591D02*
X117850333Y-48623305D01*
X117850333Y-48623305D02*
X117850333Y-48480448D01*
X117850333Y-48480448D02*
X117897952Y-48331638D01*
X117897952Y-48331638D02*
X117993190Y-48224495D01*
X117993190Y-48224495D02*
X118088428Y-48164971D01*
X118088428Y-48164971D02*
X118278904Y-48093543D01*
X118278904Y-48093543D02*
X118421761Y-48075686D01*
X118421761Y-48075686D02*
X118612237Y-48099495D01*
X118612237Y-48099495D02*
X118707475Y-48135210D01*
X118707475Y-48135210D02*
X118802714Y-48218543D01*
X118802714Y-48218543D02*
X118850333Y-48355448D01*
X118850333Y-48355448D02*
X118850333Y-48450686D01*
X118850333Y-48450686D02*
X118802714Y-48599495D01*
X118802714Y-48599495D02*
X118755094Y-48653067D01*
X118755094Y-48653067D02*
X118421761Y-48694733D01*
X118421761Y-48694733D02*
X118421761Y-48504257D01*
X118850333Y-49069733D02*
X117850333Y-49194733D01*
X117850333Y-49194733D02*
X118850333Y-49641162D01*
X118850333Y-49641162D02*
X117850333Y-49766162D01*
X118850333Y-50117352D02*
X117850333Y-50242352D01*
X117850333Y-50242352D02*
X117850333Y-50480448D01*
X117850333Y-50480448D02*
X117897952Y-50617352D01*
X117897952Y-50617352D02*
X117993190Y-50700686D01*
X117993190Y-50700686D02*
X118088428Y-50736400D01*
X118088428Y-50736400D02*
X118278904Y-50760210D01*
X118278904Y-50760210D02*
X118421761Y-50742352D01*
X118421761Y-50742352D02*
X118612237Y-50670924D01*
X118612237Y-50670924D02*
X118707475Y-50611400D01*
X118707475Y-50611400D02*
X118802714Y-50504257D01*
X118802714Y-50504257D02*
X118850333Y-50355448D01*
X118850333Y-50355448D02*
X118850333Y-50117352D01*
X120177219Y-115480952D02*
X120177219Y-116100000D01*
X120177219Y-116100000D02*
X120558171Y-115719048D01*
X120558171Y-115719048D02*
X120558171Y-115861905D01*
X120558171Y-115861905D02*
X120605790Y-115951190D01*
X120605790Y-115951190D02*
X120653409Y-115992857D01*
X120653409Y-115992857D02*
X120748647Y-116028571D01*
X120748647Y-116028571D02*
X120986742Y-115998809D01*
X120986742Y-115998809D02*
X121081980Y-115939286D01*
X121081980Y-115939286D02*
X121129600Y-115885714D01*
X121129600Y-115885714D02*
X121177219Y-115784524D01*
X121177219Y-115784524D02*
X121177219Y-115498809D01*
X121177219Y-115498809D02*
X121129600Y-115409524D01*
X121129600Y-115409524D02*
X121081980Y-115367857D01*
X120177219Y-116385714D02*
X121177219Y-116594048D01*
X121177219Y-116594048D02*
X120177219Y-117052381D01*
X120177219Y-117290476D02*
X120177219Y-117909524D01*
X120177219Y-117909524D02*
X120558171Y-117528572D01*
X120558171Y-117528572D02*
X120558171Y-117671429D01*
X120558171Y-117671429D02*
X120605790Y-117760714D01*
X120605790Y-117760714D02*
X120653409Y-117802381D01*
X120653409Y-117802381D02*
X120748647Y-117838095D01*
X120748647Y-117838095D02*
X120986742Y-117808333D01*
X120986742Y-117808333D02*
X121081980Y-117748810D01*
X121081980Y-117748810D02*
X121129600Y-117695238D01*
X121129600Y-117695238D02*
X121177219Y-117594048D01*
X121177219Y-117594048D02*
X121177219Y-117308333D01*
X121177219Y-117308333D02*
X121129600Y-117219048D01*
X121129600Y-117219048D02*
X121081980Y-117177381D01*
X121593533Y-48641162D02*
X121117342Y-48367352D01*
X121593533Y-48069733D02*
X120593533Y-48194733D01*
X120593533Y-48194733D02*
X120593533Y-48575686D01*
X120593533Y-48575686D02*
X120641152Y-48664971D01*
X120641152Y-48664971D02*
X120688771Y-48706638D01*
X120688771Y-48706638D02*
X120784009Y-48742352D01*
X120784009Y-48742352D02*
X120926866Y-48724495D01*
X120926866Y-48724495D02*
X121022104Y-48664971D01*
X121022104Y-48664971D02*
X121069723Y-48611400D01*
X121069723Y-48611400D02*
X121117342Y-48510210D01*
X121117342Y-48510210D02*
X121117342Y-48129257D01*
X120593533Y-49099495D02*
X121593533Y-49641162D01*
X120593533Y-49766162D02*
X121593533Y-48974495D01*
X123133533Y-48051875D02*
X123133533Y-48623304D01*
X124133533Y-48212590D02*
X123133533Y-48337590D01*
X123133533Y-48861399D02*
X124133533Y-49403066D01*
X123133533Y-49528066D02*
X124133533Y-48736399D01*
X125368733Y-48099495D02*
X125368733Y-48718543D01*
X125368733Y-48718543D02*
X125749685Y-48337591D01*
X125749685Y-48337591D02*
X125749685Y-48480448D01*
X125749685Y-48480448D02*
X125797304Y-48569733D01*
X125797304Y-48569733D02*
X125844923Y-48611400D01*
X125844923Y-48611400D02*
X125940161Y-48647114D01*
X125940161Y-48647114D02*
X126178256Y-48617352D01*
X126178256Y-48617352D02*
X126273494Y-48557829D01*
X126273494Y-48557829D02*
X126321114Y-48504257D01*
X126321114Y-48504257D02*
X126368733Y-48403067D01*
X126368733Y-48403067D02*
X126368733Y-48117352D01*
X126368733Y-48117352D02*
X126321114Y-48028067D01*
X126321114Y-48028067D02*
X126273494Y-47986400D01*
X125368733Y-49004257D02*
X126368733Y-49212591D01*
X126368733Y-49212591D02*
X125368733Y-49670924D01*
X125368733Y-49909019D02*
X125368733Y-50528067D01*
X125368733Y-50528067D02*
X125749685Y-50147115D01*
X125749685Y-50147115D02*
X125749685Y-50289972D01*
X125749685Y-50289972D02*
X125797304Y-50379257D01*
X125797304Y-50379257D02*
X125844923Y-50420924D01*
X125844923Y-50420924D02*
X125940161Y-50456638D01*
X125940161Y-50456638D02*
X126178256Y-50426876D01*
X126178256Y-50426876D02*
X126273494Y-50367353D01*
X126273494Y-50367353D02*
X126321114Y-50313781D01*
X126321114Y-50313781D02*
X126368733Y-50212591D01*
X126368733Y-50212591D02*
X126368733Y-49926876D01*
X126368733Y-49926876D02*
X126321114Y-49837591D01*
X126321114Y-49837591D02*
X126273494Y-49795924D01*
X100399028Y-150570542D02*
X100970456Y-150570542D01*
X100970456Y-150570542D02*
X101099028Y-151141971D01*
X101099028Y-151141971D02*
X101034742Y-151084828D01*
X101034742Y-151084828D02*
X100913313Y-151027685D01*
X100913313Y-151027685D02*
X100627599Y-151027685D01*
X100627599Y-151027685D02*
X100520456Y-151084828D01*
X100520456Y-151084828D02*
X100470456Y-151141971D01*
X100470456Y-151141971D02*
X100427599Y-151256257D01*
X100427599Y-151256257D02*
X100463313Y-151541971D01*
X100463313Y-151541971D02*
X100534742Y-151656257D01*
X100534742Y-151656257D02*
X100599028Y-151713400D01*
X100599028Y-151713400D02*
X100720456Y-151770542D01*
X100720456Y-151770542D02*
X101006170Y-151770542D01*
X101006170Y-151770542D02*
X101113313Y-151713400D01*
X101113313Y-151713400D02*
X101163313Y-151656257D01*
X99999028Y-150570542D02*
X99749028Y-151770542D01*
X99749028Y-151770542D02*
X99199028Y-150570542D01*
X101913314Y-149097200D02*
X101749028Y-149154342D01*
X101749028Y-149154342D02*
X101463314Y-149154342D01*
X101463314Y-149154342D02*
X101341886Y-149097200D01*
X101341886Y-149097200D02*
X101277600Y-149040057D01*
X101277600Y-149040057D02*
X101206171Y-148925771D01*
X101206171Y-148925771D02*
X101191886Y-148811485D01*
X101191886Y-148811485D02*
X101234743Y-148697200D01*
X101234743Y-148697200D02*
X101284743Y-148640057D01*
X101284743Y-148640057D02*
X101391886Y-148582914D01*
X101391886Y-148582914D02*
X101613314Y-148525771D01*
X101613314Y-148525771D02*
X101720457Y-148468628D01*
X101720457Y-148468628D02*
X101770457Y-148411485D01*
X101770457Y-148411485D02*
X101813314Y-148297200D01*
X101813314Y-148297200D02*
X101799028Y-148182914D01*
X101799028Y-148182914D02*
X101727600Y-148068628D01*
X101727600Y-148068628D02*
X101663314Y-148011485D01*
X101663314Y-148011485D02*
X101541886Y-147954342D01*
X101541886Y-147954342D02*
X101256171Y-147954342D01*
X101256171Y-147954342D02*
X101091886Y-148011485D01*
X100720457Y-149154342D02*
X100570457Y-147954342D01*
X99377600Y-148011485D02*
X99484742Y-147954342D01*
X99484742Y-147954342D02*
X99656171Y-147954342D01*
X99656171Y-147954342D02*
X99834742Y-148011485D01*
X99834742Y-148011485D02*
X99963314Y-148125771D01*
X99963314Y-148125771D02*
X100034742Y-148240057D01*
X100034742Y-148240057D02*
X100120457Y-148468628D01*
X100120457Y-148468628D02*
X100141885Y-148640057D01*
X100141885Y-148640057D02*
X100113314Y-148868628D01*
X100113314Y-148868628D02*
X100070457Y-148982914D01*
X100070457Y-148982914D02*
X99970457Y-149097200D01*
X99970457Y-149097200D02*
X99806171Y-149154342D01*
X99806171Y-149154342D02*
X99691885Y-149154342D01*
X99691885Y-149154342D02*
X99513314Y-149097200D01*
X99513314Y-149097200D02*
X99449028Y-149040057D01*
X99449028Y-149040057D02*
X99399028Y-148640057D01*
X99399028Y-148640057D02*
X99627600Y-148640057D01*
X101803571Y-152501885D02*
X101910713Y-152444742D01*
X101910713Y-152444742D02*
X102082142Y-152444742D01*
X102082142Y-152444742D02*
X102260713Y-152501885D01*
X102260713Y-152501885D02*
X102389285Y-152616171D01*
X102389285Y-152616171D02*
X102460713Y-152730457D01*
X102460713Y-152730457D02*
X102546428Y-152959028D01*
X102546428Y-152959028D02*
X102567856Y-153130457D01*
X102567856Y-153130457D02*
X102539285Y-153359028D01*
X102539285Y-153359028D02*
X102496428Y-153473314D01*
X102496428Y-153473314D02*
X102396428Y-153587600D01*
X102396428Y-153587600D02*
X102232142Y-153644742D01*
X102232142Y-153644742D02*
X102117856Y-153644742D01*
X102117856Y-153644742D02*
X101939285Y-153587600D01*
X101939285Y-153587600D02*
X101874999Y-153530457D01*
X101874999Y-153530457D02*
X101824999Y-153130457D01*
X101824999Y-153130457D02*
X102053571Y-153130457D01*
X101374999Y-153644742D02*
X101224999Y-152444742D01*
X101224999Y-152444742D02*
X100689285Y-153644742D01*
X100689285Y-153644742D02*
X100539285Y-152444742D01*
X100117856Y-153644742D02*
X99967856Y-152444742D01*
X99967856Y-152444742D02*
X99682142Y-152444742D01*
X99682142Y-152444742D02*
X99517856Y-152501885D01*
X99517856Y-152501885D02*
X99417856Y-152616171D01*
X99417856Y-152616171D02*
X99374999Y-152730457D01*
X99374999Y-152730457D02*
X99346428Y-152959028D01*
X99346428Y-152959028D02*
X99367856Y-153130457D01*
X99367856Y-153130457D02*
X99453570Y-153359028D01*
X99453570Y-153359028D02*
X99524999Y-153473314D01*
X99524999Y-153473314D02*
X99653570Y-153587600D01*
X99653570Y-153587600D02*
X99832142Y-153644742D01*
X99832142Y-153644742D02*
X100117856Y-153644742D01*
D11*
X106319728Y-149279100D02*
X105176871Y-149279100D01*
X105819728Y-149850528D02*
X105676871Y-148707671D01*
X109822414Y-149256900D02*
X108679557Y-149256900D01*
X113560442Y-149279100D02*
X112417585Y-149279100D01*
X113060442Y-149850528D02*
X112917585Y-148707671D01*
X117083928Y-149306900D02*
X115941071Y-149306900D01*
X120860442Y-149204100D02*
X119717585Y-149204100D01*
X120360442Y-149775528D02*
X120217585Y-148632671D01*
X124383928Y-149231900D02*
X123241071Y-149231900D01*
%LPC*%
D12*
X97700000Y-148472200D03*
D13*
X97700000Y-151012200D03*
X97700000Y-153552200D03*
D12*
X93966200Y-148472200D03*
D13*
X93966200Y-151012200D03*
X93966200Y-153552200D03*
D12*
X90232400Y-148472200D03*
D13*
X90232400Y-151012200D03*
X90232400Y-153552200D03*
D12*
X86498600Y-148472200D03*
D13*
X86498600Y-151012200D03*
X86498600Y-153552200D03*
D12*
X82800000Y-148475000D03*
D13*
X82800000Y-151015000D03*
X82800000Y-153555000D03*
D14*
X131025000Y-137075000D03*
D15*
X131025000Y-139575000D03*
X131025000Y-142075000D03*
X131025000Y-144575000D03*
D14*
X131017500Y-122725000D03*
D15*
X131017500Y-125225000D03*
X131017500Y-127725000D03*
X131017500Y-130225000D03*
D14*
X131017500Y-109475000D03*
D15*
X131017500Y-111975000D03*
X131017500Y-114475000D03*
X131017500Y-116975000D03*
D16*
X125958114Y-46359800D03*
D17*
X123458114Y-46359800D03*
X120958114Y-46359800D03*
X118458114Y-46359800D03*
D18*
X136275000Y-70120000D03*
D19*
X132595000Y-68690000D03*
X132595000Y-62910000D03*
D18*
X136275000Y-61480000D03*
D20*
X132095000Y-70120000D03*
X132095000Y-61480000D03*
D21*
X130780914Y-41690600D03*
X131483858Y-39993544D03*
X131483858Y-43387656D03*
X133180914Y-39290600D03*
D22*
X133180914Y-41690600D03*
D21*
X133180914Y-44090600D03*
X134877970Y-39993544D03*
X134877970Y-43387656D03*
X135580914Y-41690600D03*
D23*
X81315314Y-39456200D03*
X89815314Y-39456200D03*
D12*
X115515000Y-110125000D03*
D13*
X112975000Y-110125000D03*
X110435000Y-110125000D03*
X107895000Y-110125000D03*
D24*
X105950000Y-151705600D03*
D25*
X109450000Y-151705600D03*
D24*
X120425000Y-151700000D03*
D25*
X123925000Y-151700000D03*
D21*
X70633714Y-41690600D03*
X71336658Y-39993544D03*
X71336658Y-43387656D03*
X73033714Y-39290600D03*
D22*
X73033714Y-41690600D03*
D21*
X73033714Y-44090600D03*
X74730770Y-39993544D03*
X74730770Y-43387656D03*
X75433714Y-41690600D03*
D23*
X101315314Y-39456200D03*
X109815314Y-39456200D03*
D24*
X113190714Y-151705600D03*
D25*
X116690714Y-151705600D03*
D21*
X130730114Y-151926600D03*
X131433058Y-150229544D03*
X131433058Y-153623656D03*
X133130114Y-149526600D03*
D22*
X133130114Y-151926600D03*
D21*
X133130114Y-154326600D03*
X134827170Y-150229544D03*
X134827170Y-153623656D03*
X135530114Y-151926600D03*
D26*
X72575000Y-112400000D03*
X72575000Y-98900000D03*
D27*
X78575000Y-109250000D03*
D28*
X78575000Y-102050000D03*
D26*
X72525000Y-95650000D03*
X72525000Y-82150000D03*
D27*
X78525000Y-92500000D03*
D28*
X78525000Y-85300000D03*
D21*
X70633714Y-151977400D03*
X71336658Y-150280344D03*
X71336658Y-153674456D03*
X73033714Y-149577400D03*
D22*
X73033714Y-151977400D03*
D21*
X73033714Y-154377400D03*
X74730770Y-150280344D03*
X74730770Y-153674456D03*
X75433714Y-151977400D03*
D12*
X120625000Y-112950000D03*
D13*
X118085000Y-112950000D03*
X115545000Y-112950000D03*
X113005000Y-112950000D03*
X110465000Y-112950000D03*
X107925000Y-112950000D03*
G36*
X70735885Y-148544685D02*
G01*
X70781640Y-148597489D01*
X70792846Y-148649000D01*
X70792846Y-148775000D01*
X72909714Y-148775000D01*
X72976753Y-148794685D01*
X73022508Y-148847489D01*
X73033714Y-148899000D01*
X73033714Y-151853400D01*
X73014029Y-151920439D01*
X72961225Y-151966194D01*
X72909714Y-151977400D01*
X70792846Y-151977400D01*
X70792846Y-152103400D01*
X70773161Y-152170439D01*
X70720357Y-152216194D01*
X70668846Y-152227400D01*
X70562211Y-152227400D01*
X70538019Y-152225017D01*
X70478518Y-152213181D01*
X70433820Y-152194667D01*
X70393731Y-152167881D01*
X70359518Y-152133668D01*
X70332732Y-152093579D01*
X70314218Y-152048880D01*
X70302383Y-151989380D01*
X70300000Y-151965189D01*
X70300000Y-148787210D01*
X70302383Y-148763019D01*
X70314218Y-148703519D01*
X70332732Y-148658820D01*
X70359518Y-148618731D01*
X70393731Y-148584518D01*
X70433820Y-148557732D01*
X70478520Y-148539217D01*
X70538021Y-148527382D01*
X70562211Y-148525000D01*
X70668846Y-148525000D01*
X70735885Y-148544685D01*
G37*
G36*
X135661980Y-41449983D02*
G01*
X135721480Y-41461818D01*
X135766179Y-41480332D01*
X135806268Y-41507118D01*
X135840481Y-41541331D01*
X135867267Y-41581420D01*
X135885781Y-41626117D01*
X135897617Y-41685617D01*
X135900000Y-41709810D01*
X135900000Y-44887789D01*
X135897617Y-44911982D01*
X135885781Y-44971482D01*
X135867267Y-45016179D01*
X135840481Y-45056268D01*
X135806268Y-45090481D01*
X135766179Y-45117267D01*
X135721482Y-45135781D01*
X135661982Y-45147617D01*
X135637789Y-45150000D01*
X135424000Y-45150000D01*
X135356961Y-45130315D01*
X135311206Y-45077511D01*
X135300000Y-45026000D01*
X135300000Y-44900000D01*
X133290286Y-44900000D01*
X133223247Y-44880315D01*
X133177492Y-44827511D01*
X133166286Y-44776000D01*
X133166286Y-41821600D01*
X133185971Y-41754561D01*
X133238775Y-41708806D01*
X133290286Y-41697600D01*
X135300000Y-41697600D01*
X135300000Y-41571600D01*
X135319685Y-41504561D01*
X135372489Y-41458806D01*
X135424000Y-41447600D01*
X135637789Y-41447600D01*
X135661980Y-41449983D01*
G37*
G36*
X76236980Y-38952383D02*
G01*
X76296480Y-38964218D01*
X76341179Y-38982732D01*
X76381268Y-39009518D01*
X76415481Y-39043731D01*
X76442267Y-39083820D01*
X76460781Y-39128517D01*
X76472617Y-39188017D01*
X76475000Y-39212210D01*
X76475000Y-39442009D01*
X76455315Y-39509048D01*
X76402511Y-39554803D01*
X76351000Y-39566009D01*
X76225000Y-39566009D01*
X76225000Y-41559714D01*
X76205315Y-41626753D01*
X76152511Y-41672508D01*
X76101000Y-41683714D01*
X73146600Y-41683714D01*
X73079561Y-41664029D01*
X73033806Y-41611225D01*
X73022600Y-41559714D01*
X73022600Y-39566009D01*
X72896600Y-39566009D01*
X72829561Y-39546324D01*
X72783806Y-39493520D01*
X72772600Y-39442009D01*
X72772600Y-39212210D01*
X72774983Y-39188019D01*
X72786818Y-39128519D01*
X72805332Y-39083820D01*
X72832118Y-39043731D01*
X72866331Y-39009518D01*
X72906420Y-38982732D01*
X72951120Y-38964217D01*
X73010621Y-38952382D01*
X73034811Y-38950000D01*
X76212789Y-38950000D01*
X76236980Y-38952383D01*
G37*
G36*
X133178266Y-38577383D02*
G01*
X133237766Y-38589218D01*
X133282465Y-38607732D01*
X133322554Y-38634518D01*
X133356767Y-38668731D01*
X133383553Y-38708820D01*
X133402067Y-38753517D01*
X133413903Y-38813017D01*
X133416286Y-38837210D01*
X133416286Y-39442009D01*
X133396601Y-39509048D01*
X133343797Y-39554803D01*
X133292286Y-39566009D01*
X133166286Y-39566009D01*
X133166286Y-41626000D01*
X133146601Y-41693039D01*
X133093797Y-41738794D01*
X133042286Y-41750000D01*
X130099000Y-41750000D01*
X130031961Y-41730315D01*
X129986206Y-41677511D01*
X129975000Y-41626000D01*
X129975000Y-39566009D01*
X129849000Y-39566009D01*
X129781961Y-39546324D01*
X129736206Y-39493520D01*
X129725000Y-39442009D01*
X129725000Y-38837210D01*
X129727383Y-38813019D01*
X129739218Y-38753519D01*
X129757732Y-38708820D01*
X129784518Y-38668731D01*
X129818731Y-38634518D01*
X129858820Y-38607732D01*
X129903520Y-38589217D01*
X129963021Y-38577382D01*
X129987211Y-38575000D01*
X133154075Y-38575000D01*
X133178266Y-38577383D01*
G37*
G36*
X70735885Y-41453399D02*
G01*
X70781640Y-41506203D01*
X70792846Y-41557714D01*
X70792846Y-41683714D01*
X72898600Y-41683714D01*
X72965639Y-41703399D01*
X73011394Y-41756203D01*
X73022600Y-41807714D01*
X73022600Y-44776000D01*
X73002915Y-44843039D01*
X72950111Y-44888794D01*
X72898600Y-44900000D01*
X70792846Y-44900000D01*
X70792846Y-45026000D01*
X70773161Y-45093039D01*
X70720357Y-45138794D01*
X70668846Y-45150000D01*
X70162211Y-45150000D01*
X70138019Y-45147617D01*
X70078518Y-45135781D01*
X70033820Y-45117267D01*
X69993731Y-45090481D01*
X69959518Y-45056268D01*
X69932732Y-45016179D01*
X69914218Y-44971480D01*
X69902383Y-44911980D01*
X69900000Y-44887789D01*
X69900000Y-43902000D01*
X70898000Y-43902000D01*
X71626000Y-43902000D01*
X71626000Y-42681714D01*
X70898000Y-42681714D01*
X70898000Y-43902000D01*
X69900000Y-43902000D01*
X69900000Y-41695924D01*
X69902383Y-41671733D01*
X69914218Y-41612233D01*
X69932732Y-41567534D01*
X69959518Y-41527445D01*
X69993731Y-41493232D01*
X70033820Y-41466446D01*
X70078520Y-41447931D01*
X70138021Y-41436096D01*
X70162211Y-41433714D01*
X70668846Y-41433714D01*
X70735885Y-41453399D01*
G37*
G36*
X70999559Y-37297308D02*
G01*
X71037639Y-37355888D01*
X71042846Y-37391443D01*
X71042846Y-39442009D01*
X71023161Y-39509048D01*
X70970357Y-39554803D01*
X70918846Y-39566009D01*
X70792846Y-39566009D01*
X70792846Y-41683714D01*
X70918846Y-41683714D01*
X70985885Y-41703399D01*
X71031640Y-41756203D01*
X71042846Y-41807714D01*
X71042846Y-44776000D01*
X71023161Y-44843039D01*
X70970357Y-44888794D01*
X70918846Y-44900000D01*
X70792846Y-44900000D01*
X70792846Y-148775000D01*
X70918846Y-148775000D01*
X70985885Y-148794685D01*
X71031640Y-148847489D01*
X71042846Y-148899000D01*
X71042846Y-151853400D01*
X71023161Y-151920439D01*
X70970357Y-151966194D01*
X70918846Y-151977400D01*
X70792846Y-151977400D01*
X70792846Y-153888191D01*
X70918846Y-153888191D01*
X70985885Y-153907876D01*
X71031640Y-153960680D01*
X71042846Y-154012191D01*
X71042846Y-156120980D01*
X71023161Y-156188019D01*
X70970357Y-156233774D01*
X70901199Y-156243718D01*
X70866747Y-156233504D01*
X70804484Y-156204676D01*
X70794802Y-156199666D01*
X70425250Y-155987310D01*
X70416046Y-155981468D01*
X70066563Y-155737466D01*
X70057907Y-155730838D01*
X69731214Y-155457088D01*
X69723174Y-155449726D01*
X69421783Y-155148337D01*
X69414420Y-155140296D01*
X69140668Y-154813601D01*
X69134041Y-154804945D01*
X68890041Y-154455467D01*
X68884199Y-154446263D01*
X68671840Y-154076710D01*
X68666829Y-154067028D01*
X68487747Y-153680243D01*
X68483606Y-153670158D01*
X68339193Y-153269154D01*
X68335953Y-153258745D01*
X68227313Y-152846580D01*
X68225001Y-152835926D01*
X68152988Y-152415836D01*
X68151620Y-152405021D01*
X68116726Y-151979555D01*
X68116312Y-151969998D01*
X68115315Y-151756414D01*
X68115314Y-151755835D01*
X68115314Y-41756577D01*
X68115315Y-41755989D01*
X68116328Y-41542397D01*
X68116742Y-41532849D01*
X68151638Y-41107383D01*
X68153006Y-41096567D01*
X68225024Y-40676468D01*
X68227337Y-40665814D01*
X68335973Y-40253673D01*
X68339212Y-40243264D01*
X68483631Y-39842247D01*
X68487772Y-39832163D01*
X68666853Y-39445384D01*
X68671864Y-39435702D01*
X68884223Y-39066150D01*
X68890065Y-39056946D01*
X69134064Y-38707470D01*
X69140692Y-38698814D01*
X69414448Y-38372115D01*
X69421810Y-38364075D01*
X69723188Y-38062697D01*
X69731228Y-38055334D01*
X70057933Y-37781574D01*
X70066589Y-37774947D01*
X70416054Y-37530956D01*
X70425258Y-37525114D01*
X70794815Y-37312752D01*
X70804497Y-37307741D01*
X70866747Y-37278919D01*
X70935853Y-37268615D01*
X70999559Y-37297308D01*
G37*
G36*
X133115525Y-36756201D02*
G01*
X133329116Y-36757212D01*
X133338665Y-36757626D01*
X133764132Y-36792521D01*
X133774947Y-36793889D01*
X134195036Y-36865903D01*
X134205690Y-36868215D01*
X134617853Y-36976856D01*
X134628263Y-36980096D01*
X135029266Y-37124509D01*
X135039350Y-37128650D01*
X135426132Y-37307731D01*
X135435814Y-37312742D01*
X135805372Y-37525105D01*
X135814576Y-37530947D01*
X136164049Y-37774943D01*
X136172705Y-37781571D01*
X136499396Y-38055321D01*
X136507436Y-38062683D01*
X136808820Y-38364067D01*
X136816183Y-38372107D01*
X137089942Y-38698812D01*
X137096570Y-38707468D01*
X137340561Y-39056934D01*
X137346403Y-39066138D01*
X137558763Y-39435697D01*
X137563773Y-39445379D01*
X137653842Y-39639910D01*
X137664146Y-39709015D01*
X137635453Y-39772722D01*
X137576873Y-39810802D01*
X137541318Y-39816009D01*
X135424000Y-39816009D01*
X135356961Y-39796324D01*
X135311206Y-39743520D01*
X135300000Y-39692009D01*
X135300000Y-39566009D01*
X133166286Y-39566009D01*
X133166286Y-39692009D01*
X133146601Y-39759048D01*
X133093797Y-39804803D01*
X133042286Y-39816009D01*
X130099000Y-39816009D01*
X130031961Y-39796324D01*
X129986206Y-39743520D01*
X129975000Y-39692009D01*
X129975000Y-39566009D01*
X76225000Y-39566009D01*
X76225000Y-39692009D01*
X76205315Y-39759048D01*
X76152511Y-39804803D01*
X76101000Y-39816009D01*
X73146600Y-39816009D01*
X73079561Y-39796324D01*
X73033806Y-39743520D01*
X73022600Y-39692009D01*
X73022600Y-39566009D01*
X70792846Y-39566009D01*
X70792846Y-39692009D01*
X70773161Y-39759048D01*
X70720357Y-39804803D01*
X70668846Y-39816009D01*
X68689311Y-39816009D01*
X68622272Y-39796324D01*
X68576517Y-39743520D01*
X68566573Y-39674362D01*
X68576787Y-39639910D01*
X68666853Y-39445384D01*
X68671864Y-39435702D01*
X68884223Y-39066150D01*
X68890065Y-39056946D01*
X69134064Y-38707470D01*
X69140692Y-38698814D01*
X69414448Y-38372115D01*
X69421810Y-38364075D01*
X69723188Y-38062697D01*
X69731228Y-38055334D01*
X70057933Y-37781574D01*
X70066589Y-37774947D01*
X70416054Y-37530956D01*
X70425258Y-37525114D01*
X70794815Y-37312752D01*
X70804497Y-37307741D01*
X71191276Y-37128660D01*
X71201361Y-37124519D01*
X71602379Y-36980101D01*
X71612787Y-36976862D01*
X72024928Y-36868226D01*
X72035582Y-36865913D01*
X72455681Y-36793895D01*
X72466497Y-36792527D01*
X72891964Y-36757631D01*
X72901510Y-36757217D01*
X73115104Y-36756201D01*
X73115694Y-36756200D01*
X133114938Y-36756200D01*
X133115525Y-36756201D01*
G37*
G36*
X133070439Y-151935971D02*
G01*
X133116194Y-151988775D01*
X133127400Y-152040286D01*
X133127400Y-153888191D01*
X133253400Y-153888191D01*
X133320439Y-153907876D01*
X133366194Y-153960680D01*
X133377400Y-154012191D01*
X133377400Y-154387789D01*
X133375017Y-154411982D01*
X133363181Y-154471482D01*
X133344667Y-154516179D01*
X133317881Y-154556268D01*
X133283668Y-154590481D01*
X133243579Y-154617267D01*
X133198882Y-154635781D01*
X133139382Y-154647617D01*
X133115189Y-154650000D01*
X129937211Y-154650000D01*
X129913019Y-154647617D01*
X129853518Y-154635781D01*
X129808820Y-154617267D01*
X129768731Y-154590481D01*
X129734518Y-154556268D01*
X129707732Y-154516179D01*
X129689218Y-154471480D01*
X129677383Y-154411980D01*
X129675000Y-154387789D01*
X129675000Y-154012191D01*
X129694685Y-153945152D01*
X129747489Y-153899397D01*
X129799000Y-153888191D01*
X129925000Y-153888191D01*
X129925000Y-153652000D01*
X130923000Y-153652000D01*
X131626000Y-153652000D01*
X131626000Y-152914286D01*
X130923000Y-152914286D01*
X130923000Y-153652000D01*
X129925000Y-153652000D01*
X129925000Y-152040286D01*
X129944685Y-151973247D01*
X129997489Y-151927492D01*
X130049000Y-151916286D01*
X133003400Y-151916286D01*
X133070439Y-151935971D01*
G37*
G36*
X136011980Y-148452383D02*
G01*
X136071480Y-148464218D01*
X136116179Y-148482732D01*
X136156268Y-148509518D01*
X136190481Y-148543731D01*
X136217267Y-148583820D01*
X136235781Y-148628517D01*
X136247617Y-148688017D01*
X136250000Y-148712210D01*
X136250000Y-151904075D01*
X136247617Y-151928268D01*
X136235781Y-151987768D01*
X136217267Y-152032465D01*
X136190481Y-152072554D01*
X136156268Y-152106767D01*
X136116179Y-152133553D01*
X136071482Y-152152067D01*
X136011982Y-152163903D01*
X135987789Y-152166286D01*
X135424000Y-152166286D01*
X135356961Y-152146601D01*
X135311206Y-152093797D01*
X135300000Y-152042286D01*
X135300000Y-151916286D01*
X133251400Y-151916286D01*
X133184361Y-151896601D01*
X133138606Y-151843797D01*
X133127400Y-151792286D01*
X133127400Y-148824000D01*
X133147085Y-148756961D01*
X133199889Y-148711206D01*
X133251400Y-148700000D01*
X135300000Y-148700000D01*
X135300000Y-148574000D01*
X135319685Y-148506961D01*
X135372489Y-148461206D01*
X135424000Y-148450000D01*
X135987789Y-148450000D01*
X136011980Y-148452383D01*
G37*
G36*
X70735885Y-153657876D02*
G01*
X70781640Y-153710680D01*
X70792846Y-153762191D01*
X70792846Y-153888191D01*
X73033714Y-153888191D01*
X73033714Y-153762191D01*
X73053399Y-153695152D01*
X73106203Y-153649397D01*
X73157714Y-153638191D01*
X76126000Y-153638191D01*
X76193039Y-153657876D01*
X76238794Y-153710680D01*
X76250000Y-153762191D01*
X76250000Y-153888191D01*
X129925000Y-153888191D01*
X129925000Y-153762191D01*
X129944685Y-153695152D01*
X129997489Y-153649397D01*
X130049000Y-153638191D01*
X133003400Y-153638191D01*
X133070439Y-153657876D01*
X133116194Y-153710680D01*
X133127400Y-153762191D01*
X133127400Y-153888191D01*
X135300000Y-153888191D01*
X135300000Y-153762191D01*
X135319685Y-153695152D01*
X135372489Y-153649397D01*
X135424000Y-153638191D01*
X137568280Y-153638191D01*
X137635319Y-153657876D01*
X137681074Y-153710680D01*
X137691018Y-153779838D01*
X137680804Y-153814290D01*
X137563785Y-154067027D01*
X137558775Y-154076709D01*
X137346415Y-154446268D01*
X137340572Y-154455472D01*
X137096580Y-154804939D01*
X137089953Y-154813595D01*
X136816198Y-155140295D01*
X136808836Y-155148335D01*
X136507447Y-155449726D01*
X136499406Y-155457089D01*
X136172711Y-155730841D01*
X136164055Y-155737468D01*
X135814578Y-155981467D01*
X135805374Y-155987309D01*
X135435821Y-156199669D01*
X135426139Y-156204680D01*
X135039355Y-156383762D01*
X135029270Y-156387903D01*
X134628266Y-156532316D01*
X134617857Y-156535556D01*
X134205695Y-156644196D01*
X134195041Y-156646508D01*
X133774947Y-156718524D01*
X133764132Y-156719892D01*
X133338669Y-156754787D01*
X133329112Y-156755201D01*
X133115528Y-156756199D01*
X133114949Y-156756200D01*
X73115690Y-156756200D01*
X73115103Y-156756199D01*
X72901509Y-156755188D01*
X72891961Y-156754774D01*
X72466493Y-156719881D01*
X72455677Y-156718513D01*
X72035584Y-156646500D01*
X72024931Y-156644188D01*
X71612771Y-156535551D01*
X71602361Y-156532311D01*
X71201353Y-156387898D01*
X71191268Y-156383757D01*
X70804484Y-156204676D01*
X70794802Y-156199666D01*
X70425250Y-155987310D01*
X70416046Y-155981468D01*
X70066563Y-155737466D01*
X70057907Y-155730838D01*
X69731214Y-155457088D01*
X69723174Y-155449726D01*
X69421783Y-155148337D01*
X69414420Y-155140296D01*
X69140668Y-154813601D01*
X69134041Y-154804945D01*
X68890041Y-154455467D01*
X68884199Y-154446263D01*
X68671840Y-154076710D01*
X68666829Y-154067028D01*
X68549811Y-153814290D01*
X68539507Y-153745184D01*
X68568200Y-153681478D01*
X68626780Y-153643398D01*
X68662335Y-153638191D01*
X70668846Y-153638191D01*
X70735885Y-153657876D01*
G37*
G36*
X135226099Y-37215115D02*
G01*
X135426132Y-37307731D01*
X135435814Y-37312742D01*
X135805372Y-37525105D01*
X135814576Y-37530947D01*
X136164049Y-37774943D01*
X136172705Y-37781571D01*
X136499396Y-38055321D01*
X136507436Y-38062683D01*
X136808820Y-38364067D01*
X136816183Y-38372107D01*
X137089942Y-38698812D01*
X137096570Y-38707468D01*
X137340561Y-39056934D01*
X137346403Y-39066138D01*
X137558763Y-39435697D01*
X137563773Y-39445379D01*
X137742854Y-39832161D01*
X137746995Y-39842246D01*
X137891407Y-40243250D01*
X137894647Y-40253659D01*
X138003287Y-40665823D01*
X138005599Y-40676477D01*
X138077612Y-41096566D01*
X138078980Y-41107382D01*
X138113873Y-41532852D01*
X138114287Y-41542391D01*
X138115313Y-41755990D01*
X138115314Y-41756586D01*
X138115314Y-151755824D01*
X138115313Y-151756412D01*
X138114301Y-151970005D01*
X138113887Y-151979552D01*
X138078994Y-152405019D01*
X138077626Y-152415835D01*
X138005612Y-152835925D01*
X138003300Y-152846579D01*
X137894660Y-153258744D01*
X137891420Y-153269153D01*
X137747008Y-153670158D01*
X137742867Y-153680243D01*
X137563785Y-154067027D01*
X137558775Y-154076709D01*
X137346415Y-154446268D01*
X137340572Y-154455472D01*
X137096580Y-154804939D01*
X137089953Y-154813595D01*
X136816198Y-155140295D01*
X136808836Y-155148335D01*
X136507447Y-155449726D01*
X136499406Y-155457089D01*
X136172711Y-155730841D01*
X136164055Y-155737468D01*
X135814578Y-155981467D01*
X135805374Y-155987309D01*
X135435821Y-156199669D01*
X135426139Y-156204680D01*
X135226099Y-156297299D01*
X135156993Y-156307603D01*
X135093287Y-156278910D01*
X135055207Y-156220330D01*
X135050000Y-156184775D01*
X135050000Y-154012191D01*
X135069685Y-153945152D01*
X135122489Y-153899397D01*
X135174000Y-153888191D01*
X135300000Y-153888191D01*
X135300000Y-151916286D01*
X135174000Y-151916286D01*
X135106961Y-151896601D01*
X135061206Y-151843797D01*
X135050000Y-151792286D01*
X135050000Y-148824000D01*
X135069685Y-148756961D01*
X135122489Y-148711206D01*
X135174000Y-148700000D01*
X135300000Y-148700000D01*
X135300000Y-44900000D01*
X135174000Y-44900000D01*
X135106961Y-44880315D01*
X135061206Y-44827511D01*
X135050000Y-44776000D01*
X135050000Y-41821600D01*
X135069685Y-41754561D01*
X135122489Y-41708806D01*
X135174000Y-41697600D01*
X135300000Y-41697600D01*
X135300000Y-39566009D01*
X135174000Y-39566009D01*
X135106961Y-39546324D01*
X135061206Y-39493520D01*
X135050000Y-39442009D01*
X135050000Y-37327639D01*
X135069685Y-37260600D01*
X135122489Y-37214845D01*
X135191647Y-37204901D01*
X135226099Y-37215115D01*
G37*
G36*
X76193039Y-151997085D02*
G01*
X76238794Y-152049889D01*
X76250000Y-152101400D01*
X76250000Y-153888191D01*
X76376000Y-153888191D01*
X76443039Y-153907876D01*
X76488794Y-153960680D01*
X76500000Y-154012191D01*
X76500000Y-154837789D01*
X76497617Y-154861982D01*
X76485781Y-154921482D01*
X76467267Y-154966179D01*
X76440481Y-155006268D01*
X76406268Y-155040481D01*
X76366179Y-155067267D01*
X76321482Y-155085781D01*
X76261982Y-155097617D01*
X76237789Y-155100000D01*
X73045925Y-155100000D01*
X73021733Y-155097617D01*
X72962232Y-155085781D01*
X72917534Y-155067267D01*
X72877445Y-155040481D01*
X72843232Y-155006268D01*
X72816446Y-154966179D01*
X72797932Y-154921480D01*
X72786097Y-154861980D01*
X72783714Y-154837789D01*
X72783714Y-154012191D01*
X72803399Y-153945152D01*
X72856203Y-153899397D01*
X72907714Y-153888191D01*
X73033714Y-153888191D01*
X73033714Y-152101400D01*
X73053399Y-152034361D01*
X73106203Y-151988606D01*
X73157714Y-151977400D01*
X76126000Y-151977400D01*
X76193039Y-151997085D01*
G37*
%LPD*%
M02*
