%TF.GenerationSoftware,KiCad,Pcbnew,10.0.2*%
%TF.CreationDate,2026-05-17T14:06:41+02:00*%
%TF.ProjectId,Amon_board,416d6f6e-5f62-46f6-9172-642e6b696361,2.2*%
%TF.SameCoordinates,Original*%
%TF.FileFunction,Paste,Top*%
%TF.FilePolarity,Positive*%
%FSLAX46Y46*%
G04 Gerber Fmt 4.6, Leading zero omitted, Abs format (unit mm)*
G04 Created by KiCad (PCBNEW 10.0.2) date 2026-05-17 14:06:41*
%MOMM*%
%LPD*%
G01*
G04 APERTURE LIST*
G04 Aperture macros list*
%AMRoundRect*
0 Rectangle with rounded corners*
0 $1 Rounding radius*
0 $2 $3 $4 $5 $6 $7 $8 $9 X,Y pos of 4 corners*
0 Add a 4 corners polygon primitive as box body*
4,1,4,$2,$3,$4,$5,$6,$7,$8,$9,$2,$3,0*
0 Add four circle primitives for the rounded corners*
1,1,$1+$1,$2,$3*
1,1,$1+$1,$4,$5*
1,1,$1+$1,$6,$7*
1,1,$1+$1,$8,$9*
0 Add four rect primitives between the rounded corners*
20,1,$1+$1,$2,$3,$4,$5,0*
20,1,$1+$1,$4,$5,$6,$7,0*
20,1,$1+$1,$6,$7,$8,$9,0*
20,1,$1+$1,$8,$9,$2,$3,0*%
%AMRotRect*
0 Rectangle, with rotation*
0 The origin of the aperture is its center*
0 $1 length*
0 $2 width*
0 $3 Rotation angle, in degrees counterclockwise*
0 Add horizontal line*
21,1,$1,$2,0,0,$3*%
G04 Aperture macros list end*
%ADD10C,0.010000*%
%ADD11R,1.150000X0.300000*%
%ADD12RoundRect,0.200000X-0.200000X-0.275000X0.200000X-0.275000X0.200000X0.275000X-0.200000X0.275000X0*%
%ADD13RotRect,0.900000X1.000000X135.000000*%
%ADD14RoundRect,0.200000X-0.275000X0.200000X-0.275000X-0.200000X0.275000X-0.200000X0.275000X0.200000X0*%
%ADD15RoundRect,0.225000X0.250000X-0.225000X0.250000X0.225000X-0.250000X0.225000X-0.250000X-0.225000X0*%
%ADD16RoundRect,0.200000X0.275000X-0.200000X0.275000X0.200000X-0.275000X0.200000X-0.275000X-0.200000X0*%
%ADD17RoundRect,0.200000X0.200000X0.275000X-0.200000X0.275000X-0.200000X-0.275000X0.200000X-0.275000X0*%
%ADD18RoundRect,0.140000X0.140000X0.170000X-0.140000X0.170000X-0.140000X-0.170000X0.140000X-0.170000X0*%
%ADD19RoundRect,0.250000X0.325000X0.650000X-0.325000X0.650000X-0.325000X-0.650000X0.325000X-0.650000X0*%
%ADD20RoundRect,0.225000X0.225000X0.250000X-0.225000X0.250000X-0.225000X-0.250000X0.225000X-0.250000X0*%
%ADD21R,2.400000X0.740000*%
%ADD22RoundRect,0.250000X0.500000X2.290000X-0.500000X2.290000X-0.500000X-2.290000X0.500000X-2.290000X0*%
%ADD23R,1.500000X5.080000*%
%ADD24RoundRect,0.135000X0.135000X0.185000X-0.135000X0.185000X-0.135000X-0.185000X0.135000X-0.185000X0*%
%ADD25RoundRect,0.250000X0.925000X1.500000X-0.925000X1.500000X-0.925000X-1.500000X0.925000X-1.500000X0*%
%ADD26RoundRect,0.218750X0.218750X0.256250X-0.218750X0.256250X-0.218750X-0.256250X0.218750X-0.256250X0*%
%ADD27RoundRect,0.250000X-0.312500X-0.625000X0.312500X-0.625000X0.312500X0.625000X-0.312500X0.625000X0*%
%ADD28RoundRect,0.140000X0.170000X-0.140000X0.170000X0.140000X-0.170000X0.140000X-0.170000X-0.140000X0*%
%ADD29R,1.200000X1.400000*%
%ADD30RoundRect,0.140000X-0.140000X-0.170000X0.140000X-0.170000X0.140000X0.170000X-0.140000X0.170000X0*%
%ADD31RoundRect,0.135000X0.185000X-0.135000X0.185000X0.135000X-0.185000X0.135000X-0.185000X-0.135000X0*%
%ADD32RoundRect,0.225000X-0.017678X0.335876X-0.335876X0.017678X0.017678X-0.335876X0.335876X-0.017678X0*%
%ADD33RoundRect,0.140000X-0.170000X0.140000X-0.170000X-0.140000X0.170000X-0.140000X0.170000X0.140000X0*%
%ADD34RoundRect,0.225000X-0.225000X-0.250000X0.225000X-0.250000X0.225000X0.250000X-0.225000X0.250000X0*%
%ADD35RoundRect,0.225000X-0.335876X-0.017678X-0.017678X-0.335876X0.335876X0.017678X0.017678X0.335876X0*%
%ADD36R,2.500000X1.800000*%
%ADD37RoundRect,0.250000X-0.625000X0.312500X-0.625000X-0.312500X0.625000X-0.312500X0.625000X0.312500X0*%
%ADD38RoundRect,0.225000X-0.250000X0.225000X-0.250000X-0.225000X0.250000X-0.225000X0.250000X0.225000X0*%
%ADD39RoundRect,0.250000X-0.325000X-0.650000X0.325000X-0.650000X0.325000X0.650000X-0.325000X0.650000X0*%
%ADD40RoundRect,0.150000X-0.150000X0.650000X-0.150000X-0.650000X0.150000X-0.650000X0.150000X0.650000X0*%
%ADD41R,0.500000X0.350000*%
%ADD42RoundRect,0.250000X0.425000X-0.450000X0.425000X0.450000X-0.425000X0.450000X-0.425000X-0.450000X0*%
%ADD43RoundRect,0.140000X-0.219203X-0.021213X-0.021213X-0.219203X0.219203X0.021213X0.021213X0.219203X0*%
%ADD44R,1.600000X0.700000*%
%ADD45R,1.400000X1.200000*%
%ADD46R,1.400000X1.600000*%
%ADD47R,2.200000X1.200000*%
%ADD48RoundRect,0.147500X0.172500X-0.147500X0.172500X0.147500X-0.172500X0.147500X-0.172500X-0.147500X0*%
%ADD49RoundRect,0.250000X0.280000X0.455000X-0.280000X0.455000X-0.280000X-0.455000X0.280000X-0.455000X0*%
%ADD50RoundRect,0.150000X0.820000X0.150000X-0.820000X0.150000X-0.820000X-0.150000X0.820000X-0.150000X0*%
%ADD51RoundRect,0.200000X-0.335876X-0.053033X-0.053033X-0.335876X0.335876X0.053033X0.053033X0.335876X0*%
%ADD52RoundRect,0.140000X0.219203X0.021213X0.021213X0.219203X-0.219203X-0.021213X-0.021213X-0.219203X0*%
%ADD53R,0.400000X1.900000*%
%ADD54RoundRect,0.250000X0.650000X-1.000000X0.650000X1.000000X-0.650000X1.000000X-0.650000X-1.000000X0*%
%ADD55RoundRect,0.250000X-0.650000X0.325000X-0.650000X-0.325000X0.650000X-0.325000X0.650000X0.325000X0*%
%ADD56RoundRect,0.147500X0.147500X0.172500X-0.147500X0.172500X-0.147500X-0.172500X0.147500X-0.172500X0*%
%ADD57RoundRect,0.135000X-0.135000X-0.185000X0.135000X-0.185000X0.135000X0.185000X-0.135000X0.185000X0*%
%ADD58RoundRect,0.225000X0.335876X0.017678X0.017678X0.335876X-0.335876X-0.017678X-0.017678X-0.335876X0*%
%ADD59RoundRect,0.150000X0.587500X0.150000X-0.587500X0.150000X-0.587500X-0.150000X0.587500X-0.150000X0*%
%ADD60RoundRect,0.075000X-0.459619X-0.565685X0.565685X0.459619X0.459619X0.565685X-0.565685X-0.459619X0*%
%ADD61RoundRect,0.075000X0.459619X-0.565685X0.565685X-0.459619X-0.459619X0.565685X-0.565685X0.459619X0*%
%ADD62RoundRect,0.250000X-0.238649X0.751301X-0.751301X0.238649X0.238649X-0.751301X0.751301X-0.238649X0*%
%ADD63RoundRect,0.250000X0.445000X-0.457500X0.445000X0.457500X-0.445000X0.457500X-0.445000X-0.457500X0*%
%ADD64RoundRect,0.250000X1.000000X0.650000X-1.000000X0.650000X-1.000000X-0.650000X1.000000X-0.650000X0*%
%ADD65RoundRect,0.033750X0.101250X-0.371250X0.101250X0.371250X-0.101250X0.371250X-0.101250X-0.371250X0*%
%ADD66RoundRect,0.033750X0.371250X-0.101250X0.371250X0.101250X-0.371250X0.101250X-0.371250X-0.101250X0*%
%ADD67RoundRect,0.150000X-0.587500X-0.150000X0.587500X-0.150000X0.587500X0.150000X-0.587500X0.150000X0*%
%ADD68RotRect,1.400000X1.200000X315.000000*%
%ADD69R,0.650000X0.280000*%
%ADD70R,0.280000X0.650000*%
%ADD71RotRect,1.000000X1.800000X135.000000*%
%ADD72RoundRect,0.150000X0.150000X-0.825000X0.150000X0.825000X-0.150000X0.825000X-0.150000X-0.825000X0*%
%ADD73RoundRect,0.250000X0.312500X0.625000X-0.312500X0.625000X-0.312500X-0.625000X0.312500X-0.625000X0*%
%ADD74R,0.800000X1.000000*%
%ADD75RoundRect,0.250000X0.255000X-0.255000X0.255000X0.255000X-0.255000X0.255000X-0.255000X-0.255000X0*%
%ADD76RoundRect,0.062500X0.062500X-0.350000X0.062500X0.350000X-0.062500X0.350000X-0.062500X-0.350000X0*%
%ADD77RoundRect,0.062500X0.350000X-0.062500X0.350000X0.062500X-0.350000X0.062500X-0.350000X-0.062500X0*%
%ADD78RoundRect,0.075000X0.075000X-0.350000X0.075000X0.350000X-0.075000X0.350000X-0.075000X-0.350000X0*%
%ADD79RoundRect,0.075000X0.350000X0.075000X-0.350000X0.075000X-0.350000X-0.075000X0.350000X-0.075000X0*%
%ADD80RoundRect,0.218750X-0.218750X-0.256250X0.218750X-0.256250X0.218750X0.256250X-0.218750X0.256250X0*%
G04 APERTURE END LIST*
D10*
X84710000Y-50940000D02*
X84710000Y-49860000D01*
X85790000Y-49860000D01*
X85790000Y-50940000D01*
X84710000Y-50940000D01*
G36*
X85790000Y-50940000D02*
G01*
X84710000Y-50940000D01*
X84710000Y-49860000D01*
X85790000Y-49860000D01*
X85790000Y-50940000D01*
G37*
X104760000Y-50985000D02*
X104760000Y-49905000D01*
X105840000Y-49905000D01*
X105840000Y-50985000D01*
X104760000Y-50985000D01*
G36*
X105840000Y-50985000D02*
G01*
X104760000Y-50985000D01*
X104760000Y-49905000D01*
X105840000Y-49905000D01*
X105840000Y-50985000D01*
G37*
D11*
X131530000Y-69150000D03*
X131530000Y-68350000D03*
X131530000Y-67050000D03*
X131530000Y-66050000D03*
X131530000Y-65550000D03*
X131530000Y-64550000D03*
X131530000Y-63250000D03*
X131530000Y-62450000D03*
X131530000Y-62750000D03*
X131530000Y-63550000D03*
X131530000Y-64050000D03*
X131530000Y-65050000D03*
X131530000Y-66550000D03*
X131530000Y-67550000D03*
X131530000Y-68050000D03*
X131530000Y-68850000D03*
D12*
X122862500Y-102050000D03*
X121212500Y-102050000D03*
D13*
X88912259Y-99682969D03*
X91811396Y-102582106D03*
X87780888Y-100814340D03*
X90680025Y-103713477D03*
D14*
X128675000Y-114475000D03*
X128675000Y-116125000D03*
D15*
X128675000Y-129900000D03*
X128675000Y-128350000D03*
X128075000Y-144450000D03*
X128075000Y-142900000D03*
X122025000Y-72300000D03*
X122025000Y-70750000D03*
D14*
X118850000Y-72375000D03*
X118850000Y-70725000D03*
D16*
X120475000Y-72350000D03*
X120475000Y-70700000D03*
D17*
X114650000Y-107475000D03*
X113000000Y-107475000D03*
X110450000Y-115100000D03*
X108800000Y-115100000D03*
D12*
X108450000Y-107475000D03*
X110100000Y-107475000D03*
D16*
X119075000Y-82200000D03*
X119075000Y-80550000D03*
D14*
X119075000Y-77275000D03*
X119075000Y-78925000D03*
D18*
X126015000Y-70875000D03*
X125055000Y-70875000D03*
D12*
X80775000Y-75525000D03*
X82425000Y-75525000D03*
D19*
X86996800Y-119411600D03*
X84046800Y-119411600D03*
D20*
X75125000Y-78625000D03*
X73575000Y-78625000D03*
D21*
X73775000Y-71610000D03*
X77675000Y-71610000D03*
X73775000Y-72880000D03*
X77675000Y-72880000D03*
X73775000Y-74150000D03*
X77675000Y-74150000D03*
X73775000Y-75420000D03*
X77675000Y-75420000D03*
X73775000Y-76690000D03*
X77675000Y-76690000D03*
D22*
X85565314Y-39456200D03*
D23*
X81315314Y-39456200D03*
X89815314Y-39456200D03*
D24*
X109110000Y-50700000D03*
X108090000Y-50700000D03*
D19*
X121375000Y-119925000D03*
X118425000Y-119925000D03*
D17*
X114150000Y-145650000D03*
X112500000Y-145650000D03*
D25*
X120675000Y-127125000D03*
X114625000Y-127125000D03*
D12*
X108480000Y-136225000D03*
X110130000Y-136225000D03*
D26*
X110092500Y-134675000D03*
X108517500Y-134675000D03*
D24*
X101840000Y-59975000D03*
X102860000Y-59975000D03*
D17*
X78175000Y-78625000D03*
X76525000Y-78625000D03*
D27*
X85887500Y-112800000D03*
X88812500Y-112800000D03*
D28*
X86050000Y-54930000D03*
X86050000Y-53970000D03*
D29*
X112750000Y-61450000D03*
X112750000Y-59250000D03*
X111050000Y-59250000D03*
X111050000Y-61450000D03*
D17*
X89875000Y-74046667D03*
X88225000Y-74046667D03*
D30*
X105570000Y-47700000D03*
X106530000Y-47700000D03*
X88020000Y-56800000D03*
X88980000Y-56800000D03*
D31*
X89513000Y-60885000D03*
X89513000Y-59865000D03*
D12*
X77058600Y-137323600D03*
X78708600Y-137323600D03*
D32*
X92894150Y-103725215D03*
X91798134Y-104821231D03*
D33*
X82950000Y-62370000D03*
X82950000Y-63330000D03*
D12*
X112427500Y-142775000D03*
X114077500Y-142775000D03*
D25*
X86196800Y-126661600D03*
X80146800Y-126661600D03*
D17*
X96001300Y-132828686D03*
X94351300Y-132828686D03*
D18*
X111580000Y-57750000D03*
X110620000Y-57750000D03*
D17*
X78708600Y-132751600D03*
X77058600Y-132751600D03*
D34*
X126195800Y-75875000D03*
X127745800Y-75875000D03*
D35*
X96576992Y-103801992D03*
X97673008Y-104898008D03*
D20*
X95951300Y-138988772D03*
X94401300Y-138988772D03*
D12*
X80775000Y-77075000D03*
X82425000Y-77075000D03*
D30*
X105570000Y-46700000D03*
X106530000Y-46700000D03*
D36*
X102552500Y-132278686D03*
X98552500Y-132278686D03*
D37*
X83225000Y-85063900D03*
X83225000Y-87988900D03*
D38*
X127744400Y-80599400D03*
X127744400Y-82149400D03*
D24*
X82960000Y-60025000D03*
X81940000Y-60025000D03*
X109110000Y-51700000D03*
X108090000Y-51700000D03*
D39*
X79296800Y-121811600D03*
X82246800Y-121811600D03*
D40*
X89455000Y-81475000D03*
X88185000Y-81475000D03*
X86915000Y-81475000D03*
X85645000Y-81475000D03*
X85645000Y-88675000D03*
X86915000Y-88675000D03*
X88185000Y-88675000D03*
X89455000Y-88675000D03*
D18*
X102830000Y-61275000D03*
X101870000Y-61275000D03*
D30*
X107920000Y-55850000D03*
X108880000Y-55850000D03*
D20*
X78658600Y-138847600D03*
X77108600Y-138847600D03*
D38*
X127724400Y-83649400D03*
X127724400Y-85199400D03*
D41*
X130088600Y-86924400D03*
X130088600Y-86274400D03*
X130088600Y-85624400D03*
X130088600Y-84974400D03*
X131688600Y-84974400D03*
X131688600Y-85624400D03*
X131688600Y-86274400D03*
X131688600Y-86924400D03*
D17*
X106875000Y-145700000D03*
X105225000Y-145700000D03*
D30*
X112220000Y-63050000D03*
X113180000Y-63050000D03*
D17*
X106825000Y-147575000D03*
X105175000Y-147575000D03*
D12*
X108480000Y-131575000D03*
X110130000Y-131575000D03*
D20*
X75375000Y-70000000D03*
X73825000Y-70000000D03*
D12*
X108475000Y-137750000D03*
X110125000Y-137750000D03*
D17*
X103900000Y-142475000D03*
X102250000Y-142475000D03*
D16*
X129225000Y-68700000D03*
X129225000Y-67050000D03*
D20*
X113130000Y-136225000D03*
X111580000Y-136225000D03*
D30*
X85570000Y-43900000D03*
X86530000Y-43900000D03*
D34*
X118475000Y-117525000D03*
X120025000Y-117525000D03*
D30*
X110320000Y-63050000D03*
X111280000Y-63050000D03*
D34*
X120800000Y-87475000D03*
X122350000Y-87475000D03*
D17*
X121475000Y-145650000D03*
X119825000Y-145650000D03*
D19*
X104427500Y-122075000D03*
X101477500Y-122075000D03*
D34*
X122180000Y-139625000D03*
X123730000Y-139625000D03*
D42*
X88043600Y-137200400D03*
X88043600Y-134500400D03*
D16*
X104175000Y-66750000D03*
X104175000Y-65100000D03*
D43*
X96531731Y-99708812D03*
X97210553Y-100387634D03*
D22*
X105565314Y-39456200D03*
D23*
X101315314Y-39456200D03*
X109815314Y-39456200D03*
D17*
X89875000Y-72525000D03*
X88225000Y-72525000D03*
X75731400Y-132751600D03*
X74081400Y-132751600D03*
D44*
X125200000Y-95400000D03*
X125200000Y-96500000D03*
X125200000Y-97600000D03*
X125200000Y-98700000D03*
X125200000Y-99800000D03*
X125200000Y-100900000D03*
X125200000Y-102000000D03*
X125200000Y-103100000D03*
X125200000Y-104200000D03*
D45*
X125700000Y-105400000D03*
D46*
X125700000Y-90800000D03*
D47*
X135300000Y-105400000D03*
X135300000Y-89900000D03*
D32*
X101948008Y-107026992D03*
X100851992Y-108123008D03*
D31*
X109400000Y-60860000D03*
X109400000Y-59840000D03*
D48*
X87050000Y-56785000D03*
X87050000Y-55815000D03*
D12*
X95277500Y-140775000D03*
X96927500Y-140775000D03*
D17*
X92977500Y-129775000D03*
X91327500Y-129775000D03*
D12*
X131100000Y-58125000D03*
X132750000Y-58125000D03*
D32*
X107773008Y-100376992D03*
X106676992Y-101473008D03*
D49*
X118305000Y-137975000D03*
X118305000Y-136225000D03*
X116995000Y-137975000D03*
X116995000Y-136225000D03*
D50*
X120130000Y-139005000D03*
X120130000Y-137735000D03*
X120130000Y-136465000D03*
X120130000Y-135195000D03*
X115170000Y-135195000D03*
X115170000Y-136465000D03*
X115170000Y-137735000D03*
X115170000Y-139005000D03*
D19*
X86996800Y-121811600D03*
X84046800Y-121811600D03*
D17*
X110130000Y-130025000D03*
X108480000Y-130025000D03*
D18*
X91693000Y-57675000D03*
X90733000Y-57675000D03*
D32*
X90198008Y-94176992D03*
X89101992Y-95273008D03*
D20*
X105175000Y-76225000D03*
X103625000Y-76225000D03*
D43*
X92960589Y-96285589D03*
X93639411Y-96964411D03*
D51*
X93491637Y-82591637D03*
X94658363Y-83758363D03*
D42*
X105452500Y-137528686D03*
X105452500Y-134828686D03*
D48*
X106950000Y-56835000D03*
X106950000Y-55865000D03*
D30*
X85520000Y-47700000D03*
X86480000Y-47700000D03*
D17*
X110130000Y-133125000D03*
X108480000Y-133125000D03*
D34*
X120800000Y-84450000D03*
X122350000Y-84450000D03*
D30*
X92320000Y-62950000D03*
X93280000Y-62950000D03*
D52*
X92314411Y-95639411D03*
X91635589Y-94960589D03*
D53*
X125285000Y-72675000D03*
X126485000Y-72675000D03*
X127685000Y-72675000D03*
D32*
X103023008Y-108101992D03*
X101926992Y-109198008D03*
D19*
X121375000Y-122325000D03*
X118425000Y-122325000D03*
D34*
X101527500Y-117275000D03*
X103077500Y-117275000D03*
D18*
X82930000Y-61225000D03*
X81970000Y-61225000D03*
D54*
X83375000Y-112400000D03*
X83375000Y-108400000D03*
D30*
X107920000Y-56850000D03*
X108880000Y-56850000D03*
D12*
X88250000Y-79600000D03*
X89900000Y-79600000D03*
D36*
X85171800Y-132061600D03*
X81171800Y-132061600D03*
D34*
X84046800Y-117011600D03*
X85596800Y-117011600D03*
D24*
X89060000Y-50650000D03*
X88040000Y-50650000D03*
D34*
X85300000Y-79600000D03*
X86850000Y-79600000D03*
D16*
X85275000Y-66800000D03*
X85275000Y-65150000D03*
D30*
X104070000Y-57750000D03*
X105030000Y-57750000D03*
D17*
X113180000Y-137775000D03*
X111530000Y-137775000D03*
D55*
X94852500Y-128253686D03*
X94852500Y-131203686D03*
D18*
X102680000Y-51200000D03*
X101720000Y-51200000D03*
D39*
X79296800Y-119411600D03*
X82246800Y-119411600D03*
D55*
X77521800Y-128186600D03*
X77521800Y-131136600D03*
D56*
X87035000Y-57750000D03*
X86065000Y-57750000D03*
D57*
X108090000Y-49650000D03*
X109110000Y-49650000D03*
D58*
X95898008Y-97123008D03*
X94801992Y-96026992D03*
D15*
X127732800Y-78931800D03*
X127732800Y-77381800D03*
D39*
X96777500Y-117275000D03*
X99727500Y-117275000D03*
D30*
X88020000Y-55800000D03*
X88980000Y-55800000D03*
D48*
X86050000Y-56785000D03*
X86050000Y-55815000D03*
D39*
X79296800Y-117011600D03*
X82246800Y-117011600D03*
D17*
X92958700Y-139000000D03*
X91308700Y-139000000D03*
D20*
X131699400Y-83575000D03*
X130149400Y-83575000D03*
D17*
X89875000Y-77090000D03*
X88225000Y-77090000D03*
D12*
X121203700Y-100519800D03*
X122853700Y-100519800D03*
D59*
X117677500Y-142775000D03*
X117677500Y-140875000D03*
X115802500Y-141825000D03*
D17*
X114150000Y-147500000D03*
X112500000Y-147500000D03*
D59*
X100527500Y-142450000D03*
X100527500Y-140550000D03*
X98652500Y-141500000D03*
D12*
X94351300Y-134378686D03*
X96001300Y-134378686D03*
D18*
X86030000Y-53050000D03*
X85070000Y-53050000D03*
D56*
X106935000Y-57750000D03*
X105965000Y-57750000D03*
D60*
X94730315Y-90434404D03*
X95083868Y-90787957D03*
X95437422Y-91141511D03*
X95790975Y-91495064D03*
X96144528Y-91848617D03*
X96498082Y-92202171D03*
X96851635Y-92555724D03*
X97205189Y-92909278D03*
X97558742Y-93262831D03*
X97912295Y-93616384D03*
X98265849Y-93969938D03*
X98619402Y-94323491D03*
X98972955Y-94677045D03*
X99326509Y-95030598D03*
X99680062Y-95384151D03*
X100033616Y-95737705D03*
X100387169Y-96091258D03*
X100740722Y-96444811D03*
X101094276Y-96798365D03*
X101447829Y-97151918D03*
X101801383Y-97505472D03*
X102154936Y-97859025D03*
X102508489Y-98212578D03*
X102862043Y-98566132D03*
X103215596Y-98919685D03*
D61*
X105584404Y-98919685D03*
X105937957Y-98566132D03*
X106291511Y-98212578D03*
X106645064Y-97859025D03*
X106998617Y-97505472D03*
X107352171Y-97151918D03*
X107705724Y-96798365D03*
X108059278Y-96444811D03*
X108412831Y-96091258D03*
X108766384Y-95737705D03*
X109119938Y-95384151D03*
X109473491Y-95030598D03*
X109827045Y-94677045D03*
X110180598Y-94323491D03*
X110534151Y-93969938D03*
X110887705Y-93616384D03*
X111241258Y-93262831D03*
X111594811Y-92909278D03*
X111948365Y-92555724D03*
X112301918Y-92202171D03*
X112655472Y-91848617D03*
X113009025Y-91495064D03*
X113362578Y-91141511D03*
X113716132Y-90787957D03*
X114069685Y-90434404D03*
D60*
X114069685Y-88065596D03*
X113716132Y-87712043D03*
X113362578Y-87358489D03*
X113009025Y-87004936D03*
X112655472Y-86651383D03*
X112301918Y-86297829D03*
X111948365Y-85944276D03*
X111594811Y-85590722D03*
X111241258Y-85237169D03*
X110887705Y-84883616D03*
X110534151Y-84530062D03*
X110180598Y-84176509D03*
X109827045Y-83822955D03*
X109473491Y-83469402D03*
X109119938Y-83115849D03*
X108766384Y-82762295D03*
X108412831Y-82408742D03*
X108059278Y-82055189D03*
X107705724Y-81701635D03*
X107352171Y-81348082D03*
X106998617Y-80994528D03*
X106645064Y-80640975D03*
X106291511Y-80287422D03*
X105937957Y-79933868D03*
X105584404Y-79580315D03*
D61*
X103215596Y-79580315D03*
X102862043Y-79933868D03*
X102508489Y-80287422D03*
X102154936Y-80640975D03*
X101801383Y-80994528D03*
X101447829Y-81348082D03*
X101094276Y-81701635D03*
X100740722Y-82055189D03*
X100387169Y-82408742D03*
X100033616Y-82762295D03*
X99680062Y-83115849D03*
X99326509Y-83469402D03*
X98972955Y-83822955D03*
X98619402Y-84176509D03*
X98265849Y-84530062D03*
X97912295Y-84883616D03*
X97558742Y-85237169D03*
X97205189Y-85590722D03*
X96851635Y-85944276D03*
X96498082Y-86297829D03*
X96144528Y-86651383D03*
X95790975Y-87004936D03*
X95437422Y-87358489D03*
X95083868Y-87712043D03*
X94730315Y-88065596D03*
D28*
X106000000Y-54980000D03*
X106000000Y-54020000D03*
D18*
X102680000Y-52200000D03*
X101720000Y-52200000D03*
D48*
X105600000Y-45785000D03*
X105600000Y-44815000D03*
D38*
X91550000Y-88475000D03*
X91550000Y-90025000D03*
D12*
X112400000Y-141075000D03*
X114050000Y-141075000D03*
D49*
X101207500Y-137686286D03*
X101207500Y-135936286D03*
X99897500Y-137686286D03*
X99897500Y-135936286D03*
D50*
X103032500Y-138716286D03*
X103032500Y-137446286D03*
X103032500Y-136176286D03*
X103032500Y-134906286D03*
X98072500Y-134906286D03*
X98072500Y-136176286D03*
X98072500Y-137446286D03*
X98072500Y-138716286D03*
D12*
X121203700Y-95947800D03*
X122853700Y-95947800D03*
D62*
X104325565Y-109599435D03*
X101974435Y-111950565D03*
D12*
X121203700Y-97471800D03*
X122853700Y-97471800D03*
D33*
X102850000Y-62370000D03*
X102850000Y-63330000D03*
D30*
X126955000Y-70875000D03*
X127915000Y-70875000D03*
D18*
X106030000Y-53100000D03*
X105070000Y-53100000D03*
D34*
X121241500Y-98995800D03*
X122791500Y-98995800D03*
D35*
X97626992Y-102751992D03*
X98723008Y-103848008D03*
D15*
X117450000Y-90000000D03*
X117450000Y-88450000D03*
D20*
X95951300Y-135929572D03*
X94401300Y-135929572D03*
D63*
X122455000Y-137827500D03*
X122455000Y-135122500D03*
D12*
X95277500Y-142475000D03*
X96927500Y-142475000D03*
D64*
X119627500Y-132575000D03*
X115627500Y-132575000D03*
D18*
X82630000Y-52200000D03*
X81670000Y-52200000D03*
D65*
X84500000Y-51845000D03*
X85000000Y-51845000D03*
X85500000Y-51845000D03*
X86000000Y-51845000D03*
D66*
X86695000Y-51150000D03*
X86695000Y-50650000D03*
X86695000Y-50150000D03*
X86695000Y-49650000D03*
D65*
X86000000Y-48955000D03*
X85500000Y-48955000D03*
X85000000Y-48955000D03*
X84500000Y-48955000D03*
D66*
X83805000Y-49650000D03*
X83805000Y-50150000D03*
X83805000Y-50650000D03*
X83805000Y-51150000D03*
D30*
X84170000Y-57750000D03*
X85130000Y-57750000D03*
D19*
X104427500Y-119675000D03*
X101477500Y-119675000D03*
D20*
X113130000Y-139275000D03*
X111580000Y-139275000D03*
D12*
X91308700Y-135912772D03*
X92958700Y-135912772D03*
D52*
X95710553Y-98887634D03*
X95031731Y-98208812D03*
D67*
X91665000Y-140550000D03*
X91665000Y-142450000D03*
X93540000Y-141500000D03*
D32*
X108973008Y-101626992D03*
X107876992Y-102723008D03*
D48*
X106000000Y-56835000D03*
X106000000Y-55865000D03*
D39*
X96777500Y-119675000D03*
X99727500Y-119675000D03*
D12*
X94351300Y-137459172D03*
X96001300Y-137459172D03*
D39*
X113725000Y-122325000D03*
X116675000Y-122325000D03*
D12*
X77058600Y-134275600D03*
X78708600Y-134275600D03*
D68*
X93167284Y-100696446D03*
X94722919Y-102252081D03*
X95925000Y-101050000D03*
X94369365Y-99494365D03*
D69*
X126319400Y-86274400D03*
X126319400Y-85774400D03*
X126319400Y-85274400D03*
X126319400Y-84774400D03*
D70*
X125699400Y-84154400D03*
X125199400Y-84154400D03*
X124699400Y-84154400D03*
X124199400Y-84154400D03*
D69*
X123579400Y-84774400D03*
X123579400Y-85274400D03*
X123579400Y-85774400D03*
X123579400Y-86274400D03*
D70*
X124199400Y-86894400D03*
X124699400Y-86894400D03*
X125199400Y-86894400D03*
X125699400Y-86894400D03*
D30*
X85520000Y-46700000D03*
X86480000Y-46700000D03*
D20*
X78658600Y-135799600D03*
X77108600Y-135799600D03*
D12*
X102250000Y-140825000D03*
X103900000Y-140825000D03*
D65*
X104550000Y-51890000D03*
X105050000Y-51890000D03*
X105550000Y-51890000D03*
X106050000Y-51890000D03*
D66*
X106745000Y-51195000D03*
X106745000Y-50695000D03*
X106745000Y-50195000D03*
X106745000Y-49695000D03*
D65*
X106050000Y-49000000D03*
X105550000Y-49000000D03*
X105050000Y-49000000D03*
X104550000Y-49000000D03*
D66*
X103855000Y-49695000D03*
X103855000Y-50195000D03*
X103855000Y-50695000D03*
X103855000Y-51195000D03*
D58*
X100873008Y-110273008D03*
X99776992Y-109176992D03*
D71*
X90591117Y-96266117D03*
X92358883Y-98033883D03*
D29*
X92863000Y-61425000D03*
X92863000Y-59225000D03*
X91163000Y-59225000D03*
X91163000Y-61425000D03*
D20*
X122350000Y-85975000D03*
X120800000Y-85975000D03*
D26*
X75673900Y-134275600D03*
X74098900Y-134275600D03*
D34*
X87675000Y-139000000D03*
X89225000Y-139000000D03*
D72*
X118215000Y-68425000D03*
X119485000Y-68425000D03*
X120755000Y-68425000D03*
X122025000Y-68425000D03*
X123295000Y-68425000D03*
X124565000Y-68425000D03*
X125835000Y-68425000D03*
X127105000Y-68425000D03*
X127105000Y-63475000D03*
X125835000Y-63475000D03*
X124565000Y-63475000D03*
X123295000Y-63475000D03*
X122025000Y-63475000D03*
X120755000Y-63475000D03*
X119485000Y-63475000D03*
X118215000Y-63475000D03*
D73*
X88812500Y-110500000D03*
X85887500Y-110500000D03*
D74*
X86425000Y-72800000D03*
X85025000Y-72800000D03*
X85025000Y-75300000D03*
X86425000Y-75300000D03*
D67*
X108612500Y-145675000D03*
X108612500Y-147575000D03*
X110487500Y-146625000D03*
D75*
X85450000Y-61775000D03*
X86700000Y-61775000D03*
X85450000Y-60525000D03*
X86700000Y-60525000D03*
D76*
X85075000Y-63087500D03*
X85575000Y-63087500D03*
X86075000Y-63087500D03*
X86575000Y-63087500D03*
X87075000Y-63087500D03*
D77*
X88012500Y-62150000D03*
X88012500Y-61650000D03*
X88012500Y-61150000D03*
X88012500Y-60650000D03*
X88012500Y-60150000D03*
D76*
X87075000Y-59212500D03*
X86575000Y-59212500D03*
X86075000Y-59212500D03*
X85575000Y-59212500D03*
X85075000Y-59212500D03*
D77*
X84137500Y-60150000D03*
X84137500Y-60650000D03*
X84137500Y-61150000D03*
X84137500Y-61650000D03*
X84137500Y-62150000D03*
D25*
X103577500Y-126925000D03*
X97527500Y-126925000D03*
D32*
X99798008Y-104876992D03*
X98701992Y-105973008D03*
D26*
X92940000Y-134378686D03*
X91365000Y-134378686D03*
D12*
X74081400Y-135799600D03*
X75731400Y-135799600D03*
D24*
X89060000Y-51650000D03*
X88040000Y-51650000D03*
D57*
X88040000Y-49650000D03*
X89060000Y-49650000D03*
D20*
X105175000Y-77900000D03*
X103625000Y-77900000D03*
D38*
X93075000Y-88475000D03*
X93075000Y-90025000D03*
D14*
X129150000Y-62380400D03*
X129150000Y-64030400D03*
D17*
X110130000Y-139300000D03*
X108480000Y-139300000D03*
D67*
X123237500Y-145625000D03*
X123237500Y-147525000D03*
X125112500Y-146575000D03*
D78*
X122774400Y-81224400D03*
X123274400Y-81224400D03*
X123774400Y-81224400D03*
X124274400Y-81224400D03*
X124774400Y-81224400D03*
X125274400Y-81224400D03*
D79*
X125974400Y-80524400D03*
X125974400Y-80024400D03*
X125974400Y-79524400D03*
X125974400Y-79024400D03*
X125974400Y-78524400D03*
X125974400Y-78024400D03*
D78*
X125274400Y-77324400D03*
X124774400Y-77324400D03*
X124274400Y-77324400D03*
X123774400Y-77324400D03*
X123274400Y-77324400D03*
X122774400Y-77324400D03*
D79*
X122074400Y-78024400D03*
X122074400Y-78524400D03*
X122074400Y-79024400D03*
X122074400Y-79524400D03*
X122074400Y-80024400D03*
X122074400Y-80524400D03*
D67*
X115912500Y-145625000D03*
X115912500Y-147525000D03*
X117787500Y-146575000D03*
D18*
X82630000Y-51200000D03*
X81670000Y-51200000D03*
D30*
X90470000Y-62950000D03*
X91430000Y-62950000D03*
D12*
X91325000Y-137450000D03*
X92975000Y-137450000D03*
D20*
X131649400Y-88299400D03*
X130099400Y-88299400D03*
D30*
X105570000Y-43900000D03*
X106530000Y-43900000D03*
D55*
X112005000Y-128550000D03*
X112005000Y-131500000D03*
D34*
X105120100Y-139304972D03*
X106670100Y-139304972D03*
D32*
X100873008Y-105951992D03*
X99776992Y-107048008D03*
D15*
X115750000Y-90025000D03*
X115750000Y-88475000D03*
D49*
X83821800Y-137436600D03*
X83821800Y-135686600D03*
X82511800Y-137436600D03*
X82511800Y-135686600D03*
D50*
X85646800Y-138466600D03*
X85646800Y-137196600D03*
X85646800Y-135926600D03*
X85646800Y-134656600D03*
X80686800Y-134656600D03*
X80686800Y-135926600D03*
X80686800Y-137196600D03*
X80686800Y-138466600D03*
D17*
X89875000Y-75568333D03*
X88225000Y-75568333D03*
D67*
X108802500Y-140850000D03*
X108802500Y-142750000D03*
X110677500Y-141800000D03*
D15*
X116635000Y-64550000D03*
X116635000Y-63000000D03*
X120575000Y-78875000D03*
X120575000Y-77325000D03*
D80*
X85012500Y-77050000D03*
X86587500Y-77050000D03*
D12*
X91327500Y-131325000D03*
X92977500Y-131325000D03*
D17*
X121450000Y-147550000D03*
X119800000Y-147550000D03*
D12*
X111530000Y-134675000D03*
X113180000Y-134675000D03*
X119427500Y-141075000D03*
X121077500Y-141075000D03*
D48*
X85550000Y-45785000D03*
X85550000Y-44815000D03*
D39*
X113725000Y-119925000D03*
X116675000Y-119925000D03*
D34*
X131150000Y-59675000D03*
X132700000Y-59675000D03*
D39*
X113725000Y-117525000D03*
X116675000Y-117525000D03*
D17*
X92977500Y-132828686D03*
X91327500Y-132828686D03*
X113180000Y-133125000D03*
X111530000Y-133125000D03*
D37*
X83225000Y-89737500D03*
X83225000Y-92662500D03*
D12*
X80775000Y-73975000D03*
X82425000Y-73975000D03*
D20*
X105175000Y-100575000D03*
X103625000Y-100575000D03*
D75*
X105350000Y-61750000D03*
X106600000Y-61750000D03*
X105350000Y-60500000D03*
X106600000Y-60500000D03*
D76*
X104975000Y-63062500D03*
X105475000Y-63062500D03*
X105975000Y-63062500D03*
X106475000Y-63062500D03*
X106975000Y-63062500D03*
D77*
X107912500Y-62125000D03*
X107912500Y-61625000D03*
X107912500Y-61125000D03*
X107912500Y-60625000D03*
X107912500Y-60125000D03*
D76*
X106975000Y-59187500D03*
X106475000Y-59187500D03*
X105975000Y-59187500D03*
X105475000Y-59187500D03*
X104975000Y-59187500D03*
D77*
X104037500Y-60125000D03*
X104037500Y-60625000D03*
X104037500Y-61125000D03*
X104037500Y-61625000D03*
X104037500Y-62125000D03*
D39*
X96777500Y-122075000D03*
X99727500Y-122075000D03*
D17*
X121077500Y-142775000D03*
X119427500Y-142775000D03*
M02*
